{
copyright = "Copyright (c) 2024 by Vladimir Nikolic. All rights reserved.";
designer = "Vladimir Nikolic";
designerURL = "https://www.coroflot.com/vladimirnikolic";
familyName = "New Amsterdam";
customParameters = (
{
name = glyphOrder;
value = (
.notdef,
NULL,
uni000D,
space,
exclam,
quotedbl,
numbersign,
dollar,
percent,
ampersand,
quotesingle,
parenleft,
parenright,
asterisk,
plus,
comma,
hyphen,
period,
slash,
zero,
one,
two,
three,
four,
five,
six,
seven,
eight,
nine,
colon,
semicolon,
less,
equal,
greater,
question,
at,
A,
B,
C,
D,
E,
F,
G,
H,
I,
J,
K,
L,
M,
N,
O,
P,
Q,
R,
S,
T,
U,
V,
W,
X,
Y,
Z,
bracketleft,
backslash,
bracketright,
asciicircum,
underscore,
grave,
a,
b,
c,
d,
e,
f,
g,
h,
i,
j,
k,
l,
m,
n,
o,
p,
q,
r,
s,
t,
u,
v,
w,
x,
y,
z,
braceleft,
bar,
braceright,
asciitilde,
exclamdown,
cent,
sterling,
currency,
yen,
section,
dieresis,
copyright,
ordfeminine,
guillemotleft,
uni00AD,
registered,
macron,
degree,
plusminus,
acute,
paragraph,
periodcentered,
cedilla,
ordmasculine,
guillemotright,
questiondown,
Agrave,
Aacute,
Acircumflex,
Atilde,
Adieresis,
Aring,
AE,
Ccedilla,
Egrave,
Eacute,
Ecircumflex,
Edieresis,
Igrave,
Iacute,
Icircumflex,
Idieresis,
Eth,
Ntilde,
Ograve,
Oacute,
Ocircumflex,
Otilde,
Odieresis,
multiply,
Oslash,
Ugrave,
Uacute,
Ucircumflex,
Udieresis,
Yacute,
Thorn,
germandbls,
agrave,
aacute,
acircumflex,
atilde,
adieresis,
aring,
ae,
ccedilla,
egrave,
eacute,
ecircumflex,
edieresis,
igrave,
iacute,
icircumflex,
idieresis,
eth,
ntilde,
ograve,
oacute,
ocircumflex,
otilde,
odieresis,
divide,
oslash,
ugrave,
uacute,
ucircumflex,
udieresis,
yacute,
thorn,
ydieresis,
Amacron,
amacron,
Abreve,
abreve,
Aogonek,
aogonek,
Cacute,
cacute,
Ccircumflex,
ccircumflex,
Cdotaccent,
cdotaccent,
Ccaron,
ccaron,
Dcaron,
dcaron,
Dcroat,
dcroat,
Emacron,
emacron,
Ebreve,
ebreve,
Edotaccent,
edotaccent,
Eogonek,
eogonek,
Ecaron,
ecaron,
Gcircumflex,
gcircumflex,
Gbreve,
gbreve,
Gdotaccent,
gdotaccent,
uni0122,
uni0123,
Hcircumflex,
hcircumflex,
Hbar,

glyphs = (
{
glyphname = exclam;
layers = (
{
layerId = "B61A831B-AFE2-4931-A0BA-7BE9EE52F2B7";
paths = (
{
nodes = (
"139 160 LINE",
"26 160 LINE",
"26 651 LINE",
"139 651 LINE"
);
},
{
nodes = (
"113 106 OFFCURVE",
"139 82 OFFCURVE",
"139 53 QCURVE SMOOTH",
"139 24 OFFCURVE",
"113 0 OFFCURVE",
"82 0 QCURVE SMOOTH",
"52 0 OFFCURVE",
"26 24 OFFCURVE",
"26 53 QCURVE SMOOTH",
"26 82 OFFCURVE",
"52 106 OFFCURVE",
"82 106 QCURVE SMOOTH"
);
}
);
width = 167;
}
);
unicode = 0021;
},
{
glyphname = quotedbl;
layers = (
{
layerId = "B61A831B-AFE2-4931-A0BA-7BE9EE52F2B7";
paths = (
{
nodes = (
"20 652 LINE",
"117 652 LINE",
"94 486 LINE",
"73 485 OFFCURVE",
"57 485 QCURVE",
"43 484 OFFCURVE",
"20 484 OFFCURVE",
"20 485 QCURVE"
);
},
{
nodes = (
"141 652 LINE",
"238 652 LINE",
"213 486 LINE",
"193 485 OFFCURVE",
"177 485 QCURVE",
"176 485 LINE",
"176 485 OFFCURVE",
"176 485 QCURVE",
"176 485 OFFCURVE",
"176 485 QCURVE",
"176 485 OFFCURVE",
"176 485 QCURVE",
"176 485 OFFCURVE",
"176 485 QCURVE",
"175 485 LINE",
"175 485 OFFCURVE",
"175 485 QCURVE",
"175 485 OFFCURVE",
"175 485 QCURVE",
"175 485 OFFCURVE",
"175 485 QCURVE",
"175 485 OFFCURVE",
"175 485 QCURVE",
"174 485 LINE",
"174 485 OFFCURVE",
"174 485 QCURVE",
"174 485 OFFCURVE",
"174 485 QCURVE",
"174 485 OFFCURVE",
"174 485 QCURVE",
"171 485 LINE",
"171 485 OFFCURVE",
"171 485 QCURVE",
"171 485 OFFCURVE",
"171 485 QCURVE",
"171 485 OFFCURVE",
"171 485 QCURVE",
"171 485 OFFCURVE",
"171 485 QCURVE",
"171 485 OFFCURVE",
"170 485 QCURVE",
"170 485 OFFCURVE",
"170 485 QCURVE",
"170 485 OFFCURVE",
"170 485 QCURVE",
"170 485 OFFCURVE",
"170 485 QCURVE",
"170 485 OFFCURVE",
"170 485 QCURVE",
"166 485 LINE",
"166 485 OFFCURVE",
"166 485 QCURVE",
"166 485 OFFCURVE",
"166 485 QCURVE",
"165 485 LINE",
"165 485 OFFCURVE",
"165 485 QCURVE",
"165 485 OFFCURVE",
"165 485 QCURVE",
"165 485 OFFCURVE",
"165 485 QCURVE",
"165 485 OFFCURVE",
"165 485 QCURVE",
"165 485 OFFCURVE",
"165 485 QCURVE",
"165 485 OFFCURVE",
"165 485 QCURVE",
"165 485 OFFCURVE",
"165 485 QCURVE",
"164 485 LINE",
"164 485 OFFCURVE",
"164 485 QCURVE",
"164 485 OFFCURVE",
"164 485 QCURVE",
"164 485 OFFCURVE",
"164 485 QCURVE",
"152 485 LINE SMOOTH",
"141 485 OFFCURVE",
"141 486 QCURVE"
);
}
);
width = 253;
}
);
unicode = 0022;
},
{
glyphname = numbersign;
layers = (
{
layerId = "B61A831B-AFE2-4931-A0BA-7BE9EE52F2B7";
paths = (
{
nodes = (
"451 398 LINE",
"377 398 LINE",
"351 254 LINE",
"456 254 LINE",
"456 192 LINE",
"340 192 LINE",
"317 61 LINE",
"239 61 LINE",
"263 192 LINE",
"171 192 LINE",
"147 59 LINE",
"69 59 LINE",
"94 192 LINE",
"23 192 LINE",
"23 254 LINE",
"105 254 LINE",
"132 398 LINE",
"23 398 LINE",
"23 460 LINE",
"143 460 LINE",
"165 577 LINE",
"239 576 LINE",
"218 460 LINE",
"313 460 LINE",
"335 579 LINE",
"409 578 LINE",
"388 460 LINE",
"451 460 LINE"
);
},
{
nodes = (
"275 254 LINE",
"301 398 LINE",
"207 398 LINE",
"182 254 LINE"
);
}
);
width = 475;
}
);
unicode = 0023;
},
{
glyphname = dollar;
layers = (
{
layerId = "B61A831B-AFE2-4931-A0BA-7BE9EE52F2B7";
paths = (
{
nodes = (
"264 393 OFFCURVE",
"335 362 OFFCURVE",
"368 308 OFFCURVE",
"373 232 OFFCURVE",
"373 187 QCURVE SMOOTH",
"373 165 LINE SMOOTH",
"373 90 OFFCURVE",
"319 13 OFFCURVE",
"251 3 QCURVE",
"251 -57 LINE",
"138 -57 LINE",
"138 4 LINE",
"98 10 OFFCURVE",
"52 43 OFFCURVE",
"29 93 OFFCURVE",
"23 160 OFFCURVE",
"23 202 QCURVE",
"134 202 LINE",
"134 193 OFFCURVE",
"133 173 OFFCURVE",
"133 165 QCURVE",
"133 165 OFFCURVE",
"133 164 QCURVE",
"133 164 OFFCURVE",
"133 164 QCURVE",
"133 164 OFFCURVE",
"133 164 QCURVE",
"133 164 OFFCURVE",
"133 163 QCURVE",
"133 163 OFFCURVE",
"133 163 QCURVE",
"133 161 LINE",
"133 161 OFFCURVE",
"133 161 QCURVE",
"133 161 OFFCURVE",
"133 161 QCURVE",
"133 158 LINE",
"133 158 OFFCURVE",
"133 158 QCURVE",
"133 158 OFFCURVE",
"133 158 QCURVE",
"133 158 OFFCURVE",
"133 158 QCURVE",
"133 158 OFFCURVE",
"133 158 QCURVE",
"133 158 OFFCURVE",
"133 158 QCURVE",
"133 149 LINE SMOOTH",
"133 141 OFFCURVE",
"134 123 OFFCURVE",
"148 109 OFFCURVE",
"174 106 OFFCURVE",
"190 106 QCURVE",
"190 106 OFFCURVE",
"190 106 QCURVE",
"190 106 OFFCURVE",
"191 106 QCURVE",
"191 106 OFFCURVE",
"191 106 QCURVE",
"191 106 OFFCURVE",
"191 106 QCURVE",
"193 106 LINE",
"193 106 OFFCURVE",
"193 106 QCURVE",
"193 106 OFFCURVE",
"194 106 QCURVE",
"194 106 OFFCURVE",
"194 106 QCURVE",
"194 106 OFFCURVE",
"194 106 QCURVE",
"196 106 LINE",
"196 106 OFFCURVE",
"196 106 QCURVE",
"196 106 OFFCURVE",
"196 106 QCURVE",
"196 106 OFFCURVE",
"196 106 QCURVE",
"196 106 OFFCURVE",
"196 106 QCURVE",
"198 106 LINE",
"198 106 OFFCURVE",
"198 106 QCURVE",
"198 106 OFFCURVE",
"199 106 QCURVE",
"199 106 OFFCURVE",
"199 106 QCURVE",
"199 106 OFFCURVE",
"199 106 QCURVE",
"207 106 LINE",
"227 107 OFFCURVE",
"249 111 OFFCURVE",
"259 120 OFFCURVE",
"261 138 OFFCURVE",
"261 154 QCURVE",
"262 183 OFFCURVE",
"263 208 OFFCURVE",
"263 214 QCURVE SMOOTH",
"263 225 OFFCURVE",
"262 232 QCURVE",
"262 243 OFFCURVE",
"260 263 OFFCURVE",
"258 273 QCURVE",
"256 277 OFFCURVE",
"243 283 OFFCURVE",
"227 286 OFFCURVE",
"209 287 OFFCURVE",
"202 287 QCURVE SMOOTH",
"198 287 LINE SMOOTH",
"136 287 OFFCURVE",
"66 313 OFFCURVE",
"32 363 OFFCURVE",
"23 437 OFFCURVE",
"23 484 QCURVE SMOOTH",
"23 557 OFFCURVE",
"74 633 OFFCURVE",
"138 644 QCURVE",
"138 705 LINE",
"251 705 LINE",
"251 645 LINE",
"319 635 OFFCURVE",
"373 556 OFFCURVE",
"373 479 QCURVE",
"261 479 LINE",
"261 501 OFFCURVE",
"259 527 OFFCURVE",
"248 540 OFFCURVE",
"222 543 OFFCURVE",
"198 543 QCURVE SMOOTH",
"163 543 OFFCURVE",
"138 535 OFFCURVE",
"135 517 QCURVE SMOOTH",
"134 511 OFFCURVE",
"134 492 OFFCURVE",
"133 478 QCURVE",
"133 451 OFFCURVE",
"134 417 OFFCURVE",
"139 403 QCURVE SMOOTH",
"140 400 OFFCURVE",
"156 396 OFFCURVE",
"176 394 OFFCURVE",
"194 393 OFFCURVE",
"198 393 QCURVE SMOOTH"
);
}
);
width = 402;
}
);
unicode = 0024;
},
{
glyphname = percent;
layers = (
{
layerId = "B61A831B-AFE2-4931-A0BA-7BE9EE52F2B7";
paths = (
{
nodes = (
"333 642 LINE",
"117 0 LINE",
"60 0 LINE",
"273 643 LINE"
);
},
{
nodes = (
"163 420 LINE SMOOTH",
"163 400 OFFCURVE",
"159 370 OFFCURVE",
"144 350 OFFCURVE",
"116 339 OFFCURVE",
"91 339 QCURVE SMOOTH",
"72 339 OFFCURVE",
"44 347 OFFCURVE",
"27 363 OFFCURVE",
"20 389 OFFCURVE",
"20 407 QCURVE SMOOTH",
"20 575 LINE SMOOTH",
"20 593 OFFCURVE",
"27 619 OFFCURVE",
"44 635 OFFCURVE",
"72 643 OFFCURVE",
"91 643 QCURVE SMOOTH",
"111 643 OFFCURVE",
"139 635 OFFCURVE",
"156 619 OFFCURVE",
"163 593 OFFCURVE",
"163 575 QCURVE SMOOTH"
);
},
{
nodes = (
"66 418 LINE",
"66 408 OFFCURVE",
"67 395 OFFCURVE",
"73 387 OFFCURVE",
"83 384 OFFCURVE",
"92 384 QCURVE SMOOTH",
"101 384 OFFCURVE",
"112 388 OFFCURVE",
"116 398 OFFCURVE",
"117 411 OFFCURVE",
"117 420 QCURVE SMOOTH",
"117 575 LINE SMOOTH",
"117 583 OFFCURVE",
"116 593 OFFCURVE",
"111 598 OFFCURVE",
"100 599 OFFCURVE",
"91 599 QCURVE SMOOTH",
"82 599 OFFCURVE",
"71 597 OFFCURVE",
"66 592 OFFCURVE",
"65 582 OFFCURVE",
"65 575 QCURVE"
);
},
{
nodes = (
"377 89 LINE SMOOTH",
"377 69 OFFCURVE",
"373 39 OFFCURVE",
"358 19 OFFCURVE",
"330 8 OFFCURVE",
"305 8 QCURVE SMOOTH",
"286 8 OFFCURVE",
"258 16 OFFCURVE",
"241 32 OFFCURVE",
"234 58 OFFCURVE",
"234 76 QCURVE SMOOTH",
"234 244 LINE SMOOTH",
"234 262 OFFCURVE",
"241 288 OFFCURVE",
"258 304 OFFCURVE",
"286 312 OFFCURVE",
"305 312 QCURVE SMOOTH",
"325 312 OFFCURVE",
"353 304 OFFCURVE",
"370 288 OFFCURVE",
"377 262 OFFCURVE",
"377 244 QCURVE SMOOTH"
);
},
{
nodes = (
"280 87 LINE",
"280 77 OFFCURVE",
"281 64 OFFCURVE",
"287 56 OFFCURVE",
"297 53 OFFCURVE",
"306 53 QCURVE SMOOTH",
"315 53 OFFCURVE",
"326 57 OFFCURVE",
"330 67 OFFCURVE",
"331 80 OFFCURVE",
"331 89 QCURVE SMOOTH",
"331 244 LINE SMOOTH",
"331 252 OFFCURVE",
"330 262 OFFCURVE",
"325 267 OFFCURVE",
"314 268 OFFCURVE",
"305 268 QCURVE SMOOTH",
"296 268 OFFCURVE",
"285 266 OFFCURVE",
"280 261 OFFCURVE",
"279 251 OFFCURVE",
"279 244 QCURVE"
);
}
);
width = 402;
}
);
unicode = 0025;
},
{
glyphname = ampersand;
layers = (
{
layerId = "B61A831B-AFE2-4931-A0BA-7BE9EE52F2B7";
paths = (
{
nodes = (
"430 283 LINE",
"379 283 LINE",
"379 0 LINE",
"274 0 LINE",
"274 24 LINE",
"264 16 OFFCURVE",
"225 4 OFFCURVE",
"211 0 QCURVE",
"112 0 OFFCURVE",
"23 76 OFFCURVE",
"23 166 QCURVE SMOOTH",
"23 192 LINE",
"23 192 OFFCURVE",
"23 192 QCURVE",
"23 192 OFFCURVE",
"23 192 QCURVE",
"23 192 OFFCURVE",
"23 193 QCURVE",
"23 193 OFFCURVE",
"23 193 QCURVE",
"23 193 OFFCURVE",
"23 193 QCURVE",
"23 193 OFFCURVE",
"23 193 QCURVE",
"23 193 OFFCURVE",
"23 193 QCURVE",
"23 193 OFFCURVE",
"23 193 QCURVE",
"23 196 LINE",
"23 196 OFFCURVE",
"23 196 QCURVE",
"23 196 OFFCURVE",
"23 196 QCURVE",
"23 196 OFFCURVE",
"23 196 QCURVE",
"23 196 OFFCURVE",
"23 196 QCURVE",
"23 196 OFFCURVE",
"23 196 QCURVE",
"23 196 OFFCURVE",
"23 196 QCURVE",
"23 196 OFFCURVE",
"23 196 QCURVE",
"23 197 LINE",
"23 197 OFFCURVE",
"23 197 QCURVE",
"23 199 LINE",
"23 199 OFFCURVE",
"23 199 QCURVE",
"23 199 OFFCURVE",
"23 199 QCURVE",
"23 200 LINE",
"23 200 OFFCURVE",
"23 200 QCURVE",
"23 200 OFFCURVE",
"23 200 QCURVE",
"23 205 LINE",
"23 205 OFFCURVE",
"23 205 QCURVE",
"23 205 OFFCURVE",
"23 205 QCURVE",
"23 206 LINE",
"23 206 OFFCURVE",
"23 206 QCURVE",
"23 206 OFFCURVE",
"23 206 QCURVE",
"23 206 OFFCURVE",
"23 206 QCURVE",
"23 206 OFFCURVE",
"23 206 QCURVE",
"23 206 OFFCURVE",
"23 206 QCURVE",
"23 206 OFFCURVE",
"23 206 QCURVE",
"23 206 OFFCURVE",
"23 206 QCURVE",
"23 207 LINE",
"23 207 OFFCURVE",
"23 207 QCURVE",
"23 207 OFFCURVE",
"23 207 QCURVE",
"23 207 OFFCURVE",
"23 207 QCURVE",
"23 208 LINE",
"23 208 OFFCURVE",
"23 208 QCURVE",
"23 208 OFFCURVE",
"23 208 QCURVE",
"23 227 LINE",
"23 227 OFFCURVE",
"23 227 QCURVE",
"23 227 OFFCURVE",
"23 227 QCURVE",
"23 227 OFFCURVE",
"23 227 QCURVE",
"23 227 OFFCURVE",
"23 227 QCURVE",
"23 227 OFFCURVE",
"23 227 QCURVE",
"23 228 LINE",
"23 228 OFFCURVE",
"23 228 QCURVE",
"23 228 OFFCURVE",
"23 228 QCURVE",
"23 228 OFFCURVE",
"23 228 QCURVE",
"23 229 LINE",
"23 229 OFFCURVE",
"23 229 QCURVE",
"23 229 OFFCURVE",
"23 229 QCURVE",
"23 250 OFFCURVE",
"31 290 OFFCURVE",
"48 327 OFFCURVE",
"65 343 QCURVE",
"49 358 OFFCURVE",
"32 392 OFFCURVE",
"24 429 OFFCURVE",
"23 467 OFFCURVE",
"23 487 QCURVE SMOOTH",
"23 530 OFFCURVE",
"41 593 OFFCURVE",
"82 633 OFFCURVE",
"149 653 OFFCURVE",
"198 653 QCURVE SMOOTH",
"315 653 LINE",
"315 548 LINE",
"198 548 LINE SMOOTH",
"178 548 OFFCURVE",
"143 537 OFFCURVE",
"137 525 QCURVE",
"136 517 OFFCURVE",
"135 489 OFFCURVE",
"135 474 QCURVE SMOOTH",
"135 456 OFFCURVE",
"139 423 OFFCURVE",
"146 416 QCURVE SMOOTH",
"153 409 OFFCURVE",
"184 401 OFFCURVE",
"199 400 QCURVE",
"274 400 LINE",
"274 449 LINE",
"379 449 LINE",
"379 400 LINE",
"430 400 LINE"
);
},
{
nodes = (
"274 283 LINE",
"199 283 LINE",
"199 286 LINE",
"183 284 OFFCURVE",
"150 275 OFFCURVE",
"143 266 QCURVE SMOOTH",
"138 259 OFFCURVE",
"136 206 OFFCURVE",
"136 181 QCURVE SMOOTH",
"136 143 LINE SMOOTH",
"136 126 OFFCURVE",
"174 111 OFFCURVE",
"197 111 QCURVE",
"198 111 LINE",
"200 111 OFFCURVE",
"220 114 OFFCURVE",
"246 125 OFFCURVE",
"269 147 OFFCURVE",
"274 167 QCURVE"
);
}
);
width = 441;
}
);
unicode = 0026;
},
{
glyphname = quotesingle;
layers = (
{
layerId = "B61A831B-AFE2-4931-A0BA-7BE9EE52F2B7";
paths = (
{
nodes = (
"17 648 LINE",
"114 648 LINE",
"91 482 LINE",
"70 481 OFFCURVE",
"54 481 QCURVE",
"40 480 OFFCURVE",
"17 480 OFFCURVE",
"17 481 QCURVE"
);
}
);
width = 127;
}
);
unicode = 0027;
},
{
glyphname = parenleft;
layers = (
{
layerId = "B61A831B-AFE2-4931-A0BA-7BE9EE52F2B7";
paths = (
{
nodes = (
"26 626 LINE SMOOTH",
"26 680 OFFCURVE",
"51 747 OFFCURVE",
"104 785 OFFCURVE",
"184 798 OFFCURVE",
"240 798 QCURVE",
"240 692 LINE",
"207 692 OFFCURVE",
"167 689 OFFCURVE",
"145 674 OFFCURVE",
"138 644 OFFCURVE",
"138 617 QCURVE SMOOTH",
"138 35 LINE SMOOTH",
"138 8 OFFCURVE",
"145 -22 OFFCURVE",
"167 -37 OFFCURVE",
"207 -40 OFFCURVE",
"240 -40 QCURVE",
"240 -146 LINE",
"184 -146 OFFCURVE",
"104 -133 OFFCURVE",
"51 -95 OFFCURVE",
"26 -28 OFFCURVE",
"26 26 QCURVE SMOOTH"
);
}
);
width = 167;
}
);
unicode = 0028;
},
{
glyphname = parenright;
layers = (
{
layerId = "B61A831B-AFE2-4931-A0BA-7BE9EE52F2B7";
paths = (
{
nodes = (
"-60 797 LINE",
"-5 797 OFFCURVE",
"76 784 OFFCURVE",
"129 746 OFFCURVE",
"154 679 OFFCURVE",
"154 625 QCURVE SMOOTH",
"154 25 LINE SMOOTH",
"154 -29 OFFCURVE",
"129 -96 OFFCURVE",
"76 -134 OFFCURVE",
"-5 -147 OFFCURVE",
"-60 -147 QCURVE",
"-60 -41 LINE",
"-27 -41 OFFCURVE",
"13 -38 OFFCURVE",
"35 -23 OFFCURVE",
"42 7 OFFCURVE",
"42 34 QCURVE SMOOTH",
"42 616 LINE SMOOTH",
"42 643 OFFCURVE",
"35 673 OFFCURVE",
"13 688 OFFCURVE",
"-27 691 OFFCURVE",
"-60 691 QCURVE"
);
}
);
width = 184;
}
);
unicode = 0029;
},
{
glyphname = asterisk;
layers = (
{
layerId = "B61A831B-AFE2-4931-A0BA-7BE9EE52F2B7";
paths = (
{
nodes = (
"251 542 LINE",
"251 474 LINE",
"181 483 LINE",
"226 426 LINE",
"166 391 LINE",
"136 459 LINE",
"105 389 LINE",
"48 426 LINE",
"91 483 LINE",
"23 474 LINE",
"23 542 LINE",
"91 533 LINE",
"46 592 LINE",
"107 627 LINE",
"136 559 LINE",
"166 627 LINE",
"226 592 LINE",
"181 533 LINE"
);
}
);
width = 266;
}
);
unicode = 002A;
},
{
glyphname = plus;
layers = (
{
layerId = "B61A831B-AFE2-4931-A0BA-7BE9EE52F2B7";
paths = (
{
nodes = (
"287 358 LINE",
"287 277 LINE",
"196 277 LINE",
"196 186 LINE",
"115 186 LINE",
"115 277 LINE",
"24 277 LINE",
"24 358 LINE",
"115 358 LINE",
"115 449 LINE",
"196 449 LINE",
"196 358 LINE"
);
}
);
width = 306;
}
);
unicode = 002B;
},
{
glyphname = comma;
layers = (
{
layerId = "B61A831B-AFE2-4931-A0BA-7BE9EE52F2B7";
paths = (
{
nodes = (
"18 -50 LINE",
"36 -38 OFFCURVE",
"36 -19 QCURVE SMOOTH",
"36 3 OFFCURVE",
"26 18 QCURVE SMOOTH",
"21 26 LINE",
"21 25 LINE",
"17 29 OFFCURVE",
"12 37 OFFCURVE",
"10 44 QCURVE SMOOTH",
"9 49 OFFCURVE",
"9 54 QCURVE SMOOTH",
"9 62 OFFCURVE",
"16 80 OFFCURVE",
"35 96 OFFCURVE",
"60 106 OFFCURVE",
"73 106 QCURVE SMOOTH",
"92 106 OFFCURVE",
"122 84 OFFCURVE",
"125 57 QCURVE SMOOTH",
"126 51 OFFCURVE",
"126 46 QCURVE SMOOTH",
"126 13 OFFCURVE",
"82 -46 OFFCURVE",
"49 -69 QCURVE"
);
}
);
width = 139;
}
);
unicode = 002C;
},
{
glyphname = hyphen;
layers = (
{
layerId = "B61A831B-AFE2-4931-A0BA-7BE9EE52F2B7";
paths = (
{
nodes = (
"239 358 LINE",
"239 277 LINE",
"24 277 LINE",
"24 358 LINE"
);
}
);
width = 264;
}
);
unicode = 002D;
},
{
glyphname = period;
layers = (
{
layerId = "B61A831B-AFE2-4931-A0BA-7BE9EE52F2B7";
paths = (
{
nodes = (
"100 107 OFFCURVE",
"126 82 OFFCURVE",
"126 53 QCURVE SMOOTH",
"126 0 OFFCURVE",
"70 0 QCURVE SMOOTH",
"40 0 OFFCURVE",
"14 26 OFFCURVE",
"14 53 QCURVE SMOOTH",
"14 81 OFFCURVE",
"39 107 OFFCURVE",
"70 107 QCURVE SMOOTH"
);
}
);
width = 137;
}
);
unicode = 002E;
},
{
glyphname = slash;
layers = (
{
layerId = "B61A831B-AFE2-4931-A0BA-7BE9EE52F2B7";
paths = (
{
nodes = (
"279 642 LINE",
"92 0 LINE",
"14 0 LINE",
"205 643 LINE"
);
}
);
width = 290;
}
);
unicode = 002F;
},
{
glyphname = zero;
layers = (
{
layerId = "B61A831B-AFE2-4931-A0BA-7BE9EE52F2B7";
paths = (
{
nodes = (
"375 198 LINE SMOOTH",
"375 149 OFFCURVE",
"365 75 OFFCURVE",
"329 25 OFFCURVE",
"260 0 OFFCURVE",
"200 0 QCURVE SMOOTH",
"151 0 OFFCURVE",
"84 18 OFFCURVE",
"42 57 OFFCURVE",
"24 120 OFFCURVE",
"24 166 QCURVE SMOOTH",
"24 487 LINE SMOOTH",
"24 532 OFFCURVE",
"42 595 OFFCURVE",
"84 635 OFFCURVE",
"151 653 OFFCURVE",
"200 653 QCURVE SMOOTH",
"248 653 OFFCURVE",
"315 635 OFFCURVE",
"357 595 OFFCURVE",
"375 532 OFFCURVE",
"375 487 QCURVE SMOOTH"
);
},
{
nodes = (
"137 193 LINE",
"137 168 OFFCURVE",
"141 135 OFFCURVE",
"154 116 OFFCURVE",
"180 108 OFFCURVE",
"202 108 QCURVE SMOOTH",
"224 108 OFFCURVE",
"249 120 OFFCURVE",
"261 142 OFFCURVE",
"263 176 OFFCURVE",
"263 198 QCURVE SMOOTH",
"263 487 LINE SMOOTH",
"263 508 OFFCURVE",
"260 532 OFFCURVE",
"248 544 OFFCURVE",
"222 546 OFFCURVE",
"200 546 QCURVE SMOOTH",
"176 546 OFFCURVE",
"150 541 OFFCURVE",
"138 528 OFFCURVE",
"135 505 OFFCURVE",
"135 487 QCURVE"
);
}
);
width = 402;
}
);
unicode = 0030;
},
{
glyphname = one;
layers = (
{
layerId = "B61A831B-AFE2-4931-A0BA-7BE9EE52F2B7";
paths = (
{
nodes = (
"199 0 LINE",
"87 0 LINE",
"87 546 LINE",
"20 546 LINE",
"20 652 LINE",
"199 652 LINE"
);
}
);
width = 231;
}
);
unicode = 0031;
},
{
glyphname = two;
layers = (
{
layerId = "B61A831B-AFE2-4931-A0BA-7BE9EE52F2B7";
paths = (
{
nodes = (
"376 0 LINE",
"24 0 LINE",
"25 16 OFFCURVE",
"26 51 OFFCURVE",
"26 67 QCURVE SMOOTH",
"26 83 OFFCURVE",
"25 112 OFFCURVE",
"25 127 QCURVE",
"24 140 OFFCURVE",
"24 155 QCURVE",
"24 155 OFFCURVE",
"24 155 QCURVE",
"24 155 OFFCURVE",
"24 155 QCURVE",
"24 155 OFFCURVE",
"24 155 QCURVE",
"24 155 OFFCURVE",
"24 155 QCURVE",
"24 155 OFFCURVE",
"24 155 QCURVE",
"24 155 OFFCURVE",
"24 155 QCURVE",
"24 156 LINE",
"24 156 OFFCURVE",
"24 156 QCURVE",
"24 156 OFFCURVE",
"24 156 QCURVE",
"24 156 OFFCURVE",
"24 156 QCURVE",
"24 156 OFFCURVE",
"24 156 QCURVE",
"24 157 LINE",
"24 157 OFFCURVE",
"24 157 QCURVE",
"24 157 OFFCURVE",
"24 157 QCURVE",
"24 158 LINE",
"24 158 OFFCURVE",
"24 158 QCURVE",
"24 158 OFFCURVE",
"24 158 QCURVE",
"24 158 OFFCURVE",
"24 158 QCURVE",
"24 158 OFFCURVE",
"24 158 QCURVE",
"24 158 OFFCURVE",
"24 158 QCURVE",
"24 158 OFFCURVE",
"24 158 QCURVE",
"24 158 OFFCURVE",
"24 158 QCURVE",
"24 158 OFFCURVE",
"24 158 QCURVE",
"24 159 LINE",
"24 159 OFFCURVE",
"24 159 QCURVE",
"24 160 LINE",
"24 160 OFFCURVE",
"24 160 QCURVE",
"24 160 OFFCURVE",
"24 160 QCURVE",
"24 161 LINE",
"24 161 OFFCURVE",
"24 161 QCURVE",
"24 161 OFFCURVE",
"24 161 QCURVE",
"24 161 OFFCURVE",
"24 161 QCURVE",
"24 161 OFFCURVE",
"24 161 QCURVE",
"24 161 OFFCURVE",
"24 161 QCURVE",
"24 161 OFFCURVE",
"24 161 QCURVE",
"24 161 OFFCURVE",
"24 161 QCURVE",
"24 161 OFFCURVE",
"24 161 QCURVE",
"24 162 LINE",
"24 162 OFFCURVE",
"24 162 QCURVE",
"24 164 LINE",
"24 164 OFFCURVE",
"24 164 QCURVE",
"24 164 OFFCURVE",
"24 164 QCURVE",
"24 164 OFFCURVE",
"24 164 QCURVE",
"24 164 OFFCURVE",
"24 164 QCURVE",
"24 164 OFFCURVE",
"24 164 QCURVE",
"24 164 OFFCURVE",
"24 164 QCURVE",
"24 164 OFFCURVE",
"24 164 QCURVE",
"24 164 OFFCURVE",
"24 164 QCURVE",
"24 164 OFFCURVE",
"24 164 QCURVE",
"24 165 LINE",
"24 165 OFFCURVE",
"24 165 QCURVE",
"24 166 LINE",
"24 166 OFFCURVE",
"24 166 QCURVE",
"24 166 OFFCURVE",
"24 166 QCURVE",
"24 166 OFFCURVE",
"24 166 QCURVE",
"24 166 OFFCURVE",
"24 166 QCURVE",
"24 166 OFFCURVE",
"24 166 QCURVE",
"24 166 OFFCURVE",
"24 166 QCURVE",
"24 166 OFFCURVE",
"24 166 QCURVE",
"24 166 OFFCURVE",
"24 166 QCURVE",
"24 166 OFFCURVE",
"24 166 QCURVE",
"24 167 LINE",
"24 167 OFFCURVE",
"24 167 QCURVE",
"24 167 OFFCURVE",
"24 167 QCURVE",
"24 167 OFFCURVE",
"24 167 QCURVE",
"24 167 OFFCURVE",
"24 167 QCURVE",
"24 169 LINE",
"24 169 OFFCURVE",
"24 169 QCURVE",
"24 169 OFFCURVE",
"24 169 QCURVE",
"24 181 LINE SMOOTH",
"24 221 OFFCURVE",
"35 289 OFFCURVE",
"73 337 OFFCURVE",
"142 364 OFFCURVE",
"201 364 QCURVE SMOOTH",
"226 364 OFFCURVE",
"253 377 OFFCURVE",
"265 398 OFFCURVE",
"266 415 OFFCURVE",
"266 420 QCURVE SMOOTH",
"266 429 OFFCURVE",
"265 438 QCURVE",
"265 443 OFFCURVE",
"264 451 OFFCURVE",
"264 455 QCURVE SMOOTH",
"264 509 OFFCURVE",
"240 547 OFFCURVE",
"201 547 QCURVE SMOOTH",
"183 547 OFFCURVE",
"157 544 OFFCURVE",
"142 531 OFFCURVE",
"137 508 OFFCURVE",
"137 493 QCURVE",
"137 493 OFFCURVE",
"137 493 QCURVE",
"137 493 OFFCURVE",
"137 493 QCURVE",
"137 493 OFFCURVE",
"137 493 QCURVE",
"137 492 LINE",
"137 492 OFFCURVE",
"137 492 QCURVE",
"137 492 OFFCURVE",
"137 492 QCURVE",
"137 492 OFFCURVE",
"137 492 QCURVE",
"137 492 OFFCURVE",
"137 492 QCURVE",
"137 491 LINE",
"137 491 OFFCURVE",
"137 491 QCURVE",
"137 489 LINE",
"137 489 OFFCURVE",
"137 489 QCURVE",
"137 489 OFFCURVE",
"137 489 QCURVE",
"137 484 LINE",
"137 484 OFFCURVE",
"137 484 QCURVE",
"137 484 OFFCURVE",
"137 483 QCURVE",
"137 483 OFFCURVE",
"137 483 QCURVE",
"137 483 OFFCURVE",
"137 483 QCURVE",
"24 483 LINE",
"24 528 OFFCURVE",
"42 592 OFFCURVE",
"83 634 OFFCURVE",
"151 653 OFFCURVE",
"201 653 QCURVE SMOOTH",
"251 653 OFFCURVE",
"318 634 OFFCURVE",
"359 594 OFFCURVE",
"376 532 OFFCURVE",
"376 488 QCURVE SMOOTH",
"376 465 LINE SMOOTH",
"376 420 OFFCURVE",
"371 343 OFFCURVE",
"338 288 OFFCURVE",
"266 257 OFFCURVE",
"199 257 QCURVE SMOOTH",
"194 257 OFFCURVE",
"177 256 OFFCURVE",
"159 252 OFFCURVE",
"143 242 OFFCURVE",
"141 233 QCURVE SMOOTH",
"139 224 OFFCURVE",
"138 191 OFFCURVE",
"137 154 OFFCURVE",
"137 137 QCURVE",
"137 137 OFFCURVE",
"137 137 QCURVE",
"137 137 OFFCURVE",
"137 136 QCURVE",
"137 136 OFFCURVE",
"137 136 QCURVE",
"137 136 OFFCURVE",
"137 136 QCURVE",
"137 136 OFFCURVE",
"137 136 QCURVE",
"137 136 OFFCURVE",
"137 136 QCURVE",
"137 136 OFFCURVE",
"137 136 QCURVE",
"137 135 LINE",
"137 135 OFFCURVE",
"137 135 QCURVE",
"137 133 LINE",
"137 133 OFFCURVE",
"137 133 QCURVE",
"137 133 OFFCURVE",
"137 132 QCURVE",
"137 132 OFFCURVE",
"137 132 QCURVE",
"137 132 OFFCURVE",
"137 132 QCURVE",
"137 132 OFFCURVE",
"137 132 QCURVE",
"137 132 OFFCURVE",
"137 132 QCURVE",
"137 132 OFFCURVE",
"137 132 QCURVE",
"137 131 LINE",
"137 131 OFFCURVE",
"137 131 QCURVE",
"137 107 LINE",
"376 107 LINE"
);
},
{
nodes = (
"24 168 OFFCURVE",
"24 168 QCURVE",
"24 168 OFFCURVE",
"24 168 QCURVE",
"24 168 OFFCURVE",
"24 168 QCURVE"
);
},
{
nodes = (
"24 165 OFFCURVE",
"24 165 QCURVE",
"24 165 OFFCURVE",
"24 165 QCURVE",
"24 165 OFFCURVE",
"24 165 QCURVE"
);
},
{
nodes = (
"24 159 OFFCURVE",
"24 159 QCURVE",
"24 159 OFFCURVE",
"24 159 QCURVE",
"24 159 OFFCURVE",
"24 159 QCURVE"
);
},
{
nodes = (
"24 155 OFFCURVE",
"24 155 QCURVE",
"24 155 OFFCURVE",
"24 155 QCURVE",
"24 155 OFFCURVE",
"24 155 QCURVE"
);
}
);
width = 403;
}
);
unicode = 0032;
},
{
glyphname = three;
layers = (
{
layerId = "B61A831B-AFE2-4931-A0BA-7BE9EE52F2B7";
paths = (
{
nodes = (
"119 396 LINE",
"145 396 LINE SMOOTH",
"156 396 OFFCURVE",
"170 395 OFFCURVE",
"174 395 QCURVE SMOOTH",
"181 395 OFFCURVE",
"188 396 QCURVE",
"214 397 OFFCURVE",
"242 414 OFFCURVE",
"254 438 OFFCURVE",
"255 468 OFFCURVE",
"255 483 QCURVE SMOOTH",
"255 502 OFFCURVE",
"252 526 OFFCURVE",
"240 540 OFFCURVE",
"215 546 OFFCURVE",
"191 547 QCURVE",
"167 547 OFFCURVE",
"142 543 OFFCURVE",
"130 530 OFFCURVE",
"128 504 OFFCURVE",
"128 483 QCURVE",
"15 483 LINE",
"15 528 OFFCURVE",
"33 592 OFFCURVE",
"74 634 OFFCURVE",
"141 653 OFFCURVE",
"191 653 QCURVE SMOOTH",
"252 653 OFFCURVE",
"322 627 OFFCURVE",
"358 577 OFFCURVE",
"367 504 OFFCURVE",
"367 456 QCURVE SMOOTH",
"367 426 OFFCURVE",
"349 366 OFFCURVE",
"326 343 QCURVE",
"342 327 OFFCURVE",
"359 293 OFFCURVE",
"367 257 OFFCURVE",
"368 218 OFFCURVE",
"368 198 QCURVE SMOOTH",
"368 150 OFFCURVE",
"359 77 OFFCURVE",
"324 26 OFFCURVE",
"253 0 OFFCURVE",
"191 0 QCURVE SMOOTH",
"141 0 OFFCURVE",
"74 19 OFFCURVE",
"33 61 OFFCURVE",
"15 126 OFFCURVE",
"15 172 QCURVE",
"128 172 LINE",
"128 150 OFFCURVE",
"133 124 OFFCURVE",
"147 111 OFFCURVE",
"169 106 OFFCURVE",
"186 106 QCURVE SMOOTH",
"213 106 OFFCURVE",
"242 118 OFFCURVE",
"255 139 OFFCURVE",
"256 166 OFFCURVE",
"256 181 QCURVE SMOOTH",
"256 198 LINE SMOOTH",
"256 241 OFFCURVE",
"244 277 OFFCURVE",
"227 282 QCURVE SMOOTH",
"205 289 OFFCURVE",
"180 290 OFFCURVE",
"173 290 QCURVE SMOOTH",
"160 290 OFFCURVE",
"147 289 QCURVE",
"119 289 LINE"
);
}
);
width = 388;
}
);
unicode = 0033;
},
{
glyphname = four;
layers = (
{
layerId = "B61A831B-AFE2-4931-A0BA-7BE9EE52F2B7";
paths = (
{
nodes = (
"386 193 LINE",
"336 193 LINE",
"336 0 LINE",
"223 0 LINE",
"223 193 LINE",
"18 193 LINE",
"18 263 LINE SMOOTH",
"18 279 OFFCURVE",
"19 296 QCURVE",
"225 653 LINE",
"336 653 LINE",
"336 299 LINE",
"386 299 LINE"
);
},
{
nodes = (
"223 428 LINE",
"205 396 OFFCURVE",
"166 332 OFFCURVE",
"147 299 QCURVE",
"223 299 LINE"
);
}
);
width = 405;
}
);
unicode = 0034;
},
{
glyphname = five;
layers = (
{
layerId = "B61A831B-AFE2-4931-A0BA-7BE9EE52F2B7";
paths = (
{
nodes = (
"138 171 LINE",
"138 169 OFFCURVE",
"139 155 OFFCURVE",
"143 138 OFFCURVE",
"152 122 OFFCURVE",
"161 118 QCURVE",
"161 119 LINE",
"169 115 OFFCURVE",
"191 110 OFFCURVE",
"203 110 QCURVE SMOOTH",
"217 110 OFFCURVE",
"245 119 OFFCURVE",
"253 131 QCURVE SMOOTH",
"265 148 OFFCURVE",
"268 203 OFFCURVE",
"268 222 QCURVE SMOOTH",
"268 230 LINE SMOOTH",
"268 257 OFFCURVE",
"265 291 OFFCURVE",
"249 310 OFFCURVE",
"215 316 OFFCURVE",
"183 316 QCURVE SMOOTH",
"26 316 LINE",
"26 653 LINE",
"378 653 LINE",
"378 546 LINE",
"138 546 LINE",
"138 422 LINE",
"211 422 LINE SMOOTH",
"275 422 OFFCURVE",
"343 394 OFFCURVE",
"374 344 OFFCURVE",
"378 274 OFFCURVE",
"378 231 QCURVE SMOOTH",
"378 198 LINE SMOOTH",
"378 150 OFFCURVE",
"369 77 OFFCURVE",
"334 26 OFFCURVE",
"263 0 OFFCURVE",
"202 0 QCURVE SMOOTH",
"152 0 OFFCURVE",
"85 19 OFFCURVE",
"44 60 OFFCURVE",
"26 125 OFFCURVE",
"26 171 QCURVE"
);
}
);
width = 401;
}
);
unicode = 0035;
},
{
glyphname = six;
layers = (
{
layerId = "B61A831B-AFE2-4931-A0BA-7BE9EE52F2B7";
paths = (
{
nodes = (
"266 483 LINE",
"266 484 OFFCURVE",
"269 499 OFFCURVE",
"269 518 OFFCURVE",
"264 537 OFFCURVE",
"256 542 QCURVE SMOOTH",
"253 544 OFFCURVE",
"222 547 OFFCURVE",
"204 547 QCURVE SMOOTH",
"184 547 OFFCURVE",
"149 542 OFFCURVE",
"146 537 QCURVE",
"147 537 LINE",
"143 529 OFFCURVE",
"140 480 OFFCURVE",
"140 454 QCURVE SMOOTH",
"140 440 OFFCURVE",
"141 414 OFFCURVE",
"141 403 QCURVE SMOOTH",
"141 390 LINE",
"156 393 OFFCURVE",
"189 395 OFFCURVE",
"205 395 QCURVE SMOOTH",
"271 395 OFFCURVE",
"343 364 OFFCURVE",
"376 309 OFFCURVE",
"381 232 OFFCURVE",
"381 187 QCURVE SMOOTH",
"381 166 LINE SMOOTH",
"381 121 OFFCURVE",
"363 58 OFFCURVE",
"322 18 OFFCURVE",
"255 0 OFFCURVE",
"205 0 QCURVE SMOOTH",
"145 0 OFFCURVE",
"75 27 OFFCURVE",
"39 74 OFFCURVE",
"29 139 OFFCURVE",
"29 177 QCURVE SMOOTH",
"29 462 LINE SMOOTH",
"29 504 OFFCURVE",
"37 574 OFFCURVE",
"71 625 OFFCURVE",
"142 653 OFFCURVE",
"205 653 QCURVE SMOOTH",
"254 653 OFFCURVE",
"322 634 OFFCURVE",
"363 592 OFFCURVE",
"381 528 OFFCURVE",
"381 483 QCURVE"
);
},
{
nodes = (
"142 194 LINE SMOOTH",
"142 164 OFFCURVE",
"146 130 OFFCURVE",
"158 113 OFFCURVE",
"183 109 OFFCURVE",
"204 109 QCURVE SMOOTH",
"229 109 OFFCURVE",
"255 116 OFFCURVE",
"267 133 OFFCURVE",
"268 162 OFFCURVE",
"268 185 QCURVE SMOOTH",
"268 213 LINE SMOOTH",
"268 236 OFFCURVE",
"265 267 OFFCURVE",
"253 285 OFFCURVE",
"231 291 OFFCURVE",
"215 291 QCURVE",
"215 291 OFFCURVE",
"215 291 QCURVE",
"215 291 OFFCURVE",
"215 291 QCURVE",
"215 291 OFFCURVE",
"214 291 QCURVE",
"214 291 OFFCURVE",
"214 291 QCURVE",
"214 291 OFFCURVE",
"214 291 QCURVE",
"214 291 OFFCURVE",
"214 291 QCURVE",
"214 291 OFFCURVE",
"214 291 QCURVE",
"214 291 OFFCURVE",
"214 291 QCURVE",
"212 291 LINE",
"212 291 OFFCURVE",
"212 291 QCURVE",
"212 291 OFFCURVE",
"212 291 QCURVE",
"211 291 LINE",
"211 291 OFFCURVE",
"211 291 QCURVE",
"211 291 OFFCURVE",
"211 291 QCURVE",
"211 291 OFFCURVE",
"211 291 QCURVE",
"205 291 LINE",
"181 290 OFFCURVE",
"156 281 OFFCURVE",
"144 262 OFFCURVE",
"142 231 OFFCURVE",
"142 208 QCURVE SMOOTH"
);
}
);
width = 404;
}
);
unicode = 0036;
},
{
glyphname = seven;
layers = (
{
layerId = "B61A831B-AFE2-4931-A0BA-7BE9EE52F2B7";
paths = (
{
nodes = (
"342 649 LINE",
"345 639 OFFCURVE",
"345 622 QCURVE SMOOTH",
"345 610 OFFCURVE",
"339 558 OFFCURVE",
"317 462 OFFCURVE",
"285 350 OFFCURVE",
"250 238 OFFCURVE",
"214 131 OFFCURVE",
"200 89 QCURVE",
"200 90 LINE",
"194 68 OFFCURVE",
"178 22 OFFCURVE",
"171 0 QCURVE",
"53 0 LINE",
"224 547 LINE",
"18 547 LINE",
"18 653 LINE",
"337 653 LINE"
);
}
);
width = 360;
}
);
unicode = 0037;
},
{
glyphname = eight;
layers = (
{
layerId = "B61A831B-AFE2-4931-A0BA-7BE9EE52F2B7";
paths = (
{
nodes = (
"47 358 OFFCURVE",
"30 393 OFFCURVE",
"22 429 OFFCURVE",
"21 467 OFFCURVE",
"21 487 QCURVE SMOOTH",
"21 531 OFFCURVE",
"39 594 OFFCURVE",
"80 634 OFFCURVE",
"148 653 OFFCURVE",
"198 653 QCURVE SMOOTH",
"259 653 OFFCURVE",
"330 627 OFFCURVE",
"364 576 OFFCURVE",
"373 503 OFFCURVE",
"373 455 QCURVE SMOOTH",
"373 425 OFFCURVE",
"355 366 OFFCURVE",
"332 343 QCURVE",
"348 327 OFFCURVE",
"364 293 OFFCURVE",
"372 256 OFFCURVE",
"373 218 OFFCURVE",
"373 198 QCURVE SMOOTH",
"373 150 OFFCURVE",
"364 77 OFFCURVE",
"330 26 OFFCURVE",
"259 0 OFFCURVE",
"198 0 QCURVE SMOOTH",
"148 0 OFFCURVE",
"80 18 OFFCURVE",
"39 58 OFFCURVE",
"21 121 OFFCURVE",
"21 166 QCURVE SMOOTH",
"21 188 LINE",
"21 188 OFFCURVE",
"21 188 QCURVE",
"21 188 OFFCURVE",
"21 188 QCURVE",
"21 188 OFFCURVE",
"21 188 QCURVE",
"21 188 OFFCURVE",
"21 188 QCURVE",
"21 188 OFFCURVE",
"21 188 QCURVE",
"21 188 OFFCURVE",
"21 189 QCURVE",
"21 189 OFFCURVE",
"21 189 QCURVE",
"21 189 OFFCURVE",
"21 189 QCURVE",
"21 189 OFFCURVE",
"21 189 QCURVE",
"21 190 LINE",
"21 190 OFFCURVE",
"21 190 QCURVE",
"21 190 OFFCURVE",
"21 190 QCURVE",
"21 192 LINE",
"21 192 OFFCURVE",
"21 192 QCURVE",
"21 192 OFFCURVE",
"21 192 QCURVE",
"21 192 OFFCURVE",
"21 192 QCURVE",
"21 192 OFFCURVE",
"21 192 QCURVE",
"21 192 OFFCURVE",
"21 192 QCURVE",
"21 192 OFFCURVE",
"21 193 QCURVE",
"21 193 OFFCURVE",
"21 193 QCURVE",
"21 193 OFFCURVE",
"21 193 QCURVE",
"21 193 OFFCURVE",
"21 193 QCURVE",
"21 199 LINE",
"21 199 OFFCURVE",
"21 199 QCURVE",
"21 199 OFFCURVE",
"21 199 QCURVE",
"21 199 OFFCURVE",
"21 199 QCURVE",
"21 199 OFFCURVE",
"21 199 QCURVE",
"21 199 OFFCURVE",
"21 199 QCURVE",
"21 199 OFFCURVE",
"21 200 QCURVE",
"21 200 OFFCURVE",
"21 200 QCURVE",
"21 200 OFFCURVE",
"21 200 QCURVE",
"21 200 OFFCURVE",
"21 200 QCURVE",
"21 206 LINE",
"21 206 OFFCURVE",
"21 206 QCURVE",
"21 206 OFFCURVE",
"21 206 QCURVE",
"21 206 OFFCURVE",
"21 206 QCURVE",
"21 206 OFFCURVE",
"21 206 QCURVE",
"21 206 OFFCURVE",
"21 206 QCURVE",
"21 206 OFFCURVE",
"21 207 QCURVE",
"21 207 OFFCURVE",
"21 207 QCURVE",
"21 207 OFFCURVE",
"21 207 QCURVE",
"21 207 OFFCURVE",
"21 207 QCURVE",
"21 208 LINE",
"21 208 OFFCURVE",
"21 208 QCURVE",
"21 208 OFFCURVE",
"21 208 QCURVE",
"21 223 LINE",
"21 223 OFFCURVE",
"21 223 QCURVE",
"21 223 OFFCURVE",
"21 223 QCURVE",
"21 223 OFFCURVE",
"21 223 QCURVE",
"21 223 OFFCURVE",
"21 223 QCURVE",
"21 223 OFFCURVE",
"21 223 QCURVE",
"21 223 OFFCURVE",
"21 224 QCURVE",
"21 224 OFFCURVE",
"21 224 QCURVE",
"21 224 OFFCURVE",
"21 224 QCURVE",
"21 224 OFFCURVE",
"21 224 QCURVE",
"21 229 LINE SMOOTH",
"21 250 OFFCURVE",
"29 290 OFFCURVE",
"46 327 OFFCURVE",
"63 343 QCURVE"
);
},
{
nodes = (
"134 517 OFFCURVE",
"133 489 OFFCURVE",
"133 474 QCURVE SMOOTH",
"133 456 OFFCURVE",
"137 423 OFFCURVE",
"144 416 QCURVE SMOOTH",
"152 408 OFFCURVE",
"181 399 OFFCURVE",
"198 399 QCURVE SMOOTH",
"218 399 OFFCURVE",
"253 414 OFFCURVE",
"257 428 QCURVE SMOOTH",
"262 445 OFFCURVE",
"262 475 OFFCURVE",
"261 491 QCURVE",
"261 498 OFFCURVE",
"260 511 OFFCURVE",
"260 518 QCURVE SMOOTH",
"260 533 OFFCURVE",
"219 548 OFFCURVE",
"196 548 QCURVE SMOOTH",
"176 548 OFFCURVE",
"141 537 OFFCURVE",
"135 525 QCURVE"
);
},
{
nodes = (
"261 181 LINE SMOOTH",
"261 194 OFFCURVE",
"260 221 OFFCURVE",
"259 245 OFFCURVE",
"256 263 OFFCURVE",
"253 266 QCURVE SMOOTH",
"244 277 OFFCURVE",
"214 286 OFFCURVE",
"197 286 QCURVE SMOOTH",
"180 286 OFFCURVE",
"149 277 OFFCURVE",
"141 266 QCURVE SMOOTH",
"136 259 OFFCURVE",
"134 206 OFFCURVE",
"134 181 QCURVE SMOOTH",
"134 143 LINE SMOOTH",
"134 126 OFFCURVE",
"172 111 OFFCURVE",
"195 111 QCURVE SMOOTH",
"220 111 OFFCURVE",
"261 127 OFFCURVE",
"261 142 QCURVE SMOOTH"
);
}
);
width = 400;
}
);
unicode = 0038;
},
{
glyphname = nine;
layers = (
{
layerId = "B61A831B-AFE2-4931-A0BA-7BE9EE52F2B7";
paths = (
{
nodes = (
"132 169 LINE",
"132 158 OFFCURVE",
"133 120 OFFCURVE",
"136 115 QCURVE SMOOTH",
"137 113 OFFCURVE",
"150 110 OFFCURVE",
"169 108 OFFCURVE",
"192 107 OFFCURVE",
"203 107 QCURVE SMOOTH",
"221 107 OFFCURVE",
"250 111 OFFCURVE",
"254 115 QCURVE SMOOTH",
"255 117 OFFCURVE",
"258 134 OFFCURVE",
"259 158 OFFCURVE",
"260 186 OFFCURVE",
"260 201 QCURVE SMOOTH",
"260 216 OFFCURVE",
"259 244 OFFCURVE",
"259 253 QCURVE SMOOTH",
"259 262 LINE",
"242 258 OFFCURVE",
"211 257 OFFCURVE",
"195 257 QCURVE SMOOTH",
"129 257 OFFCURVE",
"57 288 OFFCURVE",
"24 343 OFFCURVE",
"19 420 OFFCURVE",
"19 465 QCURVE SMOOTH",
"19 488 LINE SMOOTH",
"19 532 OFFCURVE",
"37 594 OFFCURVE",
"78 634 OFFCURVE",
"145 653 OFFCURVE",
"195 653 QCURVE SMOOTH",
"255 653 OFFCURVE",
"325 626 OFFCURVE",
"361 578 OFFCURVE",
"371 512 OFFCURVE",
"371 473 QCURVE SMOOTH",
"371 405 LINE",
"370 228 LINE",
"370 201 LINE SMOOTH",
"370 157 OFFCURVE",
"365 83 OFFCURVE",
"332 30 OFFCURVE",
"261 0 OFFCURVE",
"195 0 QCURVE SMOOTH",
"145 0 OFFCURVE",
"78 19 OFFCURVE",
"37 61 OFFCURVE",
"19 126 OFFCURVE",
"19 172 QCURVE"
);
},
{
nodes = (
"137 538 LINE",
"129 531 OFFCURVE",
"128 486 OFFCURVE",
"128 465 QCURVE SMOOTH",
"128 455 LINE SMOOTH",
"128 452 OFFCURVE",
"129 428 OFFCURVE",
"131 400 OFFCURVE",
"134 376 OFFCURVE",
"136 373 QCURVE SMOOTH",
"140 368 OFFCURVE",
"175 364 OFFCURVE",
"195 364 QCURVE SMOOTH",
"213 364 OFFCURVE",
"249 368 OFFCURVE",
"254 373 QCURVE",
"256 377 OFFCURVE",
"259 399 OFFCURVE",
"260 424 OFFCURVE",
"260 436 QCURVE SMOOTH",
"260 442 LINE",
"260 442 OFFCURVE",
"260 442 QCURVE",
"260 471 LINE SMOOTH",
"260 483 OFFCURVE",
"258 510 OFFCURVE",
"255 534 OFFCURVE",
"252 538 QCURVE SMOOTH",
"248 544 OFFCURVE",
"217 549 OFFCURVE",
"199 549 QCURVE SMOOTH",
"179 549 OFFCURVE",
"143 543 OFFCURVE",
"138 538 QCURVE"
);
}
);
width = 393;
}
);
unicode = 0039;
},
{
glyphname = colon;
layers = (
{
layerId = "B61A831B-AFE2-4931-A0BA-7BE9EE52F2B7";
paths = (
{
nodes = (
"98 644 OFFCURVE",
"124 618 OFFCURVE",
"124 590 QCURVE SMOOTH",
"124 536 OFFCURVE",
"68 536 QCURVE SMOOTH",
"38 536 OFFCURVE",
"12 562 OFFCURVE",
"12 590 QCURVE SMOOTH",
"12 617 OFFCURVE",
"37 644 OFFCURVE",
"68 644 QCURVE SMOOTH"
);
},
{
nodes = (
"100 107 OFFCURVE",
"126 82 OFFCURVE",
"126 53 QCURVE SMOOTH",
"126 0 OFFCURVE",
"69 0 QCURVE SMOOTH",
"40 0 OFFCURVE",
"14 26 OFFCURVE",
"14 53 QCURVE SMOOTH",
"14 81 OFFCURVE",
"39 107 OFFCURVE",
"69 107 QCURVE SMOOTH"
);
}
);
width = 137;
}
);
unicode = 003A;
},
{
glyphname = semicolon;
layers = (
{
layerId = "B61A831B-AFE2-4931-A0BA-7BE9EE52F2B7";
paths = (
{
nodes = (
"98 644 OFFCURVE",
"124 618 OFFCURVE",
"124 590 QCURVE SMOOTH",
"124 536 OFFCURVE",
"68 536 QCURVE SMOOTH",
"38 536 OFFCURVE",
"12 562 OFFCURVE",
"12 590 QCURVE SMOOTH",
"12 617 OFFCURVE",
"37 644 OFFCURVE",
"68 644 QCURVE SMOOTH"
);
},
{
nodes = (
"18 -50 LINE",
"36 -38 OFFCURVE",
"36 -19 QCURVE SMOOTH",
"36 3 OFFCURVE",
"26 18 QCURVE SMOOTH",
"21 26 LINE",
"21 25 LINE",
"17 29 OFFCURVE",
"12 37 OFFCURVE",
"10 44 QCURVE SMOOTH",
"9 49 OFFCURVE",
"9 54 QCURVE SMOOTH",
"9 62 OFFCURVE",
"16 80 OFFCURVE",
"35 96 OFFCURVE",
"60 106 OFFCURVE",
"73 106 QCURVE SMOOTH",
"92 106 OFFCURVE",
"122 84 OFFCURVE",
"125 57 QCURVE SMOOTH",
"126 51 OFFCURVE",
"126 46 QCURVE SMOOTH",
"126 13 OFFCURVE",
"82 -46 OFFCURVE",
"49 -69 QCURVE"
);
}
);
width = 137;
}
);
unicode = 003B;
},
{
glyphname = less;
layers = (
{
layerId = "B61A831B-AFE2-4931-A0BA-7BE9EE52F2B7";
paths = (
{
nodes = (
"287 503 LINE",
"286 407 LINE",
"103 311 LINE",
"283 215 LINE",
"284 117 LINE",
"24 265 LINE",
"24 357 LINE"
);
}
);
width = 314;
}
);
unicode = 003C;
},
{
glyphname = equal;
layers = (
{
layerId = "B61A831B-AFE2-4931-A0BA-7BE9EE52F2B7";
paths = (
{
nodes = (
"316 421 LINE",
"316 340 LINE",
"24 340 LINE",
"24 421 LINE"
);
},
{
nodes = (
"317 202 LINE",
"25 202 LINE",
"25 283 LINE",
"317 283 LINE"
);
}
);
width = 337;
}
);
unicode = 003D;
},
{
glyphname = greater;
layers = (
{
layerId = "B61A831B-AFE2-4931-A0BA-7BE9EE52F2B7";
paths = (
{
nodes = (
"289 358 LINE",
"289 263 LINE",
"28 112 LINE",
"29 212 LINE",
"210 310 LINE",
"26 409 LINE",
"25 507 LINE"
);
}
);
width = 314;
}
);
unicode = 003E;
},
{
glyphname = question;
layers = (
{
layerId = "B61A831B-AFE2-4931-A0BA-7BE9EE52F2B7";
paths = (
{
nodes = (
"105 160 LINE",
"105 216 OFFCURVE",
"125 286 OFFCURVE",
"155 328 OFFCURVE",
"191 349 OFFCURVE",
"207 357 QCURVE SMOOTH",
"224 365 OFFCURVE",
"248 381 OFFCURVE",
"250 398 QCURVE SMOOTH",
"251 406 OFFCURVE",
"252 443 OFFCURVE",
"252 461 QCURVE SMOOTH",
"252 486 OFFCURVE",
"249 530 OFFCURVE",
"246 537 QCURVE",
"243 541 OFFCURVE",
"213 544 OFFCURVE",
"194 544 QCURVE SMOOTH",
"171 544 OFFCURVE",
"131 540 OFFCURVE",
"129 536 QCURVE SMOOTH",
"127 534 OFFCURVE",
"125 519 OFFCURVE",
"124 501 OFFCURVE",
"124 493 QCURVE",
"124 492 LINE",
"124 492 OFFCURVE",
"124 492 QCURVE",
"124 492 OFFCURVE",
"124 492 QCURVE",
"124 492 OFFCURVE",
"124 492 QCURVE",
"124 492 OFFCURVE",
"124 492 QCURVE",
"124 492 OFFCURVE",
"124 492 QCURVE",
"124 492 OFFCURVE",
"124 491 QCURVE",
"124 491 OFFCURVE",
"124 491 QCURVE",
"124 491 OFFCURVE",
"124 491 QCURVE",
"124 491 OFFCURVE",
"124 491 QCURVE",
"124 491 OFFCURVE",
"124 491 QCURVE",
"124 491 OFFCURVE",
"124 491 QCURVE",
"124 491 OFFCURVE",
"124 490 QCURVE",
"124 490 OFFCURVE",
"124 490 QCURVE",
"124 490 OFFCURVE",
"124 490 QCURVE",
"124 490 OFFCURVE",
"124 490 QCURVE",
"124 490 OFFCURVE",
"124 490 QCURVE",
"124 490 OFFCURVE",
"124 490 QCURVE",
"124 490 OFFCURVE",
"124 490 QCURVE",
"124 489 LINE",
"124 489 OFFCURVE",
"124 489 QCURVE",
"124 489 OFFCURVE",
"124 489 QCURVE",
"124 489 OFFCURVE",
"124 488 QCURVE",
"124 488 OFFCURVE",
"124 488 QCURVE",
"124 488 OFFCURVE",
"124 488 QCURVE",
"124 488 OFFCURVE",
"124 488 QCURVE",
"124 488 OFFCURVE",
"124 488 QCURVE",
"124 488 OFFCURVE",
"124 488 QCURVE",
"124 488 OFFCURVE",
"124 488 QCURVE",
"124 487 LINE",
"124 487 OFFCURVE",
"124 487 QCURVE",
"124 487 OFFCURVE",
"124 487 QCURVE",
"124 487 OFFCURVE",
"124 487 QCURVE",
"124 487 OFFCURVE",
"124 487 QCURVE",
"124 487 OFFCURVE",
"124 487 QCURVE",
"124 487 OFFCURVE",
"124 486 QCURVE",
"124 486 OFFCURVE",
"124 486 QCURVE",
"124 486 OFFCURVE",
"124 486 QCURVE",
"124 486 OFFCURVE",
"124 486 QCURVE",
"124 486 OFFCURVE",
"124 486 QCURVE",
"124 486 OFFCURVE",
"124 486 QCURVE",
"124 486 OFFCURVE",
"124 486 QCURVE",
"124 486 OFFCURVE",
"124 486 QCURVE",
"124 486 OFFCURVE",
"124 486 QCURVE",
"124 486 OFFCURVE",
"124 485 QCURVE",
"124 485 OFFCURVE",
"124 485 QCURVE",
"124 485 OFFCURVE",
"124 485 QCURVE",
"124 485 OFFCURVE",
"124 485 QCURVE",
"124 483 LINE",
"124 483 OFFCURVE",
"124 483 QCURVE",
"124 483 OFFCURVE",
"124 483 QCURVE",
"124 483 OFFCURVE",
"124 483 QCURVE",
"124 483 OFFCURVE",
"124 483 QCURVE",
"124 483 OFFCURVE",
"124 483 QCURVE",
"124 483 OFFCURVE",
"124 482 QCURVE",
"124 482 OFFCURVE",
"124 482 QCURVE",
"124 482 OFFCURVE",
"124 482 QCURVE",
"124 482 OFFCURVE",
"124 482 QCURVE",
"124 482 OFFCURVE",
"124 482 QCURVE",
"124 482 OFFCURVE",
"124 482 QCURVE",
"124 482 OFFCURVE",
"124 482 QCURVE",
"124 482 OFFCURVE",
"124 482 QCURVE",
"124 482 OFFCURVE",
"124 482 QCURVE",
"124 482 OFFCURVE",
"124 481 QCURVE",
"124 481 OFFCURVE",
"124 481 QCURVE",
"124 481 OFFCURVE",
"124 481 QCURVE",
"124 481 OFFCURVE",
"124 481 QCURVE",
"124 481 OFFCURVE",
"124 481 QCURVE",
"124 481 OFFCURVE",
"124 481 QCURVE",
"11 481 LINE",
"11 526 OFFCURVE",
"29 590 OFFCURVE",
"70 632 OFFCURVE",
"138 651 OFFCURVE",
"188 651 QCURVE SMOOTH",
"238 651 OFFCURVE",
"305 632 OFFCURVE",
"346 592 OFFCURVE",
"363 530 OFFCURVE",
"363 486 QCURVE SMOOTH",
"363 415 OFFCURVE",
"347 333 OFFCURVE",
"321 289 OFFCURVE",
"289 273 OFFCURVE",
"273 269 QCURVE SMOOTH",
"262 266 OFFCURVE",
"242 258 OFFCURVE",
"227 236 OFFCURVE",
"217 195 OFFCURVE",
"217 160 QCURVE"
);
},
{
nodes = (
"217 106 OFFCURVE",
"217 53 QCURVE SMOOTH",
"217 24 OFFCURVE",
"191 0 OFFCURVE",
"161 0 QCURVE SMOOTH",
"131 0 OFFCURVE",
"105 24 OFFCURVE",
"105 53 QCURVE SMOOTH",
"105 106 OFFCURVE",
"161 106 QCURVE SMOOTH"
);
}
);
width = 380;
}
);
unicode = 003F;
},
{
glyphname = at;
layers = (
{
layerId = "B61A831B-AFE2-4931-A0BA-7BE9EE52F2B7";
paths = (
{
nodes = (
"651 169 LINE",
"643 157 LINE",
"612 92 OFFCURVE",
"543 55 QCURVE SMOOTH",
"467 14 OFFCURVE",
"357 14 QCURVE SMOOTH",
"303 14 OFFCURVE",
"212 31 OFFCURVE",
"174 49 QCURVE",
"134 66 OFFCURVE",
"76 119 OFFCURVE",
"57 153 QCURVE",
"39 188 OFFCURVE",
"19 263 OFFCURVE",
"19 303 QCURVE SMOOTH",
"19 392 OFFCURVE",
"64 467 QCURVE",
"85 505 OFFCURVE",
"143 564 OFFCURVE",
"181 582 QCURVE SMOOTH",
"257 620 OFFCURVE",
"351 620 QCURVE SMOOTH",
"434 620 OFFCURVE",
"497 589 QCURVE SMOOTH",
"529 574 OFFCURVE",
"577 529 OFFCURVE",
"594 501 QCURVE SMOOTH",
"628 442 OFFCURVE",
"628 375 QCURVE SMOOTH",
"628 335 OFFCURVE",
"601 261 OFFCURVE",
"575 228 QCURVE SMOOTH",
"512 146 OFFCURVE",
"411 146 QCURVE SMOOTH",
"383 146 OFFCURVE",
"365 156 QCURVE",
"361 161 OFFCURVE",
"353 169 OFFCURVE",
"349 174 QCURVE",
"312 146 OFFCURVE",
"268 146 QCURVE SMOOTH",
"214 146 OFFCURVE",
"175 183 QCURVE",
"138 220 OFFCURVE",
"138 282 QCURVE SMOOTH",
"138 320 OFFCURVE",
"161 388 OFFCURVE",
"181 420 QCURVE",
"235 497 OFFCURVE",
"317 497 QCURVE SMOOTH",
"343 497 OFFCURVE",
"381 480 OFFCURVE",
"396 465 QCURVE",
"401 487 LINE",
"502 487 LINE",
"453 258 LINE SMOOTH",
"450 244 OFFCURVE",
"449 234 OFFCURVE",
"449 233 QCURVE",
"449 227 OFFCURVE",
"450 227 QCURVE",
"452 226 LINE",
"456 226 OFFCURVE",
"471 231 OFFCURVE",
"485 242 QCURVE SMOOTH",
"515 264 OFFCURVE",
"533 302 QCURVE",
"554 338 OFFCURVE",
"554 379 QCURVE SMOOTH",
"554 449 OFFCURVE",
"501 499 QCURVE",
"444 548 OFFCURVE",
"349 548 QCURVE SMOOTH",
"309 548 OFFCURVE",
"239 530 OFFCURVE",
"210 514 QCURVE SMOOTH",
"181 498 OFFCURVE",
"139 452 OFFCURVE",
"124 423 QCURVE",
"95 362 OFFCURVE",
"95 299 QCURVE SMOOTH",
"95 236 OFFCURVE",
"127 184 QCURVE",
"143 160 OFFCURVE",
"188 123 OFFCURVE",
"217 112 QCURVE",
"278 87 OFFCURVE",
"352 87 QCURVE SMOOTH",
"389 87 OFFCURVE",
"452 98 OFFCURVE",
"478 108 QCURVE SMOOTH",
"531 127 OFFCURVE",
"560 166 QCURVE",
"563 169 LINE"
);
},
{
nodes = (
"343 254 OFFCURVE",
"357 278 OFFCURVE",
"362 296 QCURVE",
"373 328 OFFCURVE",
"373 360 QCURVE SMOOTH",
"373 375 OFFCURVE",
"367 399 OFFCURVE",
"360 407 QCURVE SMOOTH",
"346 423 OFFCURVE",
"324 423 QCURVE SMOOTH",
"313 423 OFFCURVE",
"291 414 OFFCURVE",
"280 404 QCURVE SMOOTH",
"259 386 OFFCURVE",
"249 352 QCURVE SMOOTH",
"237 313 OFFCURVE",
"237 287 QCURVE SMOOTH",
"237 249 OFFCURVE",
"252 234 QCURVE SMOOTH",
"266 220 OFFCURVE",
"285 220 QCURVE SMOOTH",
"293 220 OFFCURVE",
"306 222 OFFCURVE",
"313 227 QCURVE",
"314 227 LINE",
"325 233 OFFCURVE",
"335 245 QCURVE SMOOTH"
);
}
);
width = 659;
}
);
unicode = 0040;
},
{
glyphname = A;
layers = (
{
layerId = "B61A831B-AFE2-4931-A0BA-7BE9EE52F2B7";
paths = (
{
nodes = (
"246 0 LINE",
"246 128 LINE",
"119 128 LINE",
"119 0 LINE",
"8 0 LINE",
"8 139 LINE SMOOTH",
"8 207 OFFCURVE",
"16 337 OFFCURVE",
"44 464 OFFCURVE",
"99 587 OFFCURVE",
"146 649 QCURVE",
"218 649 LINE",
"266 587 OFFCURVE",
"321 463 OFFCURVE",
"350 337 OFFCURVE",
"358 207 OFFCURVE",
"358 139 QCURVE SMOOTH",
"358 0 LINE"
);
},
{
nodes = (
"245 233 LINE",
"243 266 OFFCURVE",
"234 337 OFFCURVE",
"218 407 OFFCURVE",
"196 474 OFFCURVE",
"182 504 QCURVE",
"152 441 OFFCURVE",
"122 303 OFFCURVE",
"119 233 QCURVE"
);
}
);
width = 370;
}
);
unicode = 0041;
},
{
glyphname = B;
layers = (
{
layerId = "B61A831B-AFE2-4931-A0BA-7BE9EE52F2B7";
paths = (
{
nodes = (
"378 467 OFFCURVE",
"375 429 OFFCURVE",
"366 390 OFFCURVE",
"349 354 OFFCURVE",
"336 341 QCURVE",
"352 326 OFFCURVE",
"369 291 OFFCURVE",
"377 255 OFFCURVE",
"379 216 OFFCURVE",
"379 197 QCURVE SMOOTH",
"379 129 OFFCURVE",
"351 50 OFFCURVE",
"293 10 OFFCURVE",
"207 -1 OFFCURVE",
"150 -1 QCURVE SMOOTH",
"101 -1 LINE SMOOTH",
"84 -1 OFFCURVE",
"46 0 OFFCURVE",
"28 0 QCURVE",
"28 649 LINE",
"42 649 OFFCURVE",
"74 650 OFFCURVE",
"87 650 QCURVE SMOOTH",
"135 650 LINE SMOOTH",
"182 650 OFFCURVE",
"267 637 OFFCURVE",
"332 600 OFFCURVE",
"374 535 OFFCURVE",
"378 484 QCURVE"
);
},
{
nodes = (
"245 530 LINE",
"229 541 OFFCURVE",
"173 543 OFFCURVE",
"149 543 QCURVE SMOOTH",
"140 543 LINE",
"140 393 LINE",
"146 393 OFFCURVE",
"156 392 OFFCURVE",
"161 392 QCURVE",
"163 392 LINE",
"163 392 OFFCURVE",
"163 392 QCURVE",
"163 392 OFFCURVE",
"163 392 QCURVE",
"163 392 OFFCURVE",
"163 392 QCURVE",
"166 392 LINE",
"166 392 OFFCURVE",
"166 392 QCURVE",
"166 392 OFFCURVE",
"166 392 QCURVE",
"166 392 OFFCURVE",
"166 392 QCURVE",
"178 392 LINE SMOOTH",
"187 392 OFFCURVE",
"213 393 OFFCURVE",
"233 399 QCURVE SMOOTH",
"252 404 OFFCURVE",
"269 446 OFFCURVE",
"269 470 QCURVE SMOOTH",
"269 491 OFFCURVE",
"257 525 OFFCURVE",
"246 529 QCURVE"
);
},
{
nodes = (
"142 106 LINE",
"146 106 OFFCURVE",
"158 105 OFFCURVE",
"166 105 QCURVE SMOOTH",
"176 105 OFFCURVE",
"201 106 OFFCURVE",
"224 111 OFFCURVE",
"243 119 OFFCURVE",
"249 125 QCURVE SMOOTH",
"259 136 OFFCURVE",
"266 176 OFFCURVE",
"266 199 QCURVE SMOOTH",
"266 215 OFFCURVE",
"263 247 OFFCURVE",
"261 261 QCURVE SMOOTH",
"260 270 OFFCURVE",
"245 280 OFFCURVE",
"222 286 OFFCURVE",
"195 288 OFFCURVE",
"181 288 QCURVE SMOOTH",
"173 288 OFFCURVE",
"159 287 OFFCURVE",
"152 287 QCURVE SMOOTH",
"140 287 LINE"
);
}
);
width = 409;
}
);
unicode = 0042;
},
{
glyphname = C;
layers = (
{
layerId = "B61A831B-AFE2-4931-A0BA-7BE9EE52F2B7";
paths = (
{
nodes = (
"377 202 LINE",
"377 154 OFFCURVE",
"368 78 OFFCURVE",
"334 27 OFFCURVE",
"263 0 OFFCURVE",
"202 0 QCURVE SMOOTH",
"152 0 OFFCURVE",
"85 18 OFFCURVE",
"45 58 OFFCURVE",
"27 121 OFFCURVE",
"27 165 QCURVE SMOOTH",
"27 484 LINE SMOOTH",
"27 528 OFFCURVE",
"45 590 OFFCURVE",
"85 630 OFFCURVE",
"152 649 OFFCURVE",
"202 649 QCURVE SMOOTH",
"251 649 OFFCURVE",
"319 630 OFFCURVE",
"359 588 OFFCURVE",
"377 524 OFFCURVE",
"377 479 QCURVE",
"266 479 LINE",
"266 501 OFFCURVE",
"264 527 OFFCURVE",
"252 540 OFFCURVE",
"226 543 OFFCURVE",
"202 543 QCURVE SMOOTH",
"178 543 OFFCURVE",
"152 541 OFFCURVE",
"141 529 OFFCURVE",
"139 505 OFFCURVE",
"139 484 QCURVE SMOOTH",
"139 289 LINE",
"139 289 OFFCURVE",
"139 289 QCURVE",
"139 289 OFFCURVE",
"139 289 QCURVE",
"139 289 OFFCURVE",
"139 289 QCURVE",
"139 289 OFFCURVE",
"139 289 QCURVE",
"139 289 OFFCURVE",
"139 289 QCURVE",
"139 284 LINE",
"139 284 OFFCURVE",
"139 284 QCURVE",
"139 284 OFFCURVE",
"139 284 QCURVE",
"139 284 OFFCURVE",
"139 284 QCURVE",
"139 284 OFFCURVE",
"139 283 QCURVE",
"139 283 OFFCURVE",
"139 283 QCURVE",
"139 283 OFFCURVE",
"139 283 QCURVE",
"139 283 OFFCURVE",
"139 283 QCURVE",
"139 283 OFFCURVE",
"139 283 QCURVE",
"139 283 OFFCURVE",
"139 283 QCURVE",
"139 283 OFFCURVE",
"139 283 QCURVE",
"139 277 LINE",
"139 277 OFFCURVE",
"139 277 QCURVE",
"139 277 OFFCURVE",
"139 277 QCURVE",
"139 277 OFFCURVE",
"139 277 QCURVE",
"139 277 OFFCURVE",
"139 277 QCURVE",
"139 277 OFFCURVE",
"139 277 QCURVE",
"139 273 LINE",
"139 273 OFFCURVE",
"139 273 QCURVE",
"139 273 OFFCURVE",
"139 273 QCURVE",
"139 273 OFFCURVE",
"139 273 QCURVE",
"139 273 OFFCURVE",
"139 273 QCURVE",
"139 273 OFFCURVE",
"139 273 QCURVE",
"139 265 LINE",
"139 265 OFFCURVE",
"139 265 QCURVE",
"139 265 OFFCURVE",
"139 265 QCURVE",
"139 265 OFFCURVE",
"139 265 QCURVE",
"139 265 OFFCURVE",
"139 265 QCURVE",
"139 265 OFFCURVE",
"139 265 QCURVE",
"139 224 LINE SMOOTH",
"139 188 OFFCURVE",
"140 143 QCURVE",
"142 126 OFFCURVE",
"185 110 OFFCURVE",
"210 110 QCURVE SMOOTH",
"237 110 OFFCURVE",
"255 117 QCURVE",
"263 119 OFFCURVE",
"268 145 OFFCURVE",
"268 159 QCURVE SMOOTH",
"268 167 OFFCURVE",
"267 182 OFFCURVE",
"266 188 QCURVE",
"266 202 LINE"
);
}
);
width = 406;
}
);
unicode = 0043;
},
{
glyphname = D;
layers = (
{
layerId = "B61A831B-AFE2-4931-A0BA-7BE9EE52F2B7";
paths = (
{
nodes = (
"28 649 LINE",
"203 649 LINE SMOOTH",
"252 649 OFFCURVE",
"320 629 OFFCURVE",
"360 588 OFFCURVE",
"378 525 OFFCURVE",
"378 481 QCURVE SMOOTH",
"378 182 LINE SMOOTH",
"378 119 OFFCURVE",
"338 47 OFFCURVE",
"269 10 OFFCURVE",
"178 0 OFFCURVE",
"127 0 QCURVE SMOOTH",
"28 0 LINE"
);
},
{
nodes = (
"140 106 LINE",
"174 106 OFFCURVE",
"222 109 OFFCURVE",
"253 125 OFFCURVE",
"267 157 OFFCURVE",
"267 186 QCURVE SMOOTH",
"267 471 LINE SMOOTH",
"267 499 OFFCURVE",
"254 529 OFFCURVE",
"228 542 OFFCURVE",
"188 544 OFFCURVE",
"161 544 QCURVE SMOOTH",
"140 544 LINE"
);
}
);
width = 406;
}
);
unicode = 0044;
},
{
glyphname = E;
layers = (
{
layerId = "B61A831B-AFE2-4931-A0BA-7BE9EE52F2B7";
paths = (
{
nodes = (
"345 0 LINE",
"29 0 LINE",
"29 649 LINE",
"345 649 LINE",
"345 544 LINE",
"141 544 LINE",
"141 393 LINE",
"285 393 LINE",
"285 287 LINE",
"141 287 LINE",
"141 106 LINE",
"345 106 LINE"
);
}
);
width = 374;
}
);
unicode = 0045;
},
{
glyphname = F;
layers = (
{
layerId = "B61A831B-AFE2-4931-A0BA-7BE9EE52F2B7";
paths = (
{
nodes = (
"346 544 LINE",
"142 544 LINE",
"142 393 LINE",
"286 393 LINE",
"286 287 LINE",
"142 287 LINE",
"142 0 LINE",
"30 0 LINE",
"30 649 LINE",
"346 649 LINE"
);
}
);
width = 370;
}
);
unicode = 0046;
},
{
glyphname = G;
layers = (
{
layerId = "B61A831B-AFE2-4931-A0BA-7BE9EE52F2B7";
paths = (
{
nodes = (
"259 480 LINE",
"257 507 LINE",
"255 521 OFFCURVE",
"252 537 OFFCURVE",
"241 544 OFFCURVE",
"230 544 QCURVE SMOOTH",
"225 544 LINE",
"225 544 OFFCURVE",
"224 544 QCURVE",
"224 544 OFFCURVE",
"224 544 QCURVE",
"224 544 OFFCURVE",
"224 544 QCURVE",
"224 544 OFFCURVE",
"224 544 QCURVE",
"224 544 OFFCURVE",
"224 544 QCURVE",
"224 544 OFFCURVE",
"224 544 QCURVE",
"224 544 OFFCURVE",
"224 544 QCURVE",
"222 544 LINE",
"222 544 OFFCURVE",
"222 544 QCURVE",
"222 544 OFFCURVE",
"222 544 QCURVE",
"222 544 OFFCURVE",
"222 544 QCURVE",
"222 544 OFFCURVE",
"222 544 QCURVE",
"221 544 LINE",
"221 544 OFFCURVE",
"221 544 QCURVE",
"221 544 OFFCURVE",
"221 544 QCURVE",
"220 544 LINE",
"220 544 OFFCURVE",
"220 544 QCURVE",
"220 544 OFFCURVE",
"220 544 QCURVE",
"220 544 OFFCURVE",
"220 544 QCURVE",
"220 544 OFFCURVE",
"220 544 QCURVE",
"219 544 LINE",
"219 544 OFFCURVE",
"219 544 QCURVE",
"219 544 OFFCURVE",
"219 544 QCURVE",
"218 544 LINE",
"218 544 OFFCURVE",
"218 544 QCURVE",
"218 544 OFFCURVE",
"218 544 QCURVE",
"218 544 OFFCURVE",
"218 544 QCURVE",
"218 544 OFFCURVE",
"218 544 QCURVE",
"217 544 LINE",
"217 544 OFFCURVE",
"217 544 QCURVE",
"217 544 OFFCURVE",
"217 544 QCURVE",
"199 544 LINE SMOOTH",
"182 544 OFFCURVE",
"158 541 OFFCURVE",
"142 530 OFFCURVE",
"135 507 OFFCURVE",
"135 485 QCURVE SMOOTH",
"135 165 LINE SMOOTH",
"135 144 OFFCURVE",
"143 121 OFFCURVE",
"161 110 OFFCURVE",
"189 107 OFFCURVE",
"208 106 QCURVE",
"208 106 OFFCURVE",
"208 106 QCURVE",
"208 106 OFFCURVE",
"208 106 QCURVE",
"208 106 OFFCURVE",
"208 106 QCURVE",
"208 106 OFFCURVE",
"208 106 QCURVE",
"209 106 LINE",
"209 106 OFFCURVE",
"209 106 QCURVE",
"209 106 OFFCURVE",
"209 106 QCURVE",
"209 106 OFFCURVE",
"209 106 QCURVE",
"209 106 OFFCURVE",
"209 106 QCURVE",
"210 106 LINE",
"210 106 OFFCURVE",
"210 106 QCURVE",
"210 106 OFFCURVE",
"210 106 QCURVE",
"210 106 OFFCURVE",
"210 106 QCURVE",
"210 106 OFFCURVE",
"210 106 QCURVE",
"211 106 LINE",
"211 106 OFFCURVE",
"211 106 QCURVE",
"211 106 OFFCURVE",
"211 106 QCURVE",
"213 106 LINE",
"228 106 OFFCURVE",
"248 117 OFFCURVE",
"259 141 OFFCURVE",
"262 177 OFFCURVE",
"262 200 QCURVE SMOOTH",
"262 256 LINE",
"170 256 LINE",
"170 362 LINE",
"374 362 LINE",
"374 245 LINE SMOOTH",
"374 187 OFFCURVE",
"365 96 OFFCURVE",
"331 33 OFFCURVE",
"260 0 OFFCURVE",
"199 0 QCURVE SMOOTH",
"149 0 OFFCURVE",
"82 18 OFFCURVE",
"42 58 OFFCURVE",
"24 121 OFFCURVE",
"24 165 QCURVE SMOOTH",
"24 485 LINE SMOOTH",
"24 529 OFFCURVE",
"42 591 OFFCURVE",
"82 631 OFFCURVE",
"149 649 OFFCURVE",
"199 649 QCURVE SMOOTH",
"248 649 OFFCURVE",
"315 630 OFFCURVE",
"356 589 OFFCURVE",
"374 525 OFFCURVE",
"374 480 QCURVE"
);
}
);
width = 402;
}
);
unicode = 0047;
},
{
glyphname = H;
layers = (
{
layerId = "B61A831B-AFE2-4931-A0BA-7BE9EE52F2B7";
paths = (
{
nodes = (
"377 0 LINE",
"267 0 LINE",
"267 287 LINE",
"140 287 LINE",
"140 0 LINE",
"28 0 LINE",
"28 649 LINE",
"140 649 LINE",
"140 394 LINE",
"267 394 LINE",
"267 649 LINE",
"377 649 LINE"
);
}
);
width = 413;
}
);
unicode = 0048;
},
{
glyphname = I;
layers = (
{
layerId = "B61A831B-AFE2-4931-A0BA-7BE9EE52F2B7";
paths = (
{
nodes = (
"28 647 LINE",
"141 647 LINE",
"141 0 LINE",
"28 0 LINE"
);
}
);
width = 169;
}
);
unicode = 0049;
},
{
glyphname = J;
layers = (
{
layerId = "B61A831B-AFE2-4931-A0BA-7BE9EE52F2B7";
paths = (
{
nodes = (
"17 106 LINE",
"50 106 OFFCURVE",
"90 109 OFFCURVE",
"112 124 OFFCURVE",
"119 154 OFFCURVE",
"119 181 QCURVE SMOOTH",
"119 648 LINE",
"231 648 LINE",
"231 172 LINE SMOOTH",
"231 118 OFFCURVE",
"206 51 OFFCURVE",
"153 13 OFFCURVE",
"72 0 OFFCURVE",
"17 0 QCURVE"
);
}
);
width = 268;
}
);
unicode = 004A;
},
{
glyphname = K;
layers = (
{
layerId = "B61A831B-AFE2-4931-A0BA-7BE9EE52F2B7";
paths = (
{
nodes = (
"382 649 LINE",
"375 605 OFFCURVE",
"353 515 OFFCURVE",
"316 431 OFFCURVE",
"263 355 OFFCURVE",
"226 325 QCURVE",
"263 294 OFFCURVE",
"316 219 OFFCURVE",
"352 135 OFFCURVE",
"375 45 OFFCURVE",
"382 0 QCURVE",
"271 0 LINE",
"265 33 OFFCURVE",
"245 105 OFFCURVE",
"215 172 OFFCURVE",
"173 231 OFFCURVE",
"143 252 QCURVE",
"143 0 LINE",
"31 0 LINE",
"31 649 LINE",
"143 649 LINE",
"143 398 LINE",
"173 419 OFFCURVE",
"216 477 OFFCURVE",
"246 545 OFFCURVE",
"265 616 OFFCURVE",
"271 649 QCURVE"
);
}
);
width = 403;
}
);
unicode = 004B;
},
{
glyphname = L;
layers = (
{
layerId = "B61A831B-AFE2-4931-A0BA-7BE9EE52F2B7";
paths = (
{
nodes = (
"307 0 LINE",
"32 0 LINE",
"32 649 LINE",
"145 649 LINE",
"145 106 LINE",
"307 106 LINE"
);
}
);
width = 317;
}
);
unicode = 004C;
},
{
glyphname = M;
layers = (
{
layerId = "B61A831B-AFE2-4931-A0BA-7BE9EE52F2B7";
paths = (
{
nodes = (
"519 0 LINE",
"407 0 LINE",
"407 363 LINE",
"314 147 LINE",
"235 147 LINE",
"143 363 LINE",
"143 0 LINE",
"31 0 LINE",
"31 653 LINE",
"142 653 LINE",
"274 340 LINE",
"408 653 LINE",
"519 653 LINE"
);
}
);
width = 549;
}
);
unicode = 004D;
},
{
glyphname = N;
layers = (
{
layerId = "B61A831B-AFE2-4931-A0BA-7BE9EE52F2B7";
paths = (
{
nodes = (
"413 0 LINE",
"301 0 LINE",
"140 368 LINE",
"140 0 LINE",
"29 0 LINE",
"29 649 LINE",
"139 649 LINE",
"300 281 LINE",
"300 649 LINE",
"413 649 LINE"
);
}
);
width = 446;
}
);
unicode = 004E;
},
{
glyphname = O;
layers = (
{
layerId = "B61A831B-AFE2-4931-A0BA-7BE9EE52F2B7";
paths = (
{
nodes = (
"374 197 LINE SMOOTH",
"374 148 OFFCURVE",
"364 74 OFFCURVE",
"328 25 OFFCURVE",
"259 0 OFFCURVE",
"199 0 QCURVE SMOOTH",
"151 0 OFFCURVE",
"85 18 OFFCURVE",
"43 57 OFFCURVE",
"25 120 OFFCURVE",
"25 165 QCURVE SMOOTH",
"25 484 LINE SMOOTH",
"25 529 OFFCURVE",
"43 592 OFFCURVE",
"85 631 OFFCURVE",
"151 649 OFFCURVE",
"199 649 QCURVE SMOOTH",
"247 649 OFFCURVE",
"314 631 OFFCURVE",
"355 592 OFFCURVE",
"374 529 OFFCURVE",
"374 484 QCURVE SMOOTH"
);
},
{
nodes = (
"137 192 LINE",
"137 167 OFFCURVE",
"141 134 OFFCURVE",
"154 115 OFFCURVE",
"179 108 OFFCURVE",
"201 108 QCURVE SMOOTH",
"223 108 OFFCURVE",
"248 119 OFFCURVE",
"260 142 OFFCURVE",
"262 175 OFFCURVE",
"262 197 QCURVE SMOOTH",
"262 484 LINE SMOOTH",
"262 505 OFFCURVE",
"259 529 OFFCURVE",
"247 541 OFFCURVE",
"221 543 OFFCURVE",
"199 543 QCURVE SMOOTH",
"176 543 OFFCURVE",
"150 538 OFFCURVE",
"138 525 OFFCURVE",
"135 502 OFFCURVE",
"135 484 QCURVE"
);
}
);
width = 402;
}
);
unicode = 004F;
},
{
glyphname = P;
layers = (
{
layerId = "B61A831B-AFE2-4931-A0BA-7BE9EE52F2B7";
paths = (
{
nodes = (
"140 0 LINE",
"27 0 LINE",
"27 648 LINE",
"203 648 LINE SMOOTH",
"263 648 OFFCURVE",
"334 621 OFFCURVE",
"371 573 OFFCURVE",
"382 508 OFFCURVE",
"382 470 QCURVE SMOOTH",
"382 459 OFFCURVE",
"381 437 OFFCURVE",
"381 426 QCURVE SMOOTH",
"381 417 OFFCURVE",
"380 398 OFFCURVE",
"380 388 QCURVE SMOOTH",
"380 327 OFFCURVE",
"346 260 OFFCURVE",
"285 229 OFFCURVE",
"196 224 OFFCURVE",
"140 224 QCURVE"
);
},
{
nodes = (
"140 329 LINE",
"190 329 OFFCURVE",
"243 331 OFFCURVE",
"267 347 OFFCURVE",
"269 375 OFFCURVE",
"269 391 QCURVE",
"269 391 OFFCURVE",
"269 391 QCURVE",
"269 391 OFFCURVE",
"269 391 QCURVE",
"269 391 OFFCURVE",
"269 391 QCURVE",
"269 391 OFFCURVE",
"269 391 QCURVE",
"269 391 OFFCURVE",
"269 391 QCURVE",
"269 391 OFFCURVE",
"269 391 QCURVE",
"269 391 OFFCURVE",
"269 391 QCURVE",
"269 393 LINE",
"269 393 OFFCURVE",
"269 393 QCURVE",
"269 393 OFFCURVE",
"269 393 QCURVE",
"269 393 OFFCURVE",
"269 393 QCURVE",
"269 393 OFFCURVE",
"269 393 QCURVE",
"269 393 OFFCURVE",
"269 393 QCURVE",
"269 393 OFFCURVE",
"269 393 QCURVE",
"269 393 OFFCURVE",
"269 393 QCURVE",
"269 394 LINE",
"269 394 OFFCURVE",
"269 394 QCURVE",
"269 394 OFFCURVE",
"269 394 QCURVE",
"269 394 OFFCURVE",
"269 394 QCURVE",
"269 394 OFFCURVE",
"269 394 QCURVE",
"269 394 OFFCURVE",
"269 394 QCURVE",
"269 394 OFFCURVE",
"269 394 QCURVE",
"269 394 OFFCURVE",
"269 394 QCURVE",
"269 395 LINE",
"269 395 OFFCURVE",
"269 395 QCURVE",
"269 395 OFFCURVE",
"269 395 QCURVE",
"269 395 OFFCURVE",
"269 395 QCURVE",
"269 395 OFFCURVE",
"269 395 QCURVE",
"269 395 OFFCURVE",
"269 396 QCURVE",
"269 396 OFFCURVE",
"269 396 QCURVE",
"269 396 OFFCURVE",
"269 396 QCURVE",
"269 399 LINE",
"269 399 OFFCURVE",
"269 399 QCURVE",
"269 399 OFFCURVE",
"269 399 QCURVE",
"269 399 OFFCURVE",
"269 399 QCURVE",
"269 399 OFFCURVE",
"269 399 QCURVE",
"269 399 OFFCURVE",
"269 400 QCURVE",
"269 400 OFFCURVE",
"269 400 QCURVE",
"269 400 OFFCURVE",
"269 400 QCURVE",
"269 401 LINE",
"269 401 OFFCURVE",
"269 401 QCURVE",
"269 401 OFFCURVE",
"269 401 QCURVE",
"269 401 OFFCURVE",
"269 401 QCURVE",
"269 401 OFFCURVE",
"269 401 QCURVE",
"269 401 OFFCURVE",
"269 401 QCURVE",
"269 401 OFFCURVE",
"269 401 QCURVE",
"269 401 OFFCURVE",
"269 401 QCURVE",
"269 475 LINE",
"269 475 OFFCURVE",
"269 475 QCURVE",
"269 475 OFFCURVE",
"269 475 QCURVE",
"269 475 OFFCURVE",
"269 475 QCURVE",
"269 475 OFFCURVE",
"269 475 QCURVE",
"269 475 OFFCURVE",
"269 475 QCURVE",
"269 475 OFFCURVE",
"269 475 QCURVE",
"269 475 OFFCURVE",
"269 475 QCURVE",
"269 475 OFFCURVE",
"269 476 QCURVE",
"269 476 OFFCURVE",
"269 476 QCURVE",
"269 476 OFFCURVE",
"269 476 QCURVE",
"269 476 OFFCURVE",
"269 476 QCURVE",
"269 476 OFFCURVE",
"269 476 QCURVE",
"269 476 OFFCURVE",
"269 476 QCURVE",
"269 476 OFFCURVE",
"269 476 QCURVE",
"269 476 OFFCURVE",
"269 476 QCURVE",
"269 476 OFFCURVE",
"269 476 QCURVE",
"269 476 OFFCURVE",
"269 476 QCURVE",
"269 476 OFFCURVE",
"269 476 QCURVE",
"269 476 OFFCURVE",
"269 476 QCURVE",
"269 477 LINE",
"269 477 OFFCURVE",
"269 477 QCURVE",
"269 477 OFFCURVE",
"269 477 QCURVE",
"269 477 OFFCURVE",
"269 477 QCURVE",
"269 477 OFFCURVE",
"269 477 QCURVE",
"269 477 OFFCURVE",
"269 477 QCURVE",
"269 477 OFFCURVE",
"269 477 QCURVE",
"269 477 OFFCURVE",
"269 477 QCURVE",
"269 477 OFFCURVE",
"269 477 QCURVE",
"269 477 OFFCURVE",
"269 477 QCURVE",
"269 478 LINE",
"269 478 OFFCURVE",
"269 478 QCURVE",
"269 478 OFFCURVE",
"269 478 QCURVE",
"269 481 LINE SMOOTH",
"269 503 OFFCURVE",
"253 530 OFFCURVE",
"224 542 OFFCURVE",
"187 543 OFFCURVE",
"168 543 QCURVE SMOOTH",
"140 543 LINE"
);
},
{
nodes = (
"269 397 OFFCURVE",
"269 397 QCURVE",
"269 397 OFFCURVE",
"269 397 QCURVE"
);
}
);
width = 405;
}
);
unicode = 0050;
},
{
glyphname = Q;
layers = (
{
layerId = "B61A831B-AFE2-4931-A0BA-7BE9EE52F2B7";
paths = (
{
nodes = (
"378 181 LINE SMOOTH",
"378 146 OFFCURVE",
"371 74 OFFCURVE",
"346 45 QCURVE",
"351 40 OFFCURVE",
"362 24 OFFCURVE",
"367 17 QCURVE SMOOTH",
"382 -4 LINE",
"362 -18 OFFCURVE",
"311 -51 OFFCURVE",
"289 -65 QCURVE",
"240 2 LINE",
"229 1 OFFCURVE",
"205 0 OFFCURVE",
"195 0 QCURVE SMOOTH",
"111 0 OFFCURVE",
"28 72 OFFCURVE",
"28 165 QCURVE SMOOTH",
"28 484 LINE SMOOTH",
"28 528 OFFCURVE",
"46 590 OFFCURVE",
"86 630 OFFCURVE",
"153 649 OFFCURVE",
"203 649 QCURVE SMOOTH",
"252 649 OFFCURVE",
"320 630 OFFCURVE",
"360 590 OFFCURVE",
"378 528 OFFCURVE",
"378 484 QCURVE SMOOTH"
);
},
{
nodes = (
"233 108 OFFCURVE",
"254 120 OFFCURVE",
"264 140 OFFCURVE",
"266 169 OFFCURVE",
"266 188 QCURVE SMOOTH",
"266 505 LINE SMOOTH",
"266 525 OFFCURVE",
"224 546 OFFCURVE",
"200 546 QCURVE SMOOTH",
"177 546 OFFCURVE",
"140 526 OFFCURVE",
"140 505 QCURVE SMOOTH",
"140 163 LINE SMOOTH",
"140 153 OFFCURVE",
"142 133 OFFCURVE",
"155 116 OFFCURVE",
"185 107 OFFCURVE",
"213 107 QCURVE"
);
}
);
width = 410;
}
);
unicode = 0051;
},
{
glyphname = R;
layers = (
{
layerId = "B61A831B-AFE2-4931-A0BA-7BE9EE52F2B7";
paths = (
{
nodes = (
"264 0 LINE",
"176 224 LINE",
"143 224 LINE",
"143 0 LINE",
"31 0 LINE",
"31 649 LINE",
"207 649 LINE SMOOTH",
"256 649 OFFCURVE",
"324 630 OFFCURVE",
"364 590 OFFCURVE",
"382 528 OFFCURVE",
"383 434 OFFCURVE",
"383 417 QCURVE SMOOTH",
"383 374 OFFCURVE",
"379 327 OFFCURVE",
"361 280 OFFCURVE",
"324 244 OFFCURVE",
"292 235 QCURVE",
"384 0 LINE"
);
},
{
nodes = (
"143 329 LINE",
"192 329 OFFCURVE",
"245 335 OFFCURVE",
"269 353 OFFCURVE",
"272 383 OFFCURVE",
"272 421 QCURVE SMOOTH",
"272 434 OFFCURVE",
"271 511 OFFCURVE",
"240 544 OFFCURVE",
"207 544 QCURVE SMOOTH",
"143 544 LINE"
);
}
);
width = 410;
}
);
unicode = 0052;
},
{
glyphname = S;
layers = (
{
layerId = "B61A831B-AFE2-4931-A0BA-7BE9EE52F2B7";
paths = (
{
nodes = (
"136 202 LINE",
"136 193 OFFCURVE",
"135 173 OFFCURVE",
"135 165 QCURVE",
"135 163 LINE",
"135 163 OFFCURVE",
"135 163 QCURVE",
"135 163 OFFCURVE",
"135 163 QCURVE",
"135 163 OFFCURVE",
"135 162 QCURVE",
"135 162 OFFCURVE",
"135 162 QCURVE",
"135 162 OFFCURVE",
"135 162 QCURVE",
"135 158 LINE",
"135 158 OFFCURVE",
"135 158 QCURVE",
"135 158 OFFCURVE",
"135 158 QCURVE",
"135 158 OFFCURVE",
"135 158 QCURVE",
"135 158 OFFCURVE",
"135 158 QCURVE",
"135 158 OFFCURVE",
"135 158 QCURVE",
"135 149 LINE SMOOTH",
"135 141 OFFCURVE",
"136 123 OFFCURVE",
"150 109 OFFCURVE",
"176 106 OFFCURVE",
"192 106 QCURVE",
"192 106 OFFCURVE",
"192 106 QCURVE",
"192 106 OFFCURVE",
"193 106 QCURVE",
"193 106 OFFCURVE",
"193 106 QCURVE",
"193 106 OFFCURVE",
"193 106 QCURVE",
"195 106 LINE",
"195 106 OFFCURVE",
"195 106 QCURVE",
"195 106 OFFCURVE",
"196 106 QCURVE",
"196 106 OFFCURVE",
"196 106 QCURVE",
"196 106 OFFCURVE",
"196 106 QCURVE",
"198 106 LINE",
"198 106 OFFCURVE",
"198 106 QCURVE",
"198 106 OFFCURVE",
"198 106 QCURVE",
"198 106 OFFCURVE",
"198 106 QCURVE",
"198 106 OFFCURVE",
"198 106 QCURVE",
"200 106 LINE",
"200 106 OFFCURVE",
"200 106 QCURVE",
"200 106 OFFCURVE",
"201 106 QCURVE",
"201 106 OFFCURVE",
"201 106 QCURVE",
"201 106 OFFCURVE",
"201 106 QCURVE",
"209 106 LINE",
"229 107 OFFCURVE",
"251 110 OFFCURVE",
"261 120 OFFCURVE",
"263 139 OFFCURVE",
"263 154 QCURVE SMOOTH",
"263 165 LINE SMOOTH",
"263 172 OFFCURVE",
"264 184 OFFCURVE",
"264 192 QCURVE",
"265 205 OFFCURVE",
"265 218 QCURVE SMOOTH",
"265 225 OFFCURVE",
"264 253 OFFCURVE",
"260 273 QCURVE",
"258 278 OFFCURVE",
"246 283 OFFCURVE",
"229 286 OFFCURVE",
"211 287 OFFCURVE",
"204 287 QCURVE SMOOTH",
"200 287 LINE SMOOTH",
"138 287 OFFCURVE",
"68 313 OFFCURVE",
"34 363 OFFCURVE",
"25 437 OFFCURVE",
"25 484 QCURVE SMOOTH",
"25 528 OFFCURVE",
"43 590 OFFCURVE",
"83 630 OFFCURVE",
"150 648 OFFCURVE",
"200 648 QCURVE SMOOTH",
"249 648 OFFCURVE",
"316 629 OFFCURVE",
"357 588 OFFCURVE",
"375 524 OFFCURVE",
"375 479 QCURVE",
"263 479 LINE",
"263 501 OFFCURVE",
"261 527 OFFCURVE",
"250 540 OFFCURVE",
"224 543 OFFCURVE",
"200 543 QCURVE SMOOTH",
"176 543 OFFCURVE",
"151 540 OFFCURVE",
"139 529 OFFCURVE",
"136 505 OFFCURVE",
"136 484 QCURVE SMOOTH",
"136 468 LINE",
"135 457 OFFCURVE",
"135 445 QCURVE SMOOTH",
"135 440 OFFCURVE",
"136 417 OFFCURVE",
"141 403 QCURVE SMOOTH",
"142 400 OFFCURVE",
"158 396 OFFCURVE",
"178 394 OFFCURVE",
"196 393 OFFCURVE",
"200 393 QCURVE SMOOTH",
"266 393 OFFCURVE",
"337 362 OFFCURVE",
"370 308 OFFCURVE",
"375 232 OFFCURVE",
"375 187 QCURVE SMOOTH",
"375 165 LINE SMOOTH",
"375 121 OFFCURVE",
"357 58 OFFCURVE",
"317 18 OFFCURVE",
"249 0 OFFCURVE",
"200 0 QCURVE SMOOTH",
"138 0 OFFCURVE",
"68 27 OFFCURVE",
"34 78 OFFCURVE",
"25 154 OFFCURVE",
"25 202 QCURVE"
);
}
);
width = 402;
}
);
unicode = 0053;
},
{
glyphname = T;
layers = (
{
layerId = "B61A831B-AFE2-4931-A0BA-7BE9EE52F2B7";
paths = (
{
nodes = (
"306 544 LINE",
"202 544 LINE",
"202 0 LINE",
"91 0 LINE",
"91 544 LINE",
"-13 544 LINE",
"-13 649 LINE",
"306 649 LINE"
);
}
);
width = 297;
}
);
unicode = 0054;
},
{
glyphname = U;
layers = (
{
layerId = "B61A831B-AFE2-4931-A0BA-7BE9EE52F2B7";
paths = (
{
nodes = (
"137 648 LINE",
"140 165 LINE",
"140 160 LINE SMOOTH",
"140 152 OFFCURVE",
"141 132 OFFCURVE",
"144 125 QCURVE",
"143 125 LINE",
"148 117 OFFCURVE",
"182 107 OFFCURVE",
"202 107 QCURVE SMOOTH",
"223 107 OFFCURVE",
"260 120 OFFCURVE",
"262 131 QCURVE",
"264 625 OFFCURVE",
"264 648 QCURVE",
"375 648 LINE",
"375 197 LINE SMOOTH",
"375 150 OFFCURVE",
"366 76 OFFCURVE",
"332 26 OFFCURVE",
"261 0 OFFCURVE",
"200 0 QCURVE SMOOTH",
"150 0 OFFCURVE",
"83 18 OFFCURVE",
"43 58 OFFCURVE",
"25 121 OFFCURVE",
"25 165 QCURVE SMOOTH",
"25 648 LINE"
);
}
);
width = 401;
}
);
unicode = 0055;
},
{
glyphname = V;
layers = (
{
layerId = "B61A831B-AFE2-4931-A0BA-7BE9EE52F2B7";
paths = (
{
nodes = (
"363 504 LINE SMOOTH",
"363 437 OFFCURVE",
"355 308 OFFCURVE",
"326 183 OFFCURVE",
"271 60 OFFCURVE",
"223 0 QCURVE",
"152 0 LINE",
"104 60 OFFCURVE",
"49 183 OFFCURVE",
"21 308 OFFCURVE",
"13 437 OFFCURVE",
"13 504 QCURVE SMOOTH",
"13 648 LINE",
"124 648 LINE",
"124 631 OFFCURVE",
"123 590 OFFCURVE",
"123 573 QCURVE SMOOTH",
"123 555 OFFCURVE",
"122 519 OFFCURVE",
"122 501 QCURVE SMOOTH",
"122 454 OFFCURVE",
"126 362 OFFCURVE",
"140 272 OFFCURVE",
"166 186 OFFCURVE",
"188 145 QCURVE",
"230 232 OFFCURVE",
"253 410 OFFCURVE",
"253 503 QCURVE SMOOTH",
"253 520 OFFCURVE",
"252 555 OFFCURVE",
"252 572 QCURVE SMOOTH",
"252 589 OFFCURVE",
"251 630 OFFCURVE",
"251 648 QCURVE",
"363 648 LINE"
);
}
);
width = 383;
}
);
unicode = 0056;
},
{
glyphname = W;
layers = (
{
layerId = "B61A831B-AFE2-4931-A0BA-7BE9EE52F2B7";
paths = (
{
nodes = (
"606 510 LINE SMOOTH",
"606 442 OFFCURVE",
"598 312 OFFCURVE",
"570 186 OFFCURVE",
"515 62 OFFCURVE",
"468 0 QCURVE",
"394 0 LINE",
"370 33 OFFCURVE",
"328 104 OFFCURVE",
"312 140 QCURVE",
"297 105 OFFCURVE",
"256 34 OFFCURVE",
"230 0 QCURVE",
"158 0 LINE",
"111 61 OFFCURVE",
"55 184 OFFCURVE",
"27 310 OFFCURVE",
"19 439 OFFCURVE",
"19 507 QCURVE SMOOTH",
"19 649 LINE",
"131 649 LINE",
"131 630 OFFCURVE",
"130 588 OFFCURVE",
"130 570 QCURVE SMOOTH",
"130 552 OFFCURVE",
"129 518 OFFCURVE",
"129 501 QCURVE SMOOTH",
"129 454 OFFCURVE",
"133 365 OFFCURVE",
"146 278 OFFCURVE",
"171 191 OFFCURVE",
"193 146 QCURVE",
"215 188 OFFCURVE",
"240 274 OFFCURVE",
"254 362 OFFCURVE",
"258 453 OFFCURVE",
"258 499 QCURVE SMOOTH",
"258 518 OFFCURVE",
"257 554 OFFCURVE",
"257 572 QCURVE SMOOTH",
"257 590 OFFCURVE",
"256 631 OFFCURVE",
"256 649 QCURVE",
"368 649 LINE",
"368 631 OFFCURVE",
"367 592 OFFCURVE",
"367 575 QCURVE SMOOTH",
"367 558 OFFCURVE",
"366 524 OFFCURVE",
"366 507 QCURVE SMOOTH",
"366 460 OFFCURVE",
"371 368 OFFCURVE",
"385 276 OFFCURVE",
"411 187 OFFCURVE",
"432 145 QCURVE",
"473 227 OFFCURVE",
"496 407 OFFCURVE",
"496 499 QCURVE SMOOTH",
"496 518 OFFCURVE",
"495 554 OFFCURVE",
"495 572 QCURVE SMOOTH",
"495 590 OFFCURVE",
"494 631 OFFCURVE",
"494 649 QCURVE",
"606 649 LINE"
);
}
);
width = 630;
}
);
unicode = 0057;
},
{
glyphname = X;
layers = (
{
layerId = "B61A831B-AFE2-4931-A0BA-7BE9EE52F2B7";
paths = (
{
nodes = (
"262 0 LINE",
"262 12 OFFCURVE",
"263 38 OFFCURVE",
"263 49 QCURVE SMOOTH",
"263 59 OFFCURVE",
"264 77 OFFCURVE",
"264 85 QCURVE SMOOTH",
"264 109 OFFCURVE",
"260 151 OFFCURVE",
"246 192 OFFCURVE",
"220 231 OFFCURVE",
"198 251 QCURVE",
"177 232 OFFCURVE",
"151 194 OFFCURVE",
"137 154 OFFCURVE",
"133 111 OFFCURVE",
"133 88 QCURVE SMOOTH",
"133 78 OFFCURVE",
"134 60 OFFCURVE",
"134 50 QCURVE SMOOTH",
"134 39 OFFCURVE",
"135 12 OFFCURVE",
"135 0 QCURVE",
"24 0 LINE",
"24 75 LINE SMOOTH",
"24 111 OFFCURVE",
"29 175 OFFCURVE",
"47 235 OFFCURVE",
"84 294 OFFCURVE",
"117 325 QCURVE",
"84 355 OFFCURVE",
"47 414 OFFCURVE",
"29 475 OFFCURVE",
"24 539 OFFCURVE",
"24 575 QCURVE SMOOTH",
"24 649 LINE",
"135 649 LINE",
"135 638 OFFCURVE",
"134 611 OFFCURVE",
"134 600 QCURVE SMOOTH",
"134 590 OFFCURVE",
"133 572 OFFCURVE",
"133 562 QCURVE SMOOTH",
"133 539 OFFCURVE",
"137 495 OFFCURVE",
"151 455 OFFCURVE",
"177 416 OFFCURVE",
"198 398 QCURVE",
"220 417 OFFCURVE",
"246 456 OFFCURVE",
"260 498 OFFCURVE",
"264 542 OFFCURVE",
"264 566 QCURVE SMOOTH",
"264 574 OFFCURVE",
"263 592 OFFCURVE",
"263 602 QCURVE SMOOTH",
"263 613 OFFCURVE",
"262 638 OFFCURVE",
"262 649 QCURVE",
"374 649 LINE",
"374 575 LINE SMOOTH",
"374 539 OFFCURVE",
"369 475 OFFCURVE",
"350 414 OFFCURVE",
"313 355 OFFCURVE",
"280 325 QCURVE",
"313 294 OFFCURVE",
"350 235 OFFCURVE",
"369 175 OFFCURVE",
"374 111 OFFCURVE",
"374 75 QCURVE SMOOTH",
"374 0 LINE"
);
}
);
width = 400;
}
);
unicode = 0058;
},
{
glyphname = Y;
layers = (
{
layerId = "B61A831B-AFE2-4931-A0BA-7BE9EE52F2B7";
paths = (
{
nodes = (
"367 573 LINE SMOOTH",
"367 528 OFFCURVE",
"360 448 OFFCURVE",
"336 374 OFFCURVE",
"288 304 OFFCURVE",
"247 268 QCURVE",
"247 0 LINE",
"135 0 LINE",
"135 268 LINE",
"93 304 OFFCURVE",
"46 374 OFFCURVE",
"23 448 OFFCURVE",
"17 528 OFFCURVE",
"17 573 QCURVE SMOOTH",
"17 649 LINE",
"128 649 LINE",
"128 636 OFFCURVE",
"127 607 OFFCURVE",
"127 595 QCURVE SMOOTH",
"127 584 OFFCURVE",
"126 564 OFFCURVE",
"126 553 QCURVE SMOOTH",
"126 528 OFFCURVE",
"131 479 OFFCURVE",
"145 432 OFFCURVE",
"170 386 OFFCURVE",
"190 364 QCURVE",
"233 409 OFFCURVE",
"257 506 OFFCURVE",
"257 560 QCURVE SMOOTH",
"257 570 OFFCURVE",
"256 589 OFFCURVE",
"256 600 QCURVE SMOOTH",
"256 611 OFFCURVE",
"255 638 OFFCURVE",
"255 649 QCURVE",
"367 649 LINE"
);
}
);
width = 388;
}
);
unicode = 0059;
},
{
glyphname = Z;
layers = (
{
layerId = "B61A831B-AFE2-4931-A0BA-7BE9EE52F2B7";
paths = (
{
nodes = (
"338 0 LINE",
"22 0 LINE",
"22 107 LINE",
"216 544 LINE",
"22 544 LINE",
"22 649 LINE",
"338 649 LINE",
"337 542 LINE",
"145 106 LINE",
"338 106 LINE"
);
}
);
width = 366;
}
);
unicode = 005A;
},
{
glyphname = bracketleft;
layers = (
{
layerId = "B61A831B-AFE2-4931-A0BA-7BE9EE52F2B7";
paths = (
{
nodes = (
"35 -139 LINE",
"36 781 LINE",
"268 781 LINE",
"268 688 LINE",
"147 688 LINE",
"146 -38 LINE",
"267 -38 LINE",
"267 -139 LINE"
);
}
);
width = 186;
}
);
unicode = 005B;
},
{
glyphname = backslash;
layers = (
{
layerId = "B61A831B-AFE2-4931-A0BA-7BE9EE52F2B7";
paths = (
{
nodes = (
"19 642 LINE",
"93 643 LINE",
"284 0 LINE",
"206 0 LINE"
);
}
);
width = 290;
}
);
unicode = 005C;
},
{
glyphname = bracketright;
layers = (
{
layerId = "B61A831B-AFE2-4931-A0BA-7BE9EE52F2B7";
paths = (
{
nodes = (
"152 779 LINE",
"153 -141 LINE",
"-79 -141 LINE",
"-79 -40 LINE",
"42 -40 LINE",
"41 686 LINE",
"-80 686 LINE",
"-80 779 LINE"
);
}
);
width = 188;
}
);
unicode = 005D;
},
{
glyphname = asciicircum;
layers = (
{
layerId = "B61A831B-AFE2-4931-A0BA-7BE9EE52F2B7";
paths = (
{
nodes = (
"16 373 LINE",
"162 636 LINE",
"254 636 LINE",
"402 376 LINE",
"304 377 LINE",
"208 557 LINE",
"112 374 LINE"
);
}
);
width = 423;
}
);
unicode = 005E;
},
{
glyphname = underscore;
layers = (
{
layerId = "B61A831B-AFE2-4931-A0BA-7BE9EE52F2B7";
paths = (
{
nodes = (
"295 0 LINE",
"295 -81 LINE",
"22 -81 LINE",
"22 0 LINE"
);
}
);
width = 321;
}
);
unicode = 005F;
},
{
glyphname = grave;
layers = (
{
layerId = "B61A831B-AFE2-4931-A0BA-7BE9EE52F2B7";
paths = (
{
nodes = (
"78 550 OFFCURVE",
"58 576 OFFCURVE",
"47 591 QCURVE SMOOTH",
"33 609 OFFCURVE",
"16 631 QCURVE",
"113 631 LINE",
"173 550 LINE",
"146 549 OFFCURVE",
"125 549 QCURVE",
"107 548 OFFCURVE",
"78 548 OFFCURVE",
"78 549 QCURVE"
);
}
);
width = 187;
}
);
unicode = 0060;
},
{
glyphname = a;
layers = (
{
layerId = "B61A831B-AFE2-4931-A0BA-7BE9EE52F2B7";
paths = (
{
nodes = (
"246 0 LINE",
"246 128 LINE",
"119 128 LINE",
"119 0 LINE",
"8 0 LINE",
"8 139 LINE SMOOTH",
"8 207 OFFCURVE",
"16 337 OFFCURVE",
"44 464 OFFCURVE",
"99 587 OFFCURVE",
"146 649 QCURVE",
"218 649 LINE",
"266 587 OFFCURVE",
"321 463 OFFCURVE",
"350 337 OFFCURVE",
"358 207 OFFCURVE",
"358 139 QCURVE SMOOTH",
"358 0 LINE"
);
},
{
nodes = (
"245 233 LINE",
"243 266 OFFCURVE",
"234 337 OFFCURVE",
"218 407 OFFCURVE",
"196 474 OFFCURVE",
"182 504 QCURVE",
"152 441 OFFCURVE",
"122 303 OFFCURVE",
"119 233 QCURVE"
);
}
);
width = 370;
}
);
unicode = 0061;
},
{
glyphname = b;
layers = (
{
layerId = "B61A831B-AFE2-4931-A0BA-7BE9EE52F2B7";
paths = (
{
nodes = (
"378 467 OFFCURVE",
"375 429 OFFCURVE",
"366 390 OFFCURVE",
"349 354 OFFCURVE",
"336 341 QCURVE",
"352 326 OFFCURVE",
"369 291 OFFCURVE",
"377 255 OFFCURVE",
"379 216 OFFCURVE",
"379 197 QCURVE SMOOTH",
"379 129 OFFCURVE",
"351 50 OFFCURVE",
"293 10 OFFCURVE",
"207 -1 OFFCURVE",
"150 -1 QCURVE SMOOTH",
"101 -1 LINE SMOOTH",
"84 -1 OFFCURVE",
"46 0 OFFCURVE",
"28 0 QCURVE",
"28 649 LINE",
"42 649 OFFCURVE",
"74 650 OFFCURVE",
"87 650 QCURVE SMOOTH",
"135 650 LINE SMOOTH",
"182 650 OFFCURVE",
"267 637 OFFCURVE",
"332 600 OFFCURVE",
"374 535 OFFCURVE",
"378 484 QCURVE"
);
},
{
nodes = (
"245 530 LINE",
"229 541 OFFCURVE",
"173 543 OFFCURVE",
"149 543 QCURVE SMOOTH",
"140 543 LINE",
"140 393 LINE",
"146 393 OFFCURVE",
"156 392 OFFCURVE",
"161 392 QCURVE",
"163 392 LINE",
"163 392 OFFCURVE",
"163 392 QCURVE",
"163 392 OFFCURVE",
"163 392 QCURVE",
"163 392 OFFCURVE",
"163 392 QCURVE",
"166 392 LINE",
"166 392 OFFCURVE",
"166 392 QCURVE",
"166 392 OFFCURVE",
"166 392 QCURVE",
"166 392 OFFCURVE",
"166 392 QCURVE",
"178 392 LINE SMOOTH",
"187 392 OFFCURVE",
"213 393 OFFCURVE",
"233 399 QCURVE SMOOTH",
"252 404 OFFCURVE",
"269 446 OFFCURVE",
"269 470 QCURVE SMOOTH",
"269 491 OFFCURVE",
"257 525 OFFCURVE",
"246 529 QCURVE"
);
},
{
nodes = (
"142 106 LINE",
"146 106 OFFCURVE",
"158 105 OFFCURVE",
"166 105 QCURVE SMOOTH",
"176 105 OFFCURVE",
"201 106 OFFCURVE",
"224 111 OFFCURVE",
"243 119 OFFCURVE",
"249 125 QCURVE SMOOTH",
"259 136 OFFCURVE",
"266 176 OFFCURVE",
"266 199 QCURVE SMOOTH",
"266 215 OFFCURVE",
"263 247 OFFCURVE",
"261 261 QCURVE SMOOTH",
"260 270 OFFCURVE",
"245 280 OFFCURVE",
"222 286 OFFCURVE",
"195 288 OFFCURVE",
"181 288 QCURVE SMOOTH",
"173 288 OFFCURVE",
"159 287 OFFCURVE",
"152 287 QCURVE SMOOTH",
"140 287 LINE"
);
}
);
width = 409;
}
);
unicode = 0062;
},
{
glyphname = c;
layers = (
{
layerId = "B61A831B-AFE2-4931-A0BA-7BE9EE52F2B7";
paths = (
{
nodes = (
"377 202 LINE",
"377 154 OFFCURVE",
"368 78 OFFCURVE",
"334 27 OFFCURVE",
"263 0 OFFCURVE",
"202 0 QCURVE SMOOTH",
"152 0 OFFCURVE",
"85 18 OFFCURVE",
"45 58 OFFCURVE",
"27 121 OFFCURVE",
"27 165 QCURVE SMOOTH",
"27 484 LINE SMOOTH",
"27 528 OFFCURVE",
"45 590 OFFCURVE",
"85 630 OFFCURVE",
"152 649 OFFCURVE",
"202 649 QCURVE SMOOTH",
"251 649 OFFCURVE",
"319 630 OFFCURVE",
"359 588 OFFCURVE",
"377 524 OFFCURVE",
"377 479 QCURVE",
"266 479 LINE",
"266 501 OFFCURVE",
"264 527 OFFCURVE",
"252 540 OFFCURVE",
"226 543 OFFCURVE",
"202 543 QCURVE SMOOTH",
"178 543 OFFCURVE",
"152 541 OFFCURVE",
"141 529 OFFCURVE",
"139 505 OFFCURVE",
"139 484 QCURVE SMOOTH",
"139 289 LINE",
"139 289 OFFCURVE",
"139 289 QCURVE",
"139 289 OFFCURVE",
"139 289 QCURVE",
"139 289 OFFCURVE",
"139 289 QCURVE",
"139 289 OFFCURVE",
"139 289 QCURVE",
"139 289 OFFCURVE",
"139 289 QCURVE",
"139 284 LINE",
"139 284 OFFCURVE",
"139 284 QCURVE",
"139 284 OFFCURVE",
"139 284 QCURVE",
"139 284 OFFCURVE",
"139 284 QCURVE",
"139 284 OFFCURVE",
"139 283 QCURVE",
"139 283 OFFCURVE",
"139 283 QCURVE",
"139 283 OFFCURVE",
"139 283 QCURVE",
"139 283 OFFCURVE",
"139 283 QCURVE",
"139 283 OFFCURVE",
"139 283 QCURVE",
"139 283 OFFCURVE",
"139 283 QCURVE",
"139 283 OFFCURVE",
"139 283 QCURVE",
"139 277 LINE",
"139 277 OFFCURVE",
"139 277 QCURVE",
"139 277 OFFCURVE",
"139 277 QCURVE",
"139 277 OFFCURVE",
"139 277 QCURVE",
"139 277 OFFCURVE",
"139 277 QCURVE",
"139 277 OFFCURVE",
"139 277 QCURVE",
"139 273 LINE",
"139 273 OFFCURVE",
"139 273 QCURVE",
"139 273 OFFCURVE",
"139 273 QCURVE",
"139 273 OFFCURVE",
"139 273 QCURVE",
"139 273 OFFCURVE",
"139 273 QCURVE",
"139 273 OFFCURVE",
"139 273 QCURVE",
"139 265 LINE",
"139 265 OFFCURVE",
"139 265 QCURVE",
"139 265 OFFCURVE",
"139 265 QCURVE",
"139 265 OFFCURVE",
"139 265 QCURVE",
"139 265 OFFCURVE",
"139 265 QCURVE",
"139 265 OFFCURVE",
"139 265 QCURVE",
"139 224 LINE SMOOTH",
"139 188 OFFCURVE",
"140 143 QCURVE",
"142 126 OFFCURVE",
"185 110 OFFCURVE",
"210 110 QCURVE SMOOTH",
"237 110 OFFCURVE",
"255 117 QCURVE",
"263 119 OFFCURVE",
"268 145 OFFCURVE",
"268 159 QCURVE SMOOTH",
"268 167 OFFCURVE",
"267 182 OFFCURVE",
"266 188 QCURVE",
"266 202 LINE"
);
}
);
width = 406;
}
);
unicode = 0063;
},
{
glyphname = d;
layers = (
{
layerId = "B61A831B-AFE2-4931-A0BA-7BE9EE52F2B7";
paths = (
{
nodes = (
"28 649 LINE",
"203 649 LINE SMOOTH",
"252 649 OFFCURVE",
"320 629 OFFCURVE",
"360 588 OFFCURVE",
"378 525 OFFCURVE",
"378 481 QCURVE SMOOTH",
"378 182 LINE SMOOTH",
"378 119 OFFCURVE",
"338 47 OFFCURVE",
"269 10 OFFCURVE",
"178 0 OFFCURVE",
"127 0 QCURVE SMOOTH",
"28 0 LINE"
);
},
{
nodes = (
"140 106 LINE",
"174 106 OFFCURVE",
"222 109 OFFCURVE",
"253 125 OFFCURVE",
"267 157 OFFCURVE",
"267 186 QCURVE SMOOTH",
"267 471 LINE SMOOTH",
"267 499 OFFCURVE",
"254 529 OFFCURVE",
"228 542 OFFCURVE",
"188 544 OFFCURVE",
"161 544 QCURVE SMOOTH",
"140 544 LINE"
);
}
);
width = 406;
}
);
unicode = 0064;
},
{
glyphname = e;
layers = (
{
layerId = "B61A831B-AFE2-4931-A0BA-7BE9EE52F2B7";
paths = (
{
nodes = (
"345 0 LINE",
"29 0 LINE",
"29 649 LINE",
"345 649 LINE",
"345 544 LINE",
"141 544 LINE",
"141 393 LINE",
"285 393 LINE",
"285 287 LINE",
"141 287 LINE",
"141 106 LINE",
"345 106 LINE"
);
}
);
width = 374;
}
);
unicode = 0065;
},
{
glyphname = f;
layers = (
{
layerId = "B61A831B-AFE2-4931-A0BA-7BE9EE52F2B7";
paths = (
{
nodes = (
"346 544 LINE",
"142 544 LINE",
"142 393 LINE",
"286 393 LINE",
"286 287 LINE",
"142 287 LINE",
"142 0 LINE",
"30 0 LINE",
"30 649 LINE",
"346 649 LINE"
);
}
);
width = 370;
}
);
unicode = 0066;
},
{
glyphname = g;
layers = (
{
layerId = "B61A831B-AFE2-4931-A0BA-7BE9EE52F2B7";
paths = (
{
nodes = (
"259 480 LINE",
"257 507 LINE",
"255 521 OFFCURVE",
"252 537 OFFCURVE",
"241 544 OFFCURVE",
"230 544 QCURVE SMOOTH",
"225 544 LINE",
"225 544 OFFCURVE",
"224 544 QCURVE",
"224 544 OFFCURVE",
"224 544 QCURVE",
"224 544 OFFCURVE",
"224 544 QCURVE",
"224 544 OFFCURVE",
"224 544 QCURVE",
"224 544 OFFCURVE",
"224 544 QCURVE",
"224 544 OFFCURVE",
"224 544 QCURVE",
"224 544 OFFCURVE",
"224 544 QCURVE",
"222 544 LINE",
"222 544 OFFCURVE",
"222 544 QCURVE",
"222 544 OFFCURVE",
"222 544 QCURVE",
"222 544 OFFCURVE",
"222 544 QCURVE",
"222 544 OFFCURVE",
"222 544 QCURVE",
"221 544 LINE",
"221 544 OFFCURVE",
"221 544 QCURVE",
"221 544 OFFCURVE",
"221 544 QCURVE",
"220 544 LINE",
"220 544 OFFCURVE",
"220 544 QCURVE",
"220 544 OFFCURVE",
"220 544 QCURVE",
"220 544 OFFCURVE",
"220 544 QCURVE",
"220 544 OFFCURVE",
"220 544 QCURVE",
"219 544 LINE",
"219 544 OFFCURVE",
"219 544 QCURVE",
"219 544 OFFCURVE",
"219 544 QCURVE",
"218 544 LINE",
"218 544 OFFCURVE",
"218 544 QCURVE",
"218 544 OFFCURVE",
"218 544 QCURVE",
"218 544 OFFCURVE",
"218 544 QCURVE",
"218 544 OFFCURVE",
"218 544 QCURVE",
"217 544 LINE",
"217 544 OFFCURVE",
"217 544 QCURVE",
"217 544 OFFCURVE",
"217 544 QCURVE",
"199 544 LINE SMOOTH",
"182 544 OFFCURVE",
"158 541 OFFCURVE",
"142 530 OFFCURVE",
"135 507 OFFCURVE",
"135 485 QCURVE SMOOTH",
"135 165 LINE SMOOTH",
"135 144 OFFCURVE",
"143 121 OFFCURVE",
"161 110 OFFCURVE",
"189 107 OFFCURVE",
"208 106 QCURVE",
"208 106 OFFCURVE",
"208 106 QCURVE",
"208 106 OFFCURVE",
"208 106 QCURVE",
"208 106 OFFCURVE",
"208 106 QCURVE",
"208 106 OFFCURVE",
"208 106 QCURVE",
"209 106 LINE",
"209 106 OFFCURVE",
"209 106 QCURVE",
"209 106 OFFCURVE",
"209 106 QCURVE",
"209 106 OFFCURVE",
"209 106 QCURVE",
"209 106 OFFCURVE",
"209 106 QCURVE",
"210 106 LINE",
"210 106 OFFCURVE",
"210 106 QCURVE",
"210 106 OFFCURVE",
"210 106 QCURVE",
"210 106 OFFCURVE",
"210 106 QCURVE",
"210 106 OFFCURVE",
"210 106 QCURVE",
"211 106 LINE",
"211 106 OFFCURVE",
"211 106 QCURVE",
"211 106 OFFCURVE",
"211 106 QCURVE",
"213 106 LINE",
"228 106 OFFCURVE",
"248 117 OFFCURVE",
"259 141 OFFCURVE",
"262 177 OFFCURVE",
"262 200 QCURVE SMOOTH",
"262 256 LINE",
"170 256 LINE",
"170 362 LINE",
"374 362 LINE",
"374 245 LINE SMOOTH",
"374 187 OFFCURVE",
"365 96 OFFCURVE",
"331 33 OFFCURVE",
"260 0 OFFCURVE",
"199 0 QCURVE SMOOTH",
"149 0 OFFCURVE",
"82 18 OFFCURVE",
"42 58 OFFCURVE",
"24 121 OFFCURVE",
"24 165 QCURVE SMOOTH",
"24 485 LINE SMOOTH",
"24 529 OFFCURVE",
"42 591 OFFCURVE",
"82 631 OFFCURVE",
"149 649 OFFCURVE",
"199 649 QCURVE SMOOTH",
"248 649 OFFCURVE",
"315 630 OFFCURVE",
"356 589 OFFCURVE",
"374 525 OFFCURVE",
"374 480 QCURVE"
);
}
);
width = 402;
}
);
unicode = 0067;
},
{
glyphname = h;
layers = (
{
layerId = "B61A831B-AFE2-4931-A0BA-7BE9EE52F2B7";
paths = (
{
nodes = (
"377 0 LINE",
"267 0 LINE",
"267 287 LINE",
"140 287 LINE",
"140 0 LINE",
"28 0 LINE",
"28 649 LINE",
"140 649 LINE",
"140 394 LINE",
"267 394 LINE",
"267 649 LINE",
"377 649 LINE"
);
}
);
width = 413;
}
);
unicode = 0068;
},
{
glyphname = i;
layers = (
{
layerId = "B61A831B-AFE2-4931-A0BA-7BE9EE52F2B7";
paths = (
{
nodes = (
"28 647 LINE",
"141 647 LINE",
"141 0 LINE",
"28 0 LINE"
);
}
);
width = 169;
}
);
unicode = 0069;
},
{
glyphname = j;
layers = (
{
layerId = "B61A831B-AFE2-4931-A0BA-7BE9EE52F2B7";
paths = (
{
nodes = (
"17 106 LINE",
"50 106 OFFCURVE",
"90 109 OFFCURVE",
"112 124 OFFCURVE",
"119 154 OFFCURVE",
"119 181 QCURVE SMOOTH",
"119 648 LINE",
"231 648 LINE",
"231 172 LINE SMOOTH",
"231 118 OFFCURVE",
"206 51 OFFCURVE",
"153 13 OFFCURVE",
"72 0 OFFCURVE",
"17 0 QCURVE"
);
}
);
width = 268;
}
);
unicode = 006A;
},
{
glyphname = k;
layers = (
{
layerId = "B61A831B-AFE2-4931-A0BA-7BE9EE52F2B7";
paths = (
{
nodes = (
"382 649 LINE",
"375 605 OFFCURVE",
"353 515 OFFCURVE",
"316 431 OFFCURVE",
"263 355 OFFCURVE",
"226 325 QCURVE",
"263 294 OFFCURVE",
"316 219 OFFCURVE",
"352 135 OFFCURVE",
"375 45 OFFCURVE",
"382 0 QCURVE",
"271 0 LINE",
"265 33 OFFCURVE",
"245 105 OFFCURVE",
"215 172 OFFCURVE",
"173 231 OFFCURVE",
"143 252 QCURVE",
"143 0 LINE",
"31 0 LINE",
"31 649 LINE",
"143 649 LINE",
"143 398 LINE",
"173 419 OFFCURVE",
"216 477 OFFCURVE",
"246 545 OFFCURVE",
"265 616 OFFCURVE",
"271 649 QCURVE"
);
}
);
width = 403;
}
);
unicode = 006B;
},
{
glyphname = l;
layers = (
{
layerId = "B61A831B-AFE2-4931-A0BA-7BE9EE52F2B7";
paths = (
{
nodes = (
"307 0 LINE",
"32 0 LINE",
"32 649 LINE",
"145 649 LINE",
"145 106 LINE",
"307 106 LINE"
);
}
);
width = 317;
}
);
unicode = 006C;
},
{
glyphname = m;
layers = (
{
layerId = "B61A831B-AFE2-4931-A0BA-7BE9EE52F2B7";
paths = (
{
nodes = (
"519 0 LINE",
"407 0 LINE",
"407 363 LINE",
"314 147 LINE",
"235 147 LINE",
"143 363 LINE",
"143 0 LINE",
"31 0 LINE",
"31 653 LINE",
"142 653 LINE",
"274 340 LINE",
"408 653 LINE",
"519 653 LINE"
);
}
);
width = 549;
}
);
unicode = 006D;
},
{
glyphname = n;
layers = (
{
layerId = "B61A831B-AFE2-4931-A0BA-7BE9EE52F2B7";
paths = (
{
nodes = (
"413 0 LINE",
"301 0 LINE",
"140 368 LINE",
"140 0 LINE",
"29 0 LINE",
"29 649 LINE",
"139 649 LINE",
"300 281 LINE",
"300 649 LINE",
"413 649 LINE"
);
}
);
width = 446;
}
);
unicode = 006E;
},
{
glyphname = o;
layers = (
{
layerId = "B61A831B-AFE2-4931-A0BA-7BE9EE52F2B7";
paths = (
{
nodes = (
"374 197 LINE SMOOTH",
"374 148 OFFCURVE",
"364 74 OFFCURVE",
"328 25 OFFCURVE",
"259 0 OFFCURVE",
"199 0 QCURVE SMOOTH",
"151 0 OFFCURVE",
"85 18 OFFCURVE",
"43 57 OFFCURVE",
"25 120 OFFCURVE",
"25 165 QCURVE SMOOTH",
"25 484 LINE SMOOTH",
"25 529 OFFCURVE",
"43 592 OFFCURVE",
"85 631 OFFCURVE",
"151 649 OFFCURVE",
"199 649 QCURVE SMOOTH",
"247 649 OFFCURVE",
"314 631 OFFCURVE",
"355 592 OFFCURVE",
"374 529 OFFCURVE",
"374 484 QCURVE SMOOTH"
);
},
{
nodes = (
"137 192 LINE",
"137 167 OFFCURVE",
"141 134 OFFCURVE",
"154 115 OFFCURVE",
"179 108 OFFCURVE",
"201 108 QCURVE SMOOTH",
"223 108 OFFCURVE",
"248 119 OFFCURVE",
"260 142 OFFCURVE",
"262 175 OFFCURVE",
"262 197 QCURVE SMOOTH",
"262 484 LINE SMOOTH",
"262 505 OFFCURVE",
"259 529 OFFCURVE",
"247 541 OFFCURVE",
"221 543 OFFCURVE",
"199 543 QCURVE SMOOTH",
"176 543 OFFCURVE",
"150 538 OFFCURVE",
"138 525 OFFCURVE",
"135 502 OFFCURVE",
"135 484 QCURVE"
);
}
);
width = 402;
}
);
unicode = 006F;
},
{
glyphname = p;
layers = (
{
layerId = "B61A831B-AFE2-4931-A0BA-7BE9EE52F2B7";
paths = (
{
nodes = (
"140 0 LINE",
"27 0 LINE",
"27 648 LINE",
"203 648 LINE SMOOTH",
"263 648 OFFCURVE",
"334 621 OFFCURVE",
"371 573 OFFCURVE",
"382 508 OFFCURVE",
"382 470 QCURVE SMOOTH",
"382 459 OFFCURVE",
"381 437 OFFCURVE",
"381 426 QCURVE SMOOTH",
"381 417 OFFCURVE",
"380 398 OFFCURVE",
"380 388 QCURVE SMOOTH",
"380 327 OFFCURVE",
"346 260 OFFCURVE",
"285 229 OFFCURVE",
"196 224 OFFCURVE",
"140 224 QCURVE"
);
},
{
nodes = (
"140 329 LINE",
"190 329 OFFCURVE",
"243 331 OFFCURVE",
"267 347 OFFCURVE",
"269 375 OFFCURVE",
"269 391 QCURVE",
"269 391 OFFCURVE",
"269 391 QCURVE",
"269 391 OFFCURVE",
"269 391 QCURVE",
"269 391 OFFCURVE",
"269 391 QCURVE",
"269 391 OFFCURVE",
"269 391 QCURVE",
"269 391 OFFCURVE",
"269 391 QCURVE",
"269 391 OFFCURVE",
"269 391 QCURVE",
"269 391 OFFCURVE",
"269 391 QCURVE",
"269 393 LINE",
"269 393 OFFCURVE",
"269 393 QCURVE",
"269 393 OFFCURVE",
"269 393 QCURVE",
"269 393 OFFCURVE",
"269 393 QCURVE",
"269 393 OFFCURVE",
"269 393 QCURVE",
"269 393 OFFCURVE",
"269 393 QCURVE",
"269 393 OFFCURVE",
"269 393 QCURVE",
"269 393 OFFCURVE",
"269 393 QCURVE",
"269 394 LINE",
"269 394 OFFCURVE",
"269 394 QCURVE",
"269 394 OFFCURVE",
"269 394 QCURVE",
"269 394 OFFCURVE",
"269 394 QCURVE",
"269 394 OFFCURVE",
"269 394 QCURVE",
"269 394 OFFCURVE",
"269 394 QCURVE",
"269 394 OFFCURVE",
"269 394 QCURVE",
"269 394 OFFCURVE",
"269 394 QCURVE",
"269 395 LINE",
"269 395 OFFCURVE",
"269 395 QCURVE",
"269 395 OFFCURVE",
"269 395 QCURVE",
"269 395 OFFCURVE",
"269 395 QCURVE",
"269 395 OFFCURVE",
"269 395 QCURVE",
"269 395 OFFCURVE",
"269 396 QCURVE",
"269 396 OFFCURVE",
"269 396 QCURVE",
"269 396 OFFCURVE",
"269 396 QCURVE",
"269 399 LINE",
"269 399 OFFCURVE",
"269 399 QCURVE",
"269 399 OFFCURVE",
"269 399 QCURVE",
"269 399 OFFCURVE",
"269 399 QCURVE",
"269 399 OFFCURVE",
"269 399 QCURVE",
"269 399 OFFCURVE",
"269 400 QCURVE",
"269 400 OFFCURVE",
"269 400 QCURVE",
"269 400 OFFCURVE",
"269 400 QCURVE",
"269 401 LINE",
"269 401 OFFCURVE",
"269 401 QCURVE",
"269 401 OFFCURVE",
"269 401 QCURVE",
"269 401 OFFCURVE",
"269 401 QCURVE",
"269 401 OFFCURVE",
"269 401 QCURVE",
"269 401 OFFCURVE",
"269 401 QCURVE",
"269 401 OFFCURVE",
"269 401 QCURVE",
"269 401 OFFCURVE",
"269 401 QCURVE",
"269 475 LINE",
"269 475 OFFCURVE",
"269 475 QCURVE",
"269 475 OFFCURVE",
"269 475 QCURVE",
"269 475 OFFCURVE",
"269 475 QCURVE",
"269 475 OFFCURVE",
"269 475 QCURVE",
"269 475 OFFCURVE",
"269 475 QCURVE",
"269 475 OFFCURVE",
"269 475 QCURVE",
"269 475 OFFCURVE",
"269 475 QCURVE",
"269 475 OFFCURVE",
"269 476 QCURVE",
"269 476 OFFCURVE",
"269 476 QCURVE",
"269 476 OFFCURVE",
"269 476 QCURVE",
"269 476 OFFCURVE",
"269 476 QCURVE",
"269 476 OFFCURVE",
"269 476 QCURVE",
"269 476 OFFCURVE",
"269 476 QCURVE",
"269 476 OFFCURVE",
"269 476 QCURVE",
"269 476 OFFCURVE",
"269 476 QCURVE",
"269 476 OFFCURVE",
"269 476 QCURVE",
"269 476 OFFCURVE",
"269 476 QCURVE",
"269 476 OFFCURVE",
"269 476 QCURVE",
"269 476 OFFCURVE",
"269 476 QCURVE",
"269 477 LINE",
"269 477 OFFCURVE",
"269 477 QCURVE",
"269 477 OFFCURVE",
"269 477 QCURVE",
"269 477 OFFCURVE",
"269 477 QCURVE",
"269 477 OFFCURVE",
"269 477 QCURVE",
"269 477 OFFCURVE",
"269 477 QCURVE",
"269 477 OFFCURVE",
"269 477 QCURVE",
"269 477 OFFCURVE",
"269 477 QCURVE",
"269 477 OFFCURVE",
"269 477 QCURVE",
"269 477 OFFCURVE",
"269 477 QCURVE",
"269 478 LINE",
"269 478 OFFCURVE",
"269 478 QCURVE",
"269 478 OFFCURVE",
"269 478 QCURVE",
"269 481 LINE SMOOTH",
"269 503 OFFCURVE",
"253 530 OFFCURVE",
"224 542 OFFCURVE",
"187 543 OFFCURVE",
"168 543 QCURVE SMOOTH",
"140 543 LINE"
);
},
{
nodes = (
"269 397 OFFCURVE",
"269 397 QCURVE",
"269 397 OFFCURVE",
"269 397 QCURVE"
);
}
);
width = 405;
}
);
unicode = 0070;
},
{
glyphname = q;
layers = (
{
layerId = "B61A831B-AFE2-4931-A0BA-7BE9EE52F2B7";
paths = (
{
nodes = (
"378 181 LINE SMOOTH",
"378 146 OFFCURVE",
"371 74 OFFCURVE",
"346 45 QCURVE",
"351 40 OFFCURVE",
"362 24 OFFCURVE",
"367 17 QCURVE SMOOTH",
"382 -4 LINE",
"362 -18 OFFCURVE",
"311 -51 OFFCURVE",
"289 -65 QCURVE",
"240 2 LINE",
"229 1 OFFCURVE",
"205 0 OFFCURVE",
"195 0 QCURVE SMOOTH",
"111 0 OFFCURVE",
"28 72 OFFCURVE",
"28 165 QCURVE SMOOTH",
"28 484 LINE SMOOTH",
"28 528 OFFCURVE",
"46 590 OFFCURVE",
"86 630 OFFCURVE",
"153 649 OFFCURVE",
"203 649 QCURVE SMOOTH",
"252 649 OFFCURVE",
"320 630 OFFCURVE",
"360 590 OFFCURVE",
"378 528 OFFCURVE",
"378 484 QCURVE SMOOTH"
);
},
{
nodes = (
"233 108 OFFCURVE",
"254 120 OFFCURVE",
"264 140 OFFCURVE",
"266 169 OFFCURVE",
"266 188 QCURVE SMOOTH",
"266 505 LINE SMOOTH",
"266 525 OFFCURVE",
"224 546 OFFCURVE",
"200 546 QCURVE SMOOTH",
"177 546 OFFCURVE",
"140 526 OFFCURVE",
"140 505 QCURVE SMOOTH",
"140 163 LINE SMOOTH",
"140 153 OFFCURVE",
"142 133 OFFCURVE",
"155 116 OFFCURVE",
"185 107 OFFCURVE",
"213 107 QCURVE"
);
}
);
width = 410;
}
);
unicode = 0071;
},
{
glyphname = r;
layers = (
{
layerId = "B61A831B-AFE2-4931-A0BA-7BE9EE52F2B7";
paths = (
{
nodes = (
"264 0 LINE",
"176 224 LINE",
"143 224 LINE",
"143 0 LINE",
"31 0 LINE",
"31 649 LINE",
"207 649 LINE SMOOTH",
"256 649 OFFCURVE",
"324 630 OFFCURVE",
"364 590 OFFCURVE",
"382 528 OFFCURVE",
"383 434 OFFCURVE",
"383 417 QCURVE SMOOTH",
"383 374 OFFCURVE",
"379 327 OFFCURVE",
"361 280 OFFCURVE",
"324 244 OFFCURVE",
"292 235 QCURVE",
"384 0 LINE"
);
},
{
nodes = (
"143 329 LINE",
"192 329 OFFCURVE",
"245 335 OFFCURVE",
"269 353 OFFCURVE",
"272 383 OFFCURVE",
"272 421 QCURVE SMOOTH",
"272 434 OFFCURVE",
"271 511 OFFCURVE",
"240 544 OFFCURVE",
"207 544 QCURVE SMOOTH",
"143 544 LINE"
);
}
);
width = 410;
}
);
unicode = 0072;
},
{
glyphname = s;
layers = (
{
layerId = "B61A831B-AFE2-4931-A0BA-7BE9EE52F2B7";
paths = (
{
nodes = (
"136 202 LINE",
"136 193 OFFCURVE",
"135 173 OFFCURVE",
"135 165 QCURVE",
"135 163 LINE",
"135 163 OFFCURVE",
"135 163 QCURVE",
"135 163 OFFCURVE",
"135 163 QCURVE",
"135 163 OFFCURVE",
"135 162 QCURVE",
"135 162 OFFCURVE",
"135 162 QCURVE",
"135 162 OFFCURVE",
"135 162 QCURVE",
"135 158 LINE",
"135 158 OFFCURVE",
"135 158 QCURVE",
"135 158 OFFCURVE",
"135 158 QCURVE",
"135 158 OFFCURVE",
"135 158 QCURVE",
"135 158 OFFCURVE",
"135 158 QCURVE",
"135 158 OFFCURVE",
"135 158 QCURVE",
"135 149 LINE SMOOTH",
"135 141 OFFCURVE",
"136 123 OFFCURVE",
"150 109 OFFCURVE",
"176 106 OFFCURVE",
"192 106 QCURVE",
"192 106 OFFCURVE",
"192 106 QCURVE",
"192 106 OFFCURVE",
"193 106 QCURVE",
"193 106 OFFCURVE",
"193 106 QCURVE",
"193 106 OFFCURVE",
"193 106 QCURVE",
"195 106 LINE",
"195 106 OFFCURVE",
"195 106 QCURVE",
"195 106 OFFCURVE",
"196 106 QCURVE",
"196 106 OFFCURVE",
"196 106 QCURVE",
"196 106 OFFCURVE",
"196 106 QCURVE",
"198 106 LINE",
"198 106 OFFCURVE",
"198 106 QCURVE",
"198 106 OFFCURVE",
"198 106 QCURVE",
"198 106 OFFCURVE",
"198 106 QCURVE",
"198 106 OFFCURVE",
"198 106 QCURVE",
"200 106 LINE",
"200 106 OFFCURVE",
"200 106 QCURVE",
"200 106 OFFCURVE",
"201 106 QCURVE",
"201 106 OFFCURVE",
"201 106 QCURVE",
"201 106 OFFCURVE",
"201 106 QCURVE",
"209 106 LINE",
"229 107 OFFCURVE",
"251 110 OFFCURVE",
"261 120 OFFCURVE",
"263 139 OFFCURVE",
"263 154 QCURVE SMOOTH",
"263 165 LINE SMOOTH",
"263 172 OFFCURVE",
"264 184 OFFCURVE",
"264 192 QCURVE",
"265 205 OFFCURVE",
"265 218 QCURVE SMOOTH",
"265 225 OFFCURVE",
"264 253 OFFCURVE",
"260 273 QCURVE",
"258 278 OFFCURVE",
"246 283 OFFCURVE",
"229 286 OFFCURVE",
"211 287 OFFCURVE",
"204 287 QCURVE SMOOTH",
"200 287 LINE SMOOTH",
"138 287 OFFCURVE",
"68 313 OFFCURVE",
"34 363 OFFCURVE",
"25 437 OFFCURVE",
"25 484 QCURVE SMOOTH",
"25 528 OFFCURVE",
"43 590 OFFCURVE",
"83 630 OFFCURVE",
"150 648 OFFCURVE",
"200 648 QCURVE SMOOTH",
"249 648 OFFCURVE",
"316 629 OFFCURVE",
"357 588 OFFCURVE",
"375 524 OFFCURVE",
"375 479 QCURVE",
"263 479 LINE",
"263 501 OFFCURVE",
"261 527 OFFCURVE",
"250 540 OFFCURVE",
"224 543 OFFCURVE",
"200 543 QCURVE SMOOTH",
"176 543 OFFCURVE",
"151 540 OFFCURVE",
"139 529 OFFCURVE",
"136 505 OFFCURVE",
"136 484 QCURVE SMOOTH",
"136 468 LINE",
"135 457 OFFCURVE",
"135 445 QCURVE SMOOTH",
"135 440 OFFCURVE",
"136 417 OFFCURVE",
"141 403 QCURVE SMOOTH",
"142 400 OFFCURVE",
"158 396 OFFCURVE",
"178 394 OFFCURVE",
"196 393 OFFCURVE",
"200 393 QCURVE SMOOTH",
"266 393 OFFCURVE",
"337 362 OFFCURVE",
"370 308 OFFCURVE",
"375 232 OFFCURVE",
"375 187 QCURVE SMOOTH",
"375 165 LINE SMOOTH",
"375 121 OFFCURVE",
"357 58 OFFCURVE",
"317 18 OFFCURVE",
"249 0 OFFCURVE",
"200 0 QCURVE SMOOTH",
"138 0 OFFCURVE",
"68 27 OFFCURVE",
"34 78 OFFCURVE",
"25 154 OFFCURVE",
"25 202 QCURVE"
);
}
);
width = 402;
}
);
unicode = 0073;
},
{
glyphname = t;
layers = (
{
layerId = "B61A831B-AFE2-4931-A0BA-7BE9EE52F2B7";
paths = (
{
nodes = (
"306 544 LINE",
"202 544 LINE",
"202 0 LINE",
"91 0 LINE",
"91 544 LINE",
"-13 544 LINE",
"-13 649 LINE",
"306 649 LINE"
);
}
);
width = 297;
}
);
unicode = 0074;
},
{
glyphname = u;
layers = (
{
layerId = "B61A831B-AFE2-4931-A0BA-7BE9EE52F2B7";
paths = (
{
nodes = (
"137 648 LINE",
"140 165 LINE",
"140 160 LINE SMOOTH",
"140 152 OFFCURVE",
"141 132 OFFCURVE",
"144 125 QCURVE",
"143 125 LINE",
"148 117 OFFCURVE",
"182 107 OFFCURVE",
"202 107 QCURVE SMOOTH",
"223 107 OFFCURVE",
"260 120 OFFCURVE",
"262 131 QCURVE",
"264 625 OFFCURVE",
"264 648 QCURVE",
"375 648 LINE",
"375 197 LINE SMOOTH",
"375 150 OFFCURVE",
"366 76 OFFCURVE",
"332 26 OFFCURVE",
"261 0 OFFCURVE",
"200 0 QCURVE SMOOTH",
"150 0 OFFCURVE",
"83 18 OFFCURVE",
"43 58 OFFCURVE",
"25 121 OFFCURVE",
"25 165 QCURVE SMOOTH",
"25 648 LINE"
);
}
);
width = 401;
}
);
unicode = 0075;
},
{
glyphname = v;
layers = (
{
layerId = "B61A831B-AFE2-4931-A0BA-7BE9EE52F2B7";
paths = (
{
nodes = (
"363 504 LINE SMOOTH",
"363 437 OFFCURVE",
"355 308 OFFCURVE",
"326 183 OFFCURVE",
"271 60 OFFCURVE",
"223 0 QCURVE",
"152 0 LINE",
"104 60 OFFCURVE",
"49 183 OFFCURVE",
"21 308 OFFCURVE",
"13 437 OFFCURVE",
"13 504 QCURVE SMOOTH",
"13 648 LINE",
"124 648 LINE",
"124 631 OFFCURVE",
"123 590 OFFCURVE",
"123 573 QCURVE SMOOTH",
"123 555 OFFCURVE",
"122 519 OFFCURVE",
"122 501 QCURVE SMOOTH",
"122 454 OFFCURVE",
"126 362 OFFCURVE",
"140 272 OFFCURVE",
"166 186 OFFCURVE",
"188 145 QCURVE",
"230 232 OFFCURVE",
"253 410 OFFCURVE",
"253 503 QCURVE SMOOTH",
"253 520 OFFCURVE",
"252 555 OFFCURVE",
"252 572 QCURVE SMOOTH",
"252 589 OFFCURVE",
"251 630 OFFCURVE",
"251 648 QCURVE",
"363 648 LINE"
);
}
);
width = 383;
}
);
unicode = 0076;
},
{
glyphname = w;
layers = (
{
layerId = "B61A831B-AFE2-4931-A0BA-7BE9EE52F2B7";
paths = (
{
nodes = (
"606 510 LINE SMOOTH",
"606 442 OFFCURVE",
"598 312 OFFCURVE",
"570 186 OFFCURVE",
"515 62 OFFCURVE",
"468 0 QCURVE",
"394 0 LINE",
"370 33 OFFCURVE",
"328 104 OFFCURVE",
"312 140 QCURVE",
"297 105 OFFCURVE",
"256 34 OFFCURVE",
"230 0 QCURVE",
"158 0 LINE",
"111 61 OFFCURVE",
"55 184 OFFCURVE",
"27 310 OFFCURVE",
"19 439 OFFCURVE",
"19 507 QCURVE SMOOTH",
"19 649 LINE",
"131 649 LINE",
"131 630 OFFCURVE",
"130 588 OFFCURVE",
"130 570 QCURVE SMOOTH",
"130 552 OFFCURVE",
"129 518 OFFCURVE",
"129 501 QCURVE SMOOTH",
"129 454 OFFCURVE",
"133 365 OFFCURVE",
"146 278 OFFCURVE",
"171 191 OFFCURVE",
"193 146 QCURVE",
"215 188 OFFCURVE",
"240 274 OFFCURVE",
"254 362 OFFCURVE",
"258 453 OFFCURVE",
"258 499 QCURVE SMOOTH",
"258 518 OFFCURVE",
"257 554 OFFCURVE",
"257 572 QCURVE SMOOTH",
"257 590 OFFCURVE",
"256 631 OFFCURVE",
"256 649 QCURVE",
"368 649 LINE",
"368 631 OFFCURVE",
"367 592 OFFCURVE",
"367 575 QCURVE SMOOTH",
"367 558 OFFCURVE",
"366 524 OFFCURVE",
"366 507 QCURVE SMOOTH",
"366 460 OFFCURVE",
"371 368 OFFCURVE",
"385 276 OFFCURVE",
"411 187 OFFCURVE",
"432 145 QCURVE",
"473 227 OFFCURVE",
"496 407 OFFCURVE",
"496 499 QCURVE SMOOTH",
"496 518 OFFCURVE",
"495 554 OFFCURVE",
"495 572 QCURVE SMOOTH",
"495 590 OFFCURVE",
"494 631 OFFCURVE",
"494 649 QCURVE",
"606 649 LINE"
);
}
);
width = 630;
}
);
unicode = 0077;
},
{
glyphname = x;
layers = (
{
layerId = "B61A831B-AFE2-4931-A0BA-7BE9EE52F2B7";
paths = (
{
nodes = (
"262 0 LINE",
"262 12 OFFCURVE",
"263 38 OFFCURVE",
"263 49 QCURVE SMOOTH",
"263 59 OFFCURVE",
"264 77 OFFCURVE",
"264 85 QCURVE SMOOTH",
"264 109 OFFCURVE",
"260 151 OFFCURVE",
"246 192 OFFCURVE",
"220 231 OFFCURVE",
"198 251 QCURVE",
"177 232 OFFCURVE",
"151 194 OFFCURVE",
"137 154 OFFCURVE",
"133 111 OFFCURVE",
"133 88 QCURVE SMOOTH",
"133 78 OFFCURVE",
"134 60 OFFCURVE",
"134 50 QCURVE SMOOTH",
"134 39 OFFCURVE",
"135 12 OFFCURVE",
"135 0 QCURVE",
"24 0 LINE",
"24 75 LINE SMOOTH",
"24 111 OFFCURVE",
"29 175 OFFCURVE",
"47 235 OFFCURVE",
"84 294 OFFCURVE",
"117 325 QCURVE",
"84 355 OFFCURVE",
"47 414 OFFCURVE",
"29 475 OFFCURVE",
"24 539 OFFCURVE",
"24 575 QCURVE SMOOTH",
"24 649 LINE",
"135 649 LINE",
"135 638 OFFCURVE",
"134 611 OFFCURVE",
"134 600 QCURVE SMOOTH",
"134 590 OFFCURVE",
"133 572 OFFCURVE",
"133 562 QCURVE SMOOTH",
"133 539 OFFCURVE",
"137 495 OFFCURVE",
"151 455 OFFCURVE",
"177 416 OFFCURVE",
"198 398 QCURVE",
"220 417 OFFCURVE",
"246 456 OFFCURVE",
"260 498 OFFCURVE",
"264 542 OFFCURVE",
"264 566 QCURVE SMOOTH",
"264 574 OFFCURVE",
"263 592 OFFCURVE",
"263 602 QCURVE SMOOTH",
"263 613 OFFCURVE",
"262 638 OFFCURVE",
"262 649 QCURVE",
"374 649 LINE",
"374 575 LINE SMOOTH",
"374 539 OFFCURVE",
"369 475 OFFCURVE",
"350 414 OFFCURVE",
"313 355 OFFCURVE",
"280 325 QCURVE",
"313 294 OFFCURVE",
"350 235 OFFCURVE",
"369 175 OFFCURVE",
"374 111 OFFCURVE",
"374 75 QCURVE SMOOTH",
"374 0 LINE"
);
}
);
width = 400;
}
);
unicode = 0078;
},
{
glyphname = y;
layers = (
{
layerId = "B61A831B-AFE2-4931-A0BA-7BE9EE52F2B7";
paths = (
{
nodes = (
"367 573 LINE SMOOTH",
"367 528 OFFCURVE",
"360 448 OFFCURVE",
"336 374 OFFCURVE",
"288 304 OFFCURVE",
"247 268 QCURVE",
"247 0 LINE",
"135 0 LINE",
"135 268 LINE",
"93 304 OFFCURVE",
"46 374 OFFCURVE",
"23 448 OFFCURVE",
"17 528 OFFCURVE",
"17 573 QCURVE SMOOTH",
"17 649 LINE",
"128 649 LINE",
"128 636 OFFCURVE",
"127 607 OFFCURVE",
"127 595 QCURVE SMOOTH",
"127 584 OFFCURVE",
"126 564 OFFCURVE",
"126 553 QCURVE SMOOTH",
"126 528 OFFCURVE",
"131 479 OFFCURVE",
"145 432 OFFCURVE",
"170 386 OFFCURVE",
"190 364 QCURVE",
"233 409 OFFCURVE",
"257 506 OFFCURVE",
"257 560 QCURVE SMOOTH",
"257 570 OFFCURVE",
"256 589 OFFCURVE",
"256 600 QCURVE SMOOTH",
"256 611 OFFCURVE",
"255 638 OFFCURVE",
"255 649 QCURVE",
"367 649 LINE"
);
}
);
width = 388;
}
);
unicode = 0079;
},
{
glyphname = z;
layers = (
{
layerId = "B61A831B-AFE2-4931-A0BA-7BE9EE52F2B7";
paths = (
{
nodes = (
"338 0 LINE",
"22 0 LINE",
"22 107 LINE",
"216 544 LINE",
"22 544 LINE",
"22 649 LINE",
"338 649 LINE",
"337 542 LINE",
"145 106 LINE",
"338 106 LINE"
);
}
);
width = 366;
}
);
unicode = 007A;
},
{
glyphname = braceleft;
layers = (
{
layerId = "B61A831B-AFE2-4931-A0BA-7BE9EE52F2B7";
paths = (
{
nodes = (
"206 442 LINE",
"200 391 OFFCURVE",
"163 325 OFFCURVE",
"152 311 QCURVE",
"158 303 OFFCURVE",
"175 278 OFFCURVE",
"192 242 OFFCURVE",
"204 196 OFFCURVE",
"206 168 QCURVE",
"206 30 LINE SMOOTH",
"206 3 OFFCURVE",
"213 -27 OFFCURVE",
"235 -42 OFFCURVE",
"275 -45 OFFCURVE",
"308 -45 QCURVE",
"308 -151 LINE",
"252 -151 OFFCURVE",
"172 -138 OFFCURVE",
"119 -100 OFFCURVE",
"94 -33 OFFCURVE",
"94 21 QCURVE SMOOTH",
"94 148 LINE",
"92 176 OFFCURVE",
"84 201 QCURVE",
"76 222 OFFCURVE",
"47 262 OFFCURVE",
"20 270 QCURVE",
"20 352 LINE",
"47 360 OFFCURVE",
"76 401 OFFCURVE",
"84 422 QCURVE",
"92 447 OFFCURVE",
"94 476 QCURVE",
"94 621 LINE SMOOTH",
"94 675 OFFCURVE",
"119 742 OFFCURVE",
"172 780 OFFCURVE",
"252 793 OFFCURVE",
"308 793 QCURVE",
"308 687 LINE",
"275 687 OFFCURVE",
"235 684 OFFCURVE",
"213 669 OFFCURVE",
"206 639 OFFCURVE",
"206 612 QCURVE SMOOTH"
);
}
);
width = 251;
}
);
unicode = 007B;
},
{
glyphname = bar;
layers = (
{
layerId = "B61A831B-AFE2-4931-A0BA-7BE9EE52F2B7";
paths = (
{
nodes = (
"28 755 LINE",
"117 755 LINE",
"117 -105 LINE",
"28 -105 LINE"
);
}
);
width = 149;
}
);
unicode = 007C;
},
{
glyphname = braceright;
layers = (
{
layerId = "B61A831B-AFE2-4931-A0BA-7BE9EE52F2B7";
paths = (
{
nodes = (
"94 331 OFFCURVE",
"57 397 OFFCURVE",
"51 448 QCURVE",
"51 618 LINE SMOOTH",
"51 645 OFFCURVE",
"44 675 OFFCURVE",
"22 690 OFFCURVE",
"-18 693 OFFCURVE",
"-51 693 QCURVE",
"-51 799 LINE",
"4 799 OFFCURVE",
"85 786 OFFCURVE",
"138 748 OFFCURVE",
"163 681 OFFCURVE",
"163 627 QCURVE SMOOTH",
"163 482 LINE",
"164 453 OFFCURVE",
"173 428 QCURVE SMOOTH",
"180 407 OFFCURVE",
"210 366 OFFCURVE",
"237 358 QCURVE",
"237 276 LINE",
"210 268 OFFCURVE",
"180 228 OFFCURVE",
"173 207 QCURVE SMOOTH",
"164 182 OFFCURVE",
"163 154 QCURVE",
"163 27 LINE SMOOTH",
"163 -27 OFFCURVE",
"138 -94 OFFCURVE",
"85 -132 OFFCURVE",
"4 -145 OFFCURVE",
"-51 -145 QCURVE",
"-51 -39 LINE",
"-18 -39 OFFCURVE",
"22 -36 OFFCURVE",
"44 -21 OFFCURVE",
"51 9 OFFCURVE",
"51 36 QCURVE SMOOTH",
"51 174 LINE",
"52 202 OFFCURVE",
"65 248 OFFCURVE",
"82 284 OFFCURVE",
"99 309 OFFCURVE",
"105 317 QCURVE"
);
}
);
width = 259;
}
);
unicode = 007D;
},
{
glyphname = asciitilde;
layers = (
{
layerId = "B61A831B-AFE2-4931-A0BA-7BE9EE52F2B7";
paths = (
{
nodes = (
"445 320 LINE",
"439 313 LINE",
"415 287 OFFCURVE",
"368 257 OFFCURVE",
"341 251 QCURVE",
"333 250 OFFCURVE",
"327 250 QCURVE",
"327 250 OFFCURVE",
"327 250 QCURVE",
"327 250 OFFCURVE",
"327 250 QCURVE",
"327 250 OFFCURVE",
"327 250 QCURVE",
"327 250 OFFCURVE",
"327 250 QCURVE",
"327 250 OFFCURVE",
"327 250 QCURVE",
"327 250 OFFCURVE",
"327 250 QCURVE",
"327 250 OFFCURVE",
"326 250 QCURVE",
"326 250 OFFCURVE",
"326 250 QCURVE",
"326 250 OFFCURVE",
"326 250 QCURVE",
"326 250 OFFCURVE",
"326 250 QCURVE",
"325 250 LINE",
"325 250 OFFCURVE",
"325 250 QCURVE",
"325 250 OFFCURVE",
"325 250 QCURVE",
"325 250 OFFCURVE",
"325 250 QCURVE",
"325 250 OFFCURVE",
"324 250 QCURVE",
"324 250 OFFCURVE",
"324 250 QCURVE",
"324 250 OFFCURVE",
"324 250 QCURVE",
"324 250 OFFCURVE",
"324 250 QCURVE",
"324 250 OFFCURVE",
"324 250 QCURVE",
"324 250 OFFCURVE",
"324 250 QCURVE",
"324 250 OFFCURVE",
"324 250 QCURVE",
"324 250 OFFCURVE",
"324 250 QCURVE",
"324 250 OFFCURVE",
"324 250 QCURVE",
"323 250 LINE",
"323 250 OFFCURVE",
"323 250 QCURVE",
"323 250 OFFCURVE",
"323 250 QCURVE",
"323 250 OFFCURVE",
"323 250 QCURVE",
"323 250 OFFCURVE",
"323 250 QCURVE",
"323 250 OFFCURVE",
"323 250 QCURVE",
"323 250 OFFCURVE",
"323 250 QCURVE",
"323 250 OFFCURVE",
"323 250 QCURVE",
"323 250 OFFCURVE",
"322 250 QCURVE",
"322 250 OFFCURVE",
"322 250 QCURVE",
"322 250 OFFCURVE",
"322 250 QCURVE",
"322 250 OFFCURVE",
"322 250 QCURVE",
"322 250 OFFCURVE",
"322 250 QCURVE",
"322 250 OFFCURVE",
"322 250 QCURVE",
"322 250 OFFCURVE",
"322 250 QCURVE",
"322 250 OFFCURVE",
"322 250 QCURVE",
"322 250 OFFCURVE",
"322 250 QCURVE",
"322 250 OFFCURVE",
"322 250 QCURVE",
"322 250 OFFCURVE",
"321 250 QCURVE",
"321 250 OFFCURVE",
"321 250 QCURVE",
"321 250 OFFCURVE",
"321 250 QCURVE",
"321 250 OFFCURVE",
"321 250 QCURVE",
"321 250 OFFCURVE",
"321 250 QCURVE",
"321 250 OFFCURVE",
"321 250 QCURVE",
"321 250 OFFCURVE",
"321 250 QCURVE",
"318 250 LINE",
"318 250 OFFCURVE",
"318 250 QCURVE",
"318 250 OFFCURVE",
"318 250 QCURVE",
"318 250 OFFCURVE",
"318 250 QCURVE",
"318 250 OFFCURVE",
"318 250 QCURVE",
"318 250 OFFCURVE",
"317 250 QCURVE",
"317 250 OFFCURVE",
"317 250 QCURVE",
"317 250 OFFCURVE",
"317 250 QCURVE",
"317 250 OFFCURVE",
"317 250 QCURVE",
"317 250 OFFCURVE",
"317 250 QCURVE",
"317 250 OFFCURVE",
"317 250 QCURVE",
"315 250 LINE",
"315 250 OFFCURVE",
"315 250 QCURVE",
"315 250 OFFCURVE",
"315 250 QCURVE",
"315 250 OFFCURVE",
"315 250 QCURVE",
"315 250 OFFCURVE",
"315 250 QCURVE",
"315 250 OFFCURVE",
"315 250 QCURVE",
"315 250 OFFCURVE",
"315 250 QCURVE",
"315 250 OFFCURVE",
"315 250 QCURVE",
"315 250 OFFCURVE",
"314 250 QCURVE",
"314 250 OFFCURVE",
"314 250 QCURVE",
"314 250 OFFCURVE",
"314 250 QCURVE",
"314 250 OFFCURVE",
"314 250 QCURVE",
"287 250 OFFCURVE",
"230 269 OFFCURVE",
"198 289 QCURVE",
"188 294 OFFCURVE",
"172 300 OFFCURVE",
"164 300 QCURVE SMOOTH",
"153 300 OFFCURVE",
"132 294 OFFCURVE",
"122 289 QCURVE",
"102 274 OFFCURVE",
"93 265 QCURVE SMOOTH",
"87 259 OFFCURVE",
"81 254 QCURVE",
"76 247 LINE",
"70 251 LINE",
"11 301 LINE",
"15 310 LINE",
"16 311 OFFCURVE",
"26 322 OFFCURVE",
"43 338 OFFCURVE",
"66 356 OFFCURVE",
"80 364 QCURVE SMOOTH",
"122 389 OFFCURVE",
"164 389 QCURVE SMOOTH",
"202 389 OFFCURVE",
"244 364 QCURVE",
"283 338 OFFCURVE",
"311 338 QCURVE SMOOTH",
"318 338 OFFCURVE",
"325 340 QCURVE",
"353 344 OFFCURVE",
"373 373 QCURVE SMOOTH",
"378 380 LINE"
);
}
);
width = 457;
}
);
unicode = 007E;
},
{
glyphname = exclamdown;
layers = (
{
layerId = "B61A831B-AFE2-4931-A0BA-7BE9EE52F2B7";
paths = (
{
nodes = (
"53 545 OFFCURVE",
"27 569 OFFCURVE",
"27 598 QCURVE SMOOTH",
"27 627 OFFCURVE",
"53 651 OFFCURVE",
"84 651 QCURVE SMOOTH",
"114 651 OFFCURVE",
"140 627 OFFCURVE",
"140 598 QCURVE SMOOTH",
"140 569 OFFCURVE",
"114 545 OFFCURVE",
"84 545 QCURVE SMOOTH"
);
},
{
nodes = (
"27 491 LINE",
"140 491 LINE",
"140 0 LINE",
"27 0 LINE"
);
}
);
width = 167;
}
);
unicode = 00A1;
},
{
glyphname = cent;
layers = (
{
layerId = "B61A831B-AFE2-4931-A0BA-7BE9EE52F2B7";
paths = (
{
nodes = (
"267 265 LINE",
"378 265 LINE",
"378 219 OFFCURVE",
"373 146 OFFCURVE",
"344 95 OFFCURVE",
"284 66 OFFCURVE",
"230 64 QCURVE",
"230 9 LINE",
"163 9 LINE",
"163 64 LINE",
"92 69 OFFCURVE",
"28 146 OFFCURVE",
"28 228 QCURVE SMOOTH",
"28 417 LINE SMOOTH",
"28 457 OFFCURVE",
"40 517 OFFCURVE",
"72 558 OFFCURVE",
"126 579 OFFCURVE",
"167 582 QCURVE",
"167 642 LINE",
"233 642 LINE",
"233 582 LINE",
"276 580 OFFCURVE",
"333 559 OFFCURVE",
"365 517 OFFCURVE",
"378 455 OFFCURVE",
"378 412 QCURVE",
"267 412 LINE",
"267 434 OFFCURVE",
"265 460 OFFCURVE",
"253 473 OFFCURVE",
"227 476 OFFCURVE",
"203 476 QCURVE SMOOTH",
"179 476 OFFCURVE",
"153 474 OFFCURVE",
"142 462 OFFCURVE",
"140 438 OFFCURVE",
"140 417 QCURVE SMOOTH",
"140 348 LINE",
"140 348 OFFCURVE",
"140 348 QCURVE",
"140 348 OFFCURVE",
"140 348 QCURVE",
"140 348 OFFCURVE",
"140 348 QCURVE",
"140 348 OFFCURVE",
"140 348 QCURVE",
"140 348 OFFCURVE",
"140 348 QCURVE",
"140 344 LINE",
"140 344 OFFCURVE",
"140 344 QCURVE",
"140 344 OFFCURVE",
"140 344 QCURVE",
"140 344 OFFCURVE",
"140 344 QCURVE",
"140 344 OFFCURVE",
"140 344 QCURVE",
"140 344 OFFCURVE",
"140 344 QCURVE",
"140 328 LINE",
"140 328 OFFCURVE",
"140 328 QCURVE",
"140 328 OFFCURVE",
"140 328 QCURVE",
"140 328 OFFCURVE",
"140 328 QCURVE",
"140 328 OFFCURVE",
"140 328 QCURVE",
"140 328 OFFCURVE",
"140 328 QCURVE",
"140 324 LINE",
"140 324 OFFCURVE",
"140 324 QCURVE",
"140 324 OFFCURVE",
"140 324 QCURVE",
"140 324 OFFCURVE",
"140 324 QCURVE",
"140 324 OFFCURVE",
"140 324 QCURVE",
"140 324 OFFCURVE",
"140 324 QCURVE",
"140 287 LINE SMOOTH",
"140 251 OFFCURVE",
"141 206 QCURVE",
"143 189 OFFCURVE",
"186 173 OFFCURVE",
"211 173 QCURVE SMOOTH",
"239 173 OFFCURVE",
"256 180 QCURVE",
"264 182 OFFCURVE",
"269 208 OFFCURVE",
"269 222 QCURVE SMOOTH",
"269 230 OFFCURVE",
"268 245 OFFCURVE",
"267 251 QCURVE"
);
}
);
width = 406;
}
);
unicode = 00A2;
},
{
glyphname = sterling;
layers = (
{
layerId = "B61A831B-AFE2-4931-A0BA-7BE9EE52F2B7";
paths = (
{
nodes = (
"374 106 LINE",
"374 96 OFFCURVE",
"373 78 OFFCURVE",
"373 67 QCURVE SMOOTH",
"373 51 OFFCURVE",
"374 16 OFFCURVE",
"375 0 QCURVE",
"23 0 LINE",
"23 107 LINE",
"48 120 OFFCURVE",
"68 135 QCURVE SMOOTH",
"85 148 OFFCURVE",
"117 180 OFFCURVE",
"122 197 QCURVE SMOOTH",
"123 200 OFFCURVE",
"124 205 OFFCURVE",
"125 208 QCURVE",
"62 208 LINE",
"62 252 LINE",
"122 252 LINE",
"119 258 OFFCURVE",
"111 265 OFFCURVE",
"108 267 QCURVE SMOOTH",
"104 270 OFFCURVE",
"101 271 QCURVE SMOOTH",
"71 282 OFFCURVE",
"40 319 OFFCURVE",
"25 369 OFFCURVE",
"23 430 OFFCURVE",
"23 465 QCURVE SMOOTH",
"23 488 LINE SMOOTH",
"23 531 OFFCURVE",
"40 594 OFFCURVE",
"81 634 OFFCURVE",
"148 653 OFFCURVE",
"198 653 QCURVE SMOOTH",
"248 653 OFFCURVE",
"316 634 OFFCURVE",
"357 592 OFFCURVE",
"375 528 OFFCURVE",
"375 483 QCURVE",
"262 483 LINE",
"262 484 LINE",
"262 484 OFFCURVE",
"262 484 QCURVE",
"262 485 OFFCURVE",
"262 485 QCURVE",
"262 485 OFFCURVE",
"262 485 QCURVE",
"262 486 LINE",
"262 486 OFFCURVE",
"262 486 QCURVE",
"262 487 OFFCURVE",
"262 487 QCURVE",
"262 487 OFFCURVE",
"262 487 QCURVE",
"262 487 OFFCURVE",
"262 487 QCURVE",
"262 488 OFFCURVE",
"262 488 QCURVE",
"262 488 OFFCURVE",
"262 488 QCURVE",
"262 493 LINE SMOOTH",
"262 508 OFFCURVE",
"257 531 OFFCURVE",
"242 544 OFFCURVE",
"216 547 OFFCURVE",
"198 547 QCURVE SMOOTH",
"159 547 OFFCURVE",
"135 509 OFFCURVE",
"135 455 QCURVE SMOOTH",
"135 451 OFFCURVE",
"134 443 OFFCURVE",
"134 438 QCURVE",
"134 437 LINE",
"134 437 OFFCURVE",
"134 437 QCURVE",
"134 437 OFFCURVE",
"134 436 QCURVE",
"134 436 OFFCURVE",
"134 436 QCURVE",
"134 435 LINE",
"134 435 OFFCURVE",
"134 435 QCURVE",
"134 435 OFFCURVE",
"134 434 QCURVE",
"134 434 OFFCURVE",
"134 434 QCURVE",
"134 432 LINE",
"134 432 OFFCURVE",
"134 432 QCURVE",
"134 424 LINE SMOOTH",
"134 414 OFFCURVE",
"136 387 OFFCURVE",
"150 376 QCURVE SMOOTH",
"161 367 OFFCURVE",
"188 352 OFFCURVE",
"214 327 OFFCURVE",
"234 286 OFFCURVE",
"238 253 QCURVE",
"238 252 LINE",
"341 252 LINE",
"341 208 LINE",
"237 208 LINE",
"234 186 OFFCURVE",
"218 151 OFFCURVE",
"202 126 OFFCURVE",
"194 118 QCURVE SMOOTH",
"183 107 LINE"
);
}
);
width = 397;
}
);
unicode = 00A3;
},
{
glyphname = currency;
layers = (
{
layerId = "B61A831B-AFE2-4931-A0BA-7BE9EE52F2B7";
paths = (
{
nodes = (
"306 270 OFFCURVE",
"284 240 QCURVE",
"326 197 LINE",
"284 155 LINE",
"238 197 LINE",
"223 189 OFFCURVE",
"189 179 OFFCURVE",
"171 179 QCURVE SMOOTH",
"151 179 OFFCURVE",
"116 190 OFFCURVE",
"102 200 QCURVE",
"60 157 LINE",
"15 202 LINE",
"56 245 LINE",
"40 274 OFFCURVE",
"40 310 QCURVE SMOOTH",
"40 345 OFFCURVE",
"56 376 QCURVE",
"12 417 LINE",
"57 461 LINE",
"100 421 LINE",
"130 442 OFFCURVE",
"171 442 QCURVE SMOOTH",
"191 442 OFFCURVE",
"223 433 OFFCURVE",
"240 425 QCURVE",
"280 466 LINE",
"326 420 LINE",
"286 380 LINE",
"295 366 OFFCURVE",
"306 330 OFFCURVE",
"306 310 QCURVE SMOOTH"
);
},
{
nodes = (
"107 284 OFFCURVE",
"146 244 OFFCURVE",
"173 244 QCURVE SMOOTH",
"202 244 OFFCURVE",
"241 284 OFFCURVE",
"241 311 QCURVE SMOOTH",
"241 339 OFFCURVE",
"202 378 OFFCURVE",
"173 378 QCURVE SMOOTH",
"146 378 OFFCURVE",
"107 339 OFFCURVE",
"107 311 QCURVE SMOOTH"
);
}
);
width = 337;
}
);
unicode = 00A4;
},
{
glyphname = yen;
layers = (
{
layerId = "B61A831B-AFE2-4931-A0BA-7BE9EE52F2B7";
paths = (
{
nodes = (
"370 573 LINE SMOOTH",
"370 528 OFFCURVE",
"363 448 OFFCURVE",
"339 374 OFFCURVE",
"291 304 OFFCURVE",
"250 268 QCURVE",
"250 265 LINE",
"324 265 LINE",
"324 221 LINE",
"250 221 LINE",
"250 142 LINE",
"324 142 LINE",
"324 98 LINE",
"250 98 LINE",
"250 0 LINE",
"138 0 LINE",
"138 98 LINE",
"66 98 LINE",
"66 142 LINE",
"138 142 LINE",
"138 221 LINE",
"66 221 LINE",
"66 265 LINE",
"138 265 LINE",
"138 268 LINE",
"96 304 OFFCURVE",
"49 374 OFFCURVE",
"26 448 OFFCURVE",
"20 528 OFFCURVE",
"20 573 QCURVE SMOOTH",
"20 649 LINE",
"131 649 LINE",
"131 636 OFFCURVE",
"130 607 OFFCURVE",
"130 595 QCURVE SMOOTH",
"130 584 OFFCURVE",
"129 564 OFFCURVE",
"129 553 QCURVE SMOOTH",
"129 502 OFFCURVE",
"153 409 OFFCURVE",
"193 364 QCURVE",
"236 409 OFFCURVE",
"260 506 OFFCURVE",
"260 560 QCURVE SMOOTH",
"260 570 OFFCURVE",
"259 589 OFFCURVE",
"259 600 QCURVE SMOOTH",
"259 611 OFFCURVE",
"258 638 OFFCURVE",
"258 649 QCURVE",
"370 649 LINE"
);
}
);
width = 388;
}
);
unicode = 00A5;
},
{
glyphname = section;
layers = (
{
layerId = "B61A831B-AFE2-4931-A0BA-7BE9EE52F2B7";
paths = (
{
nodes = (
"211 260 OFFCURVE",
"234 257 OFFCURVE",
"248 255 QCURVE",
"251 268 OFFCURVE",
"254 306 OFFCURVE",
"254 348 OFFCURVE",
"249 388 OFFCURVE",
"245 402 QCURVE",
"237 407 OFFCURVE",
"211 410 OFFCURVE",
"200 410 QCURVE SMOOTH",
"193 410 LINE SMOOTH",
"158 410 OFFCURVE",
"133 402 OFFCURVE",
"130 384 QCURVE SMOOTH",
"129 376 OFFCURVE",
"126 343 OFFCURVE",
"126 333 QCURVE SMOOTH",
"126 309 OFFCURVE",
"130 270 QCURVE",
"131 267 OFFCURVE",
"148 263 OFFCURVE",
"169 261 OFFCURVE",
"189 260 OFFCURVE",
"193 260 QCURVE SMOOTH"
);
},
{
nodes = (
"368 288 LINE SMOOTH",
"368 227 OFFCURVE",
"351 192 QCURVE",
"364 165 OFFCURVE",
"368 96 OFFCURVE",
"368 54 QCURVE SMOOTH",
"368 32 LINE SMOOTH",
"368 -12 OFFCURVE",
"350 -75 OFFCURVE",
"310 -115 OFFCURVE",
"242 -133 OFFCURVE",
"193 -133 QCURVE SMOOTH",
"131 -133 OFFCURVE",
"61 -106 OFFCURVE",
"27 -55 OFFCURVE",
"18 21 OFFCURVE",
"18 69 QCURVE",
"129 69 LINE",
"129 60 OFFCURVE",
"128 40 OFFCURVE",
"128 32 QCURVE",
"128 32 OFFCURVE",
"128 32 QCURVE",
"128 32 OFFCURVE",
"128 32 QCURVE",
"128 32 OFFCURVE",
"128 32 QCURVE",
"128 32 OFFCURVE",
"128 32 QCURVE",
"128 32 OFFCURVE",
"128 32 QCURVE",
"128 32 OFFCURVE",
"128 32 QCURVE",
"128 30 LINE",
"128 30 OFFCURVE",
"128 30 QCURVE",
"128 30 OFFCURVE",
"128 30 QCURVE",
"128 30 OFFCURVE",
"128 30 QCURVE",
"128 30 OFFCURVE",
"128 30 QCURVE",
"128 30 OFFCURVE",
"128 30 QCURVE",
"128 30 OFFCURVE",
"128 30 QCURVE",
"128 27 LINE",
"128 27 OFFCURVE",
"128 27 QCURVE",
"128 27 OFFCURVE",
"128 27 QCURVE",
"128 25 LINE",
"128 25 OFFCURVE",
"128 25 QCURVE",
"128 25 OFFCURVE",
"128 25 QCURVE",
"128 25 OFFCURVE",
"128 25 QCURVE",
"128 25 OFFCURVE",
"128 25 QCURVE",
"128 25 OFFCURVE",
"128 25 QCURVE",
"128 25 OFFCURVE",
"128 25 QCURVE",
"128 24 LINE",
"128 24 OFFCURVE",
"128 24 QCURVE",
"128 24 OFFCURVE",
"128 24 QCURVE",
"128 24 OFFCURVE",
"128 24 QCURVE",
"128 16 LINE SMOOTH",
"128 8 OFFCURVE",
"129 -10 OFFCURVE",
"143 -24 OFFCURVE",
"169 -27 OFFCURVE",
"185 -27 QCURVE",
"185 -27 OFFCURVE",
"185 -27 QCURVE",
"185 -27 OFFCURVE",
"186 -27 QCURVE",
"186 -27 OFFCURVE",
"186 -27 QCURVE",
"186 -27 OFFCURVE",
"186 -27 QCURVE",
"186 -27 OFFCURVE",
"186 -27 QCURVE",
"187 -27 LINE",
"187 -27 OFFCURVE",
"187 -27 QCURVE",
"188 -27 LINE",
"188 -27 OFFCURVE",
"188 -27 QCURVE",
"188 -27 OFFCURVE",
"188 -27 QCURVE",
"188 -27 OFFCURVE",
"188 -27 QCURVE",
"188 -27 OFFCURVE",
"188 -27 QCURVE",
"188 -27 OFFCURVE",
"188 -27 QCURVE",
"189 -27 LINE",
"189 -27 OFFCURVE",
"189 -27 QCURVE",
"190 -27 LINE",
"190 -27 OFFCURVE",
"190 -27 QCURVE",
"190 -27 OFFCURVE",
"190 -27 QCURVE",
"190 -27 OFFCURVE",
"190 -27 QCURVE",
"190 -27 OFFCURVE",
"190 -27 QCURVE",
"190 -27 OFFCURVE",
"190 -27 QCURVE",
"191 -27 LINE",
"191 -27 OFFCURVE",
"191 -27 QCURVE",
"192 -27 LINE",
"192 -27 OFFCURVE",
"192 -27 QCURVE",
"192 -27 OFFCURVE",
"192 -27 QCURVE",
"193 -27 LINE",
"193 -27 OFFCURVE",
"193 -27 QCURVE",
"193 -27 OFFCURVE",
"193 -27 QCURVE",
"193 -27 OFFCURVE",
"193 -27 QCURVE",
"201 -27 LINE",
"201 -27 OFFCURVE",
"201 -27 QCURVE",
"201 -27 OFFCURVE",
"201 -27 QCURVE",
"202 -27 OFFCURVE",
"202 -27 QCURVE",
"202 -27 OFFCURVE",
"202 -27 QCURVE",
"202 -27 OFFCURVE",
"202 -27 QCURVE",
"202 -27 OFFCURVE",
"202 -27 QCURVE",
"222 -26 OFFCURVE",
"244 -22 OFFCURVE",
"254 -13 OFFCURVE",
"256 5 OFFCURVE",
"256 21 QCURVE",
"257 50 OFFCURVE",
"258 75 OFFCURVE",
"258 81 QCURVE SMOOTH",
"258 92 OFFCURVE",
"257 99 QCURVE",
"257 110 OFFCURVE",
"255 130 OFFCURVE",
"253 140 QCURVE",
"251 144 OFFCURVE",
"238 150 OFFCURVE",
"222 153 OFFCURVE",
"204 154 OFFCURVE",
"197 154 QCURVE SMOOTH",
"193 154 LINE SMOOTH",
"131 154 OFFCURVE",
"61 180 OFFCURVE",
"27 230 OFFCURVE",
"18 304 OFFCURVE",
"18 351 QCURVE SMOOTH",
"18 387 OFFCURVE",
"29 442 OFFCURVE",
"43 462 QCURVE",
"26 487 OFFCURVE",
"18 559 OFFCURVE",
"18 607 QCURVE SMOOTH",
"18 651 OFFCURVE",
"36 713 OFFCURVE",
"76 753 OFFCURVE",
"143 771 OFFCURVE",
"193 771 QCURVE SMOOTH",
"242 771 OFFCURVE",
"309 752 OFFCURVE",
"350 711 OFFCURVE",
"368 647 OFFCURVE",
"368 602 QCURVE",
"256 602 LINE",
"256 624 OFFCURVE",
"254 650 OFFCURVE",
"243 663 OFFCURVE",
"217 666 OFFCURVE",
"193 666 QCURVE SMOOTH",
"158 666 OFFCURVE",
"133 658 OFFCURVE",
"130 640 QCURVE SMOOTH",
"129 634 OFFCURVE",
"129 615 OFFCURVE",
"128 601 QCURVE",
"128 574 OFFCURVE",
"129 540 OFFCURVE",
"134 526 QCURVE SMOOTH",
"135 523 OFFCURVE",
"151 519 OFFCURVE",
"171 517 OFFCURVE",
"189 516 OFFCURVE",
"193 516 QCURVE SMOOTH",
"244 516 OFFCURVE",
"309 497 OFFCURVE",
"347 463 OFFCURVE",
"363 415 OFFCURVE",
"366 385 QCURVE SMOOTH",
"367 376 OFFCURVE",
"368 357 OFFCURVE",
"368 346 QCURVE",
"367 346 LINE",
"368 337 OFFCURVE",
"368 328 QCURVE",
"368 326 LINE",
"368 326 OFFCURVE",
"368 326 QCURVE",
"368 326 OFFCURVE",
"368 326 QCURVE",
"368 326 OFFCURVE",
"368 326 QCURVE",
"368 326 OFFCURVE",
"368 326 QCURVE",
"368 326 OFFCURVE",
"368 326 QCURVE",
"368 325 LINE",
"368 325 OFFCURVE",
"368 325 QCURVE",
"368 322 LINE",
"368 322 OFFCURVE",
"368 322 QCURVE",
"368 322 OFFCURVE",
"368 322 QCURVE",
"368 320 LINE",
"368 320 OFFCURVE",
"368 320 QCURVE",
"368 320 OFFCURVE",
"368 320 QCURVE",
"368 320 OFFCURVE",
"368 320 QCURVE",
"368 320 OFFCURVE",
"368 320 QCURVE",
"368 320 OFFCURVE",
"368 320 QCURVE",
"368 319 LINE",
"368 319 OFFCURVE",
"368 319 QCURVE"
);
}
);
width = 402;
}
);
unicode = 00A7;
},
{
glyphname = dieresis;
layers = (
{
layerId = "B61A831B-AFE2-4931-A0BA-7BE9EE52F2B7";
paths = (
{
nodes = (
"205 766 LINE",
"301 766 LINE",
"301 685 LINE",
"274 684 OFFCURVE",
"253 684 QCURVE SMOOTH",
"250 684 LINE",
"250 684 OFFCURVE",
"250 684 QCURVE",
"250 684 OFFCURVE",
"250 684 QCURVE",
"250 684 OFFCURVE",
"249 684 QCURVE",
"249 684 OFFCURVE",
"249 684 QCURVE",
"249 684 OFFCURVE",
"249 684 QCURVE",
"249 684 OFFCURVE",
"249 684 QCURVE",
"249 684 OFFCURVE",
"249 684 QCURVE",
"249 684 OFFCURVE",
"249 684 QCURVE",
"249 684 OFFCURVE",
"249 684 QCURVE",
"249 684 OFFCURVE",
"249 684 QCURVE",
"249 684 OFFCURVE",
"249 684 QCURVE",
"249 684 OFFCURVE",
"249 684 QCURVE",
"249 684 OFFCURVE",
"249 684 QCURVE",
"249 684 OFFCURVE",
"248 684 QCURVE",
"248 684 OFFCURVE",
"248 684 QCURVE",
"248 684 OFFCURVE",
"248 684 QCURVE",
"247 684 LINE",
"247 684 OFFCURVE",
"247 684 QCURVE",
"247 684 OFFCURVE",
"247 684 QCURVE",
"247 684 OFFCURVE",
"246 684 QCURVE",
"246 684 OFFCURVE",
"246 684 QCURVE",
"246 684 OFFCURVE",
"246 684 QCURVE",
"246 684 OFFCURVE",
"246 684 QCURVE",
"245 684 LINE",
"245 684 OFFCURVE",
"245 684 QCURVE",
"245 684 OFFCURVE",
"245 684 QCURVE",
"245 684 OFFCURVE",
"245 684 QCURVE",
"245 684 OFFCURVE",
"245 684 QCURVE",
"245 684 OFFCURVE",
"245 684 QCURVE",
"245 684 OFFCURVE",
"245 684 QCURVE",
"245 684 OFFCURVE",
"245 684 QCURVE",
"245 684 OFFCURVE",
"244 684 QCURVE",
"244 684 OFFCURVE",
"244 684 QCURVE",
"244 684 OFFCURVE",
"244 684 QCURVE",
"244 684 OFFCURVE",
"244 684 QCURVE",
"244 684 OFFCURVE",
"244 684 QCURVE",
"243 684 LINE",
"243 684 OFFCURVE",
"243 684 QCURVE",
"243 684 OFFCURVE",
"243 684 QCURVE",
"243 684 OFFCURVE",
"243 684 QCURVE",
"243 684 OFFCURVE",
"243 684 QCURVE",
"243 684 OFFCURVE",
"243 684 QCURVE",
"243 684 OFFCURVE",
"243 684 QCURVE",
"243 684 OFFCURVE",
"243 684 QCURVE",
"243 684 OFFCURVE",
"242 684 QCURVE",
"242 684 OFFCURVE",
"242 684 QCURVE",
"242 684 OFFCURVE",
"242 684 QCURVE",
"242 684 OFFCURVE",
"242 684 QCURVE",
"242 684 OFFCURVE",
"242 684 QCURVE",
"241 684 LINE",
"241 684 OFFCURVE",
"241 684 QCURVE",
"241 684 OFFCURVE",
"241 684 QCURVE",
"241 684 OFFCURVE",
"241 684 QCURVE",
"241 684 OFFCURVE",
"241 684 QCURVE",
"241 684 OFFCURVE",
"241 684 QCURVE",
"241 684 OFFCURVE",
"241 684 QCURVE",
"241 684 OFFCURVE",
"241 684 QCURVE",
"241 684 OFFCURVE",
"240 684 QCURVE",
"240 684 OFFCURVE",
"240 684 QCURVE",
"240 684 OFFCURVE",
"240 684 QCURVE",
"237 684 LINE",
"237 684 OFFCURVE",
"237 684 QCURVE",
"237 684 OFFCURVE",
"237 684 QCURVE",
"237 684 OFFCURVE",
"237 684 QCURVE",
"237 684 OFFCURVE",
"237 684 QCURVE",
"237 684 OFFCURVE",
"236 684 QCURVE",
"236 684 OFFCURVE",
"236 684 QCURVE",
"236 684 OFFCURVE",
"236 684 QCURVE",
"224 684 LINE",
"224 684 OFFCURVE",
"224 684 QCURVE",
"224 684 OFFCURVE",
"224 684 QCURVE",
"224 684 OFFCURVE",
"224 684 QCURVE",
"224 684 OFFCURVE",
"224 684 QCURVE",
"224 684 OFFCURVE",
"224 684 QCURVE",
"224 684 OFFCURVE",
"224 684 QCURVE",
"224 684 OFFCURVE",
"223 684 QCURVE",
"223 684 OFFCURVE",
"223 684 QCURVE",
"223 684 OFFCURVE",
"223 684 QCURVE",
"223 684 OFFCURVE",
"223 684 QCURVE",
"223 684 OFFCURVE",
"223 684 QCURVE",
"220 684 LINE SMOOTH",
"205 684 OFFCURVE",
"205 685 QCURVE"
);
},
{
nodes = (
"52 764 LINE",
"146 765 LINE",
"147 683 LINE",
"120 682 OFFCURVE",
"99 682 QCURVE SMOOTH",
"96 682 LINE",
"96 682 OFFCURVE",
"96 682 QCURVE",
"96 682 OFFCURVE",
"96 682 QCURVE",
"96 682 OFFCURVE",
"95 682 QCURVE",
"95 682 OFFCURVE",
"95 682 QCURVE",
"95 682 OFFCURVE",
"95 682 QCURVE",
"95 682 OFFCURVE",
"95 682 QCURVE",
"95 682 OFFCURVE",
"95 682 QCURVE",
"95 682 OFFCURVE",
"95 682 QCURVE",
"95 682 OFFCURVE",
"95 682 QCURVE",
"95 682 OFFCURVE",
"95 682 QCURVE",
"95 682 OFFCURVE",
"95 682 QCURVE",
"95 682 OFFCURVE",
"95 682 QCURVE",
"95 682 OFFCURVE",
"95 682 QCURVE",
"95 682 OFFCURVE",
"95 682 QCURVE",
"94 682 LINE",
"94 682 OFFCURVE",
"94 682 QCURVE",
"94 682 OFFCURVE",
"94 682 QCURVE",
"94 682 OFFCURVE",
"94 682 QCURVE",
"91 682 LINE",
"91 682 OFFCURVE",
"91 682 QCURVE",
"91 682 OFFCURVE",
"91 682 QCURVE",
"91 682 OFFCURVE",
"91 682 QCURVE",
"89 682 LINE",
"89 682 OFFCURVE",
"89 682 QCURVE",
"89 682 OFFCURVE",
"89 682 QCURVE",
"89 682 OFFCURVE",
"89 682 QCURVE",
"87 682 LINE",
"87 682 OFFCURVE",
"87 682 QCURVE",
"85 682 LINE",
"85 682 OFFCURVE",
"85 682 QCURVE",
"83 682 LINE",
"83 682 OFFCURVE",
"83 682 QCURVE",
"83 682 OFFCURVE",
"83 682 QCURVE",
"83 682 OFFCURVE",
"83 682 QCURVE",
"83 682 OFFCURVE",
"83 682 QCURVE",
"83 682 OFFCURVE",
"83 682 QCURVE",
"83 682 OFFCURVE",
"83 682 QCURVE",
"83 682 OFFCURVE",
"83 682 QCURVE",
"83 682 OFFCURVE",
"83 682 QCURVE",
"83 682 OFFCURVE",
"83 682 QCURVE",
"82 682 LINE",
"82 682 OFFCURVE",
"82 682 QCURVE",
"82 682 OFFCURVE",
"82 682 QCURVE",
"67 682 LINE SMOOTH",
"52 682 OFFCURVE",
"52 683 QCURVE"
);
},
{
nodes = (
"222 684 OFFCURVE",
"222 684 QCURVE",
"222 684 OFFCURVE",
"222 684 QCURVE",
"222 684 OFFCURVE",
"222 684 QCURVE"
);
}
);
width = 354;
}
);
unicode = 00A8;
},
{
glyphname = copyright;
layers = (
{
layerId = "B61A831B-AFE2-4931-A0BA-7BE9EE52F2B7";
paths = (
{
nodes = (
"160 264 OFFCURVE",
"94 292 OFFCURVE",
"45 342 OFFCURVE",
"16 408 OFFCURVE",
"16 446 QCURVE SMOOTH",
"16 483 OFFCURVE",
"45 549 OFFCURVE",
"94 599 OFFCURVE",
"160 628 OFFCURVE",
"198 628 QCURVE SMOOTH",
"236 628 OFFCURVE",
"302 599 OFFCURVE",
"352 549 OFFCURVE",
"380 483 OFFCURVE",
"380 446 QCURVE SMOOTH",
"380 408 OFFCURVE",
"352 342 OFFCURVE",
"302 292 OFFCURVE",
"236 264 OFFCURVE",
"198 264 QCURVE SMOOTH"
);
},
{
nodes = (
"168 592 OFFCURVE",
"115 569 OFFCURVE",
"75 529 OFFCURVE",
"52 476 OFFCURVE",
"52 446 QCURVE SMOOTH",
"52 415 OFFCURVE",
"75 362 OFFCURVE",
"115 322 OFFCURVE",
"168 299 OFFCURVE",
"198 299 QCURVE SMOOTH",
"228 299 OFFCURVE",
"281 322 OFFCURVE",
"321 362 OFFCURVE",
"344 415 OFFCURVE",
"344 446 QCURVE SMOOTH",
"344 476 OFFCURVE",
"321 529 OFFCURVE",
"281 569 OFFCURVE",
"228 592 OFFCURVE",
"198 592 QCURVE SMOOTH"
);
},
{
nodes = (
"258 402 LINE",
"258 385 OFFCURVE",
"255 358 OFFCURVE",
"243 340 OFFCURVE",
"218 330 OFFCURVE",
"196 330 QCURVE SMOOTH",
"160 330 OFFCURVE",
"133 356 OFFCURVE",
"133 388 QCURVE SMOOTH",
"133 502 LINE SMOOTH",
"133 534 OFFCURVE",
"160 560 OFFCURVE",
"196 560 QCURVE SMOOTH",
"231 560 OFFCURVE",
"258 532 OFFCURVE",
"258 500 QCURVE",
"218 500 LINE",
"218 517 OFFCURVE",
"213 523 OFFCURVE",
"196 523 QCURVE SMOOTH",
"179 523 OFFCURVE",
"174 517 OFFCURVE",
"174 502 QCURVE SMOOTH",
"174 381 LINE",
"175 375 OFFCURVE",
"190 369 OFFCURVE",
"198 369 QCURVE SMOOTH",
"204 369 OFFCURVE",
"212 371 OFFCURVE",
"215 372 QCURVE SMOOTH",
"220 374 OFFCURVE",
"220 387 QCURVE SMOOTH",
"220 390 OFFCURVE",
"218 394 OFFCURVE",
"218 397 QCURVE SMOOTH",
"218 402 LINE"
);
}
);
width = 396;
}
);
unicode = 00A9;
},
{
glyphname = ordfeminine;
layers = (
{
layerId = "B61A831B-AFE2-4931-A0BA-7BE9EE52F2B7";
paths = (
{
nodes = (
"223 540 OFFCURVE",
"223 540 QCURVE",
"223 540 OFFCURVE",
"223 540 QCURVE",
"223 540 OFFCURVE",
"223 540 QCURVE"
);
},
{
nodes = (
"175 364 LINE",
"172 348 OFFCURVE",
"145 348 QCURVE SMOOTH",
"108 348 LINE SMOOTH",
"81 348 OFFCURVE",
"50 359 OFFCURVE",
"34 379 OFFCURVE",
"29 405 OFFCURVE",
"29 421 QCURVE",
"29 422 LINE",
"29 422 OFFCURVE",
"29 422 QCURVE",
"29 422 OFFCURVE",
"29 422 QCURVE",
"29 423 LINE",
"29 423 OFFCURVE",
"29 423 QCURVE",
"29 423 OFFCURVE",
"29 423 QCURVE",
"29 423 OFFCURVE",
"29 423 QCURVE",
"29 423 OFFCURVE",
"29 423 QCURVE",
"29 423 OFFCURVE",
"29 424 QCURVE",
"29 424 OFFCURVE",
"29 424 QCURVE",
"29 424 OFFCURVE",
"29 424 QCURVE",
"29 424 OFFCURVE",
"29 424 QCURVE",
"29 424 OFFCURVE",
"29 424 QCURVE",
"29 424 OFFCURVE",
"29 424 QCURVE",
"29 424 OFFCURVE",
"29 424 QCURVE",
"29 424 OFFCURVE",
"29 424 QCURVE",
"29 424 OFFCURVE",
"29 425 QCURVE",
"29 425 OFFCURVE",
"29 425 QCURVE",
"29 428 LINE",
"29 428 OFFCURVE",
"29 428 QCURVE",
"29 428 OFFCURVE",
"29 428 QCURVE",
"29 428 OFFCURVE",
"29 428 QCURVE",
"29 428 OFFCURVE",
"29 428 QCURVE",
"29 428 OFFCURVE",
"29 429 QCURVE",
"29 429 OFFCURVE",
"29 429 QCURVE",
"29 430 LINE",
"29 430 OFFCURVE",
"29 430 QCURVE",
"29 430 OFFCURVE",
"29 431 QCURVE",
"29 431 OFFCURVE",
"29 431 QCURVE",
"29 431 OFFCURVE",
"29 431 QCURVE",
"29 431 OFFCURVE",
"29 431 QCURVE",
"29 431 OFFCURVE",
"29 431 QCURVE",
"29 432 LINE",
"29 432 OFFCURVE",
"29 432 QCURVE",
"29 432 OFFCURVE",
"29 432 QCURVE",
"29 432 OFFCURVE",
"29 432 QCURVE",
"29 432 OFFCURVE",
"29 432 QCURVE",
"29 432 OFFCURVE",
"29 433 QCURVE",
"29 433 OFFCURVE",
"29 433 QCURVE",
"29 433 OFFCURVE",
"29 433 QCURVE",
"29 433 OFFCURVE",
"29 433 QCURVE",
"29 433 OFFCURVE",
"29 433 QCURVE",
"29 433 OFFCURVE",
"29 433 QCURVE",
"29 433 OFFCURVE",
"29 433 QCURVE",
"29 433 OFFCURVE",
"29 433 QCURVE",
"29 433 OFFCURVE",
"29 433 QCURVE",
"29 433 OFFCURVE",
"29 434 QCURVE",
"29 434 OFFCURVE",
"29 434 QCURVE",
"29 434 OFFCURVE",
"29 434 QCURVE",
"29 434 OFFCURVE",
"29 434 QCURVE",
"29 438 LINE",
"29 438 OFFCURVE",
"29 438 QCURVE",
"29 438 OFFCURVE",
"29 438 QCURVE",
"29 439 LINE",
"29 442 OFFCURVE",
"30 450 OFFCURVE",
"30 454 QCURVE SMOOTH",
"30 479 OFFCURVE",
"45 506 OFFCURVE",
"72 519 OFFCURVE",
"91 520 QCURVE SMOOTH",
"109 521 OFFCURVE",
"130 521 QCURVE SMOOTH",
"147 521 OFFCURVE",
"162 520 QCURVE",
"168 520 OFFCURVE",
"174 519 QCURVE",
"174 551 LINE SMOOTH",
"174 557 OFFCURVE",
"173 569 OFFCURVE",
"163 575 OFFCURVE",
"151 576 QCURVE",
"148 576 LINE",
"148 576 OFFCURVE",
"148 576 QCURVE",
"148 576 OFFCURVE",
"148 576 QCURVE",
"148 576 OFFCURVE",
"148 576 QCURVE",
"148 576 OFFCURVE",
"148 576 QCURVE",
"148 576 OFFCURVE",
"148 576 QCURVE",
"144 576 LINE",
"144 576 OFFCURVE",
"144 576 QCURVE",
"144 576 OFFCURVE",
"144 576 QCURVE",
"144 576 OFFCURVE",
"144 576 QCURVE",
"144 576 OFFCURVE",
"144 576 QCURVE",
"144 576 OFFCURVE",
"144 576 QCURVE",
"142 576 LINE",
"142 576 OFFCURVE",
"142 576 QCURVE",
"142 576 OFFCURVE",
"141 576 QCURVE",
"141 576 OFFCURVE",
"141 576 QCURVE",
"141 576 OFFCURVE",
"141 576 QCURVE",
"141 576 OFFCURVE",
"141 576 QCURVE",
"139 576 LINE",
"139 576 OFFCURVE",
"139 576 QCURVE",
"139 576 OFFCURVE",
"139 576 QCURVE",
"139 576 OFFCURVE",
"139 576 QCURVE",
"139 576 OFFCURVE",
"139 576 QCURVE",
"139 576 OFFCURVE",
"139 576 QCURVE",
"137 576 LINE",
"137 576 OFFCURVE",
"136 576 QCURVE",
"136 576 OFFCURVE",
"136 576 QCURVE",
"136 576 OFFCURVE",
"136 576 QCURVE",
"136 576 OFFCURVE",
"136 576 QCURVE",
"136 576 OFFCURVE",
"136 576 QCURVE",
"100 576 LINE SMOOTH",
"90 576 OFFCURVE",
"85 572 QCURVE SMOOTH",
"80 569 OFFCURVE",
"79 558 OFFCURVE",
"79 551 QCURVE",
"30 551 LINE",
"30 577 OFFCURVE",
"45 605 OFFCURVE",
"72 617 OFFCURVE",
"91 618 QCURVE SMOOTH",
"98 619 OFFCURVE",
"111 619 QCURVE SMOOTH",
"118 619 OFFCURVE",
"150 618 OFFCURVE",
"162 618 QCURVE",
"181 617 OFFCURVE",
"208 604 OFFCURVE",
"223 577 OFFCURVE",
"223 552 QCURVE",
"223 552 OFFCURVE",
"223 552 QCURVE",
"223 552 OFFCURVE",
"223 551 QCURVE",
"223 551 OFFCURVE",
"223 551 QCURVE",
"223 550 LINE",
"223 550 OFFCURVE",
"223 550 QCURVE",
"223 550 OFFCURVE",
"223 550 QCURVE",
"223 550 OFFCURVE",
"223 550 QCURVE",
"223 548 LINE",
"223 548 OFFCURVE",
"223 548 QCURVE",
"223 548 OFFCURVE",
"223 548 QCURVE",
"223 544 LINE",
"223 544 OFFCURVE",
"223 544 QCURVE",
"223 544 OFFCURVE",
"223 543 QCURVE",
"223 543 OFFCURVE",
"223 543 QCURVE",
"223 542 LINE",
"223 542 OFFCURVE",
"223 542 QCURVE",
"223 542 OFFCURVE",
"223 542 QCURVE",
"223 542 OFFCURVE",
"223 542 QCURVE",
"223 536 LINE SMOOTH",
"223 532 OFFCURVE",
"224 523 OFFCURVE",
"225 347 QCURVE",
"175 347 LINE"
);
},
{
nodes = (
"29 425 OFFCURVE",
"29 425 QCURVE",
"29 425 OFFCURVE",
"29 425 QCURVE",
"29 425 OFFCURVE",
"29 425 QCURVE"
);
},
{
nodes = (
"174 453 LINE SMOOTH",
"174 459 OFFCURVE",
"173 471 OFFCURVE",
"163 477 OFFCURVE",
"151 478 QCURVE",
"150 478 LINE",
"150 478 OFFCURVE",
"150 478 QCURVE",
"150 478 OFFCURVE",
"150 478 QCURVE",
"150 478 OFFCURVE",
"150 478 QCURVE",
"150 478 OFFCURVE",
"150 478 QCURVE",
"150 478 OFFCURVE",
"149 478 QCURVE",
"149 478 OFFCURVE",
"149 478 QCURVE",
"149 478 OFFCURVE",
"149 478 QCURVE",
"145 478 LINE",
"145 478 OFFCURVE",
"145 478 QCURVE",
"145 478 OFFCURVE",
"145 478 QCURVE",
"145 478 OFFCURVE",
"144 478 QCURVE",
"144 478 OFFCURVE",
"144 478 QCURVE",
"144 478 OFFCURVE",
"144 478 QCURVE",
"144 478 OFFCURVE",
"144 478 QCURVE",
"144 478 OFFCURVE",
"144 478 QCURVE",
"142 478 LINE",
"142 478 OFFCURVE",
"142 478 QCURVE",
"142 478 OFFCURVE",
"142 478 QCURVE",
"142 478 OFFCURVE",
"141 478 QCURVE",
"141 478 OFFCURVE",
"141 478 QCURVE",
"141 478 OFFCURVE",
"141 478 QCURVE",
"141 478 OFFCURVE",
"141 478 QCURVE",
"141 478 OFFCURVE",
"141 478 QCURVE",
"140 478 LINE",
"140 478 OFFCURVE",
"140 478 QCURVE",
"140 478 OFFCURVE",
"140 478 QCURVE",
"140 478 OFFCURVE",
"140 478 QCURVE",
"140 478 OFFCURVE",
"140 478 QCURVE",
"140 478 OFFCURVE",
"139 478 QCURVE",
"139 478 OFFCURVE",
"139 478 QCURVE",
"139 478 OFFCURVE",
"139 478 QCURVE",
"128 478 LINE",
"128 478 OFFCURVE",
"128 478 QCURVE",
"128 478 OFFCURVE",
"128 478 QCURVE",
"128 478 OFFCURVE",
"127 478 QCURVE",
"127 478 OFFCURVE",
"127 478 QCURVE",
"127 478 OFFCURVE",
"127 478 QCURVE",
"127 478 OFFCURVE",
"127 478 QCURVE",
"127 478 OFFCURVE",
"127 478 QCURVE",
"126 478 LINE",
"126 478 OFFCURVE",
"126 478 QCURVE",
"126 478 OFFCURVE",
"126 478 QCURVE",
"126 478 OFFCURVE",
"125 478 QCURVE",
"125 478 OFFCURVE",
"125 478 QCURVE",
"125 478 OFFCURVE",
"125 478 QCURVE",
"125 478 OFFCURVE",
"125 478 QCURVE",
"125 478 OFFCURVE",
"125 478 QCURVE",
"122 478 LINE",
"122 478 OFFCURVE",
"122 478 QCURVE",
"122 478 OFFCURVE",
"121 478 QCURVE",
"121 478 OFFCURVE",
"121 478 QCURVE",
"121 478 OFFCURVE",
"121 478 QCURVE",
"121 478 OFFCURVE",
"121 478 QCURVE",
"120 478 LINE",
"120 478 OFFCURVE",
"120 478 QCURVE",
"120 478 OFFCURVE",
"120 478 QCURVE",
"120 478 OFFCURVE",
"120 478 QCURVE",
"120 478 OFFCURVE",
"120 478 QCURVE",
"120 478 OFFCURVE",
"119 478 QCURVE",
"119 478 OFFCURVE",
"119 478 QCURVE",
"119 478 OFFCURVE",
"119 478 QCURVE",
"119 478 OFFCURVE",
"119 478 QCURVE",
"119 478 OFFCURVE",
"119 478 QCURVE",
"116 478 LINE",
"116 478 OFFCURVE",
"116 478 QCURVE",
"116 478 OFFCURVE",
"116 478 QCURVE",
"116 478 OFFCURVE",
"115 478 QCURVE",
"115 478 OFFCURVE",
"115 478 QCURVE",
"115 478 OFFCURVE",
"115 478 QCURVE",
"115 478 OFFCURVE",
"115 478 QCURVE",
"115 478 OFFCURVE",
"115 478 QCURVE",
"113 478 LINE",
"113 478 OFFCURVE",
"113 478 QCURVE",
"113 478 OFFCURVE",
"113 478 QCURVE",
"113 478 OFFCURVE",
"113 478 QCURVE",
"113 478 OFFCURVE",
"113 478 QCURVE",
"113 478 OFFCURVE",
"112 478 QCURVE",
"112 478 OFFCURVE",
"112 478 QCURVE",
"112 478 OFFCURVE",
"112 478 QCURVE",
"112 478 OFFCURVE",
"112 478 QCURVE",
"112 478 OFFCURVE",
"112 478 QCURVE",
"112 478 OFFCURVE",
"111 478 QCURVE",
"111 478 OFFCURVE",
"111 478 QCURVE",
"111 478 OFFCURVE",
"111 478 QCURVE",
"111 478 OFFCURVE",
"111 478 QCURVE",
"111 478 OFFCURVE",
"111 478 QCURVE",
"104 478 LINE",
"104 478 OFFCURVE",
"104 478 QCURVE",
"104 478 OFFCURVE",
"104 478 QCURVE",
"104 478 OFFCURVE",
"104 478 QCURVE",
"104 478 OFFCURVE",
"104 478 QCURVE",
"104 478 OFFCURVE",
"103 478 QCURVE",
"103 478 OFFCURVE",
"103 478 QCURVE",
"103 478 OFFCURVE",
"103 478 QCURVE",
"103 478 OFFCURVE",
"103 478 QCURVE",
"103 478 OFFCURVE",
"103 478 QCURVE",
"103 478 OFFCURVE",
"103 478 QCURVE",
"102 478 LINE",
"90 477 OFFCURVE",
"80 471 OFFCURVE",
"79 459 OFFCURVE",
"79 453 QCURVE SMOOTH",
"79 416 LINE SMOOTH",
"79 407 OFFCURVE",
"86 396 OFFCURVE",
"98 391 OFFCURVE",
"107 391 QCURVE",
"109 391 LINE",
"109 391 OFFCURVE",
"109 391 QCURVE",
"109 391 OFFCURVE",
"109 391 QCURVE",
"109 391 OFFCURVE",
"109 391 QCURVE",
"109 391 OFFCURVE",
"109 391 QCURVE",
"109 391 OFFCURVE",
"109 391 QCURVE",
"109 391 OFFCURVE",
"110 391 QCURVE",
"110 391 OFFCURVE",
"110 391 QCURVE",
"111 391 LINE",
"111 391 OFFCURVE",
"111 391 QCURVE",
"111 391 OFFCURVE",
"111 391 QCURVE",
"111 391 OFFCURVE",
"111 391 QCURVE",
"111 391 OFFCURVE",
"111 391 QCURVE",
"111 391 OFFCURVE",
"111 391 QCURVE",
"111 391 OFFCURVE",
"112 391 QCURVE",
"112 391 OFFCURVE",
"112 391 QCURVE",
"112 391 OFFCURVE",
"112 391 QCURVE",
"112 391 OFFCURVE",
"112 391 QCURVE",
"112 391 OFFCURVE",
"113 391 QCURVE",
"113 391 OFFCURVE",
"113 391 QCURVE",
"113 391 OFFCURVE",
"113 391 QCURVE",
"113 391 OFFCURVE",
"113 391 QCURVE",
"114 391 LINE",
"114 391 OFFCURVE",
"114 391 QCURVE",
"114 391 OFFCURVE",
"114 391 QCURVE",
"114 391 OFFCURVE",
"114 391 QCURVE",
"114 391 OFFCURVE",
"114 391 QCURVE",
"114 391 OFFCURVE",
"114 391 QCURVE",
"114 391 OFFCURVE",
"114 391 QCURVE",
"114 391 OFFCURVE",
"115 391 QCURVE",
"115 391 OFFCURVE",
"115 391 QCURVE",
"130 391 LINE",
"130 391 OFFCURVE",
"130 391 QCURVE",
"130 391 OFFCURVE",
"130 391 QCURVE",
"130 391 OFFCURVE",
"130 391 QCURVE",
"130 391 OFFCURVE",
"130 391 QCURVE",
"130 391 OFFCURVE",
"130 391 QCURVE",
"130 391 OFFCURVE",
"131 391 QCURVE",
"131 391 OFFCURVE",
"131 391 QCURVE",
"131 391 OFFCURVE",
"131 391 QCURVE",
"131 391 OFFCURVE",
"131 391 QCURVE",
"131 391 OFFCURVE",
"131 391 QCURVE",
"131 391 OFFCURVE",
"131 391 QCURVE",
"131 391 OFFCURVE",
"131 391 QCURVE",
"131 391 OFFCURVE",
"132 391 QCURVE",
"132 391 OFFCURVE",
"132 391 QCURVE",
"132 391 OFFCURVE",
"132 391 QCURVE",
"132 391 OFFCURVE",
"132 391 QCURVE",
"132 391 OFFCURVE",
"132 391 QCURVE",
"132 391 OFFCURVE",
"132 391 QCURVE",
"132 391 OFFCURVE",
"132 391 QCURVE",
"132 391 OFFCURVE",
"133 391 QCURVE",
"133 391 OFFCURVE",
"133 391 QCURVE",
"134 391 LINE",
"134 391 OFFCURVE",
"134 391 QCURVE",
"134 391 OFFCURVE",
"134 391 QCURVE",
"134 391 OFFCURVE",
"134 391 QCURVE",
"134 391 OFFCURVE",
"135 391 QCURVE",
"135 391 OFFCURVE",
"135 391 QCURVE",
"135 391 OFFCURVE",
"135 391 QCURVE",
"135 391 OFFCURVE",
"135 391 QCURVE",
"135 391 OFFCURVE",
"135 391 QCURVE",
"135 391 OFFCURVE",
"135 391 QCURVE",
"135 391 OFFCURVE",
"136 391 QCURVE",
"136 391 OFFCURVE",
"136 391 QCURVE",
"136 391 OFFCURVE",
"136 391 QCURVE",
"136 391 OFFCURVE",
"136 391 QCURVE",
"137 391 LINE",
"137 391 OFFCURVE",
"137 391 QCURVE",
"137 391 OFFCURVE",
"137 391 QCURVE",
"137 391 OFFCURVE",
"137 391 QCURVE",
"137 391 OFFCURVE",
"137 391 QCURVE",
"137 391 OFFCURVE",
"138 391 QCURVE",
"138 391 OFFCURVE",
"138 391 QCURVE",
"138 391 OFFCURVE",
"138 391 QCURVE",
"138 391 OFFCURVE",
"138 391 QCURVE",
"144 391 LINE",
"144 391 OFFCURVE",
"144 391 QCURVE",
"144 391 OFFCURVE",
"144 391 QCURVE",
"144 391 OFFCURVE",
"144 391 QCURVE",
"146 391 LINE",
"154 391 OFFCURVE",
"167 396 OFFCURVE",
"174 407 OFFCURVE",
"174 416 QCURVE SMOOTH"
);
}
);
width = 258;
}
);
unicode = 00AA;
},
{
glyphname = guillemotleft;
layers = (
{
layerId = "B61A831B-AFE2-4931-A0BA-7BE9EE52F2B7";
paths = (
{
nodes = (
"320 477 LINE",
"255 348 LINE",
"320 221 LINE",
"240 221 LINE",
"163 348 LINE",
"240 477 LINE"
);
},
{
nodes = (
"180 477 LINE",
"115 348 LINE",
"180 221 LINE",
"100 221 LINE",
"23 348 LINE",
"100 477 LINE"
);
}
);
width = 345;
}
);
unicode = 00AB;
},
{
glyphname = uni00AD;
layers = (
{
layerId = "B61A831B-AFE2-4931-A0BA-7BE9EE52F2B7";
paths = (
{
nodes = (
"262 358 LINE",
"262 277 LINE",
"24 277 LINE",
"24 358 LINE"
);
}
);
width = 286;
}
);
unicode = 00AD;
},
{
glyphname = registered;
layers = (
{
layerId = "B61A831B-AFE2-4931-A0BA-7BE9EE52F2B7";
paths = (
{
nodes = (
"160 264 OFFCURVE",
"94 292 OFFCURVE",
"45 342 OFFCURVE",
"16 408 OFFCURVE",
"16 446 QCURVE SMOOTH",
"16 483 OFFCURVE",
"45 549 OFFCURVE",
"94 599 OFFCURVE",
"160 628 OFFCURVE",
"198 628 QCURVE SMOOTH",
"236 628 OFFCURVE",
"302 599 OFFCURVE",
"352 549 OFFCURVE",
"380 483 OFFCURVE",
"380 446 QCURVE SMOOTH",
"380 408 OFFCURVE",
"352 342 OFFCURVE",
"302 292 OFFCURVE",
"236 264 OFFCURVE",
"198 264 QCURVE SMOOTH"
);
},
{
nodes = (
"168 592 OFFCURVE",
"115 569 OFFCURVE",
"75 529 OFFCURVE",
"52 476 OFFCURVE",
"52 446 QCURVE SMOOTH",
"52 415 OFFCURVE",
"75 362 OFFCURVE",
"115 322 OFFCURVE",
"168 299 OFFCURVE",
"198 299 QCURVE SMOOTH",
"228 299 OFFCURVE",
"281 322 OFFCURVE",
"321 362 OFFCURVE",
"344 415 OFFCURVE",
"344 446 QCURVE SMOOTH",
"344 476 OFFCURVE",
"321 529 OFFCURVE",
"281 569 OFFCURVE",
"228 592 OFFCURVE",
"198 592 QCURVE SMOOTH"
);
},
{
nodes = (
"220 336 LINE",
"190 412 LINE",
"179 412 LINE",
"179 336 LINE",
"140 336 LINE",
"140 556 LINE",
"201 556 LINE SMOOTH",
"217 556 OFFCURVE",
"240 549 OFFCURVE",
"255 536 OFFCURVE",
"261 515 OFFCURVE",
"262 482 OFFCURVE",
"262 475 QCURVE SMOOTH",
"262 462 OFFCURVE",
"260 446 OFFCURVE",
"254 431 OFFCURVE",
"240 419 OFFCURVE",
"230 416 QCURVE",
"262 336 LINE"
);
},
{
nodes = (
"179 447 LINE",
"195 447 OFFCURVE",
"213 449 OFFCURVE",
"222 456 OFFCURVE",
"223 467 OFFCURVE",
"223 509 OFFCURVE",
"212 521 OFFCURVE",
"201 521 QCURVE SMOOTH",
"179 521 LINE"
);
}
);
width = 396;
}
);
unicode = 00AE;
},
{
glyphname = macron;
layers = (
{
layerId = "B61A831B-AFE2-4931-A0BA-7BE9EE52F2B7";
paths = (
{
nodes = (
"8 766 LINE",
"208 766 LINE",
"208 685 LINE",
"170 684 OFFCURVE",
"126 684 QCURVE SMOOTH",
"103 684 OFFCURVE",
"8 685 OFFCURVE",
"8 685 QCURVE"
);
}
);
width = 219;
}
);
unicode = 00AF;
},
{
glyphname = degree;
layers = (
{
layerId = "B61A831B-AFE2-4931-A0BA-7BE9EE52F2B7";
paths = (
{
nodes = (
"67 522 OFFCURVE",
"24 566 OFFCURVE",
"24 595 QCURVE SMOOTH",
"24 627 OFFCURVE",
"67 671 OFFCURVE",
"99 671 QCURVE SMOOTH",
"131 671 OFFCURVE",
"173 627 OFFCURVE",
"173 595 QCURVE SMOOTH",
"173 566 OFFCURVE",
"131 522 OFFCURVE",
"99 522 QCURVE SMOOTH"
);
},
{
nodes = (
"88 616 OFFCURVE",
"75 603 OFFCURVE",
"75 594 QCURVE SMOOTH",
"75 585 OFFCURVE",
"88 573 OFFCURVE",
"99 573 QCURVE SMOOTH",
"107 573 OFFCURVE",
"122 585 OFFCURVE",
"122 594 QCURVE SMOOTH",
"122 603 OFFCURVE",
"107 616 OFFCURVE",
"99 616 QCURVE SMOOTH"
);
}
);
width = 195;
}
);
unicode = 00B0;
},
{
glyphname = plusminus;
layers = (
{
layerId = "B61A831B-AFE2-4931-A0BA-7BE9EE52F2B7";
paths = (
{
nodes = (
"287 433 LINE",
"287 352 LINE",
"196 352 LINE",
"196 261 LINE",
"115 261 LINE",
"115 352 LINE",
"24 352 LINE",
"24 433 LINE",
"115 433 LINE",
"115 524 LINE",
"196 524 LINE",
"196 433 LINE"
);
},
{
nodes = (
"288 130 LINE",
"28 130 LINE",
"28 211 LINE",
"288 211 LINE"
);
}
);
width = 306;
}
);
unicode = 00B1;
},
{
glyphname = acute;
layers = (
{
layerId = "B61A831B-AFE2-4931-A0BA-7BE9EE52F2B7";
paths = (
{
nodes = (
"95 683 OFFCURVE",
"111 709 OFFCURVE",
"121 724 QCURVE SMOOTH",
"147 764 LINE",
"244 764 LINE",
"190 682 LINE",
"163 681 OFFCURVE",
"142 681 QCURVE",
"142 681 OFFCURVE",
"142 681 QCURVE",
"142 681 OFFCURVE",
"142 681 QCURVE",
"142 681 OFFCURVE",
"142 681 QCURVE",
"142 681 OFFCURVE",
"142 681 QCURVE",
"142 681 OFFCURVE",
"142 681 QCURVE",
"142 681 OFFCURVE",
"142 681 QCURVE",
"141 681 LINE",
"141 681 OFFCURVE",
"141 681 QCURVE",
"141 681 OFFCURVE",
"141 681 QCURVE",
"139 681 LINE",
"139 681 OFFCURVE",
"139 681 QCURVE",
"139 681 OFFCURVE",
"139 681 QCURVE",
"139 681 OFFCURVE",
"139 681 QCURVE",
"139 681 OFFCURVE",
"139 681 QCURVE",
"139 681 OFFCURVE",
"139 681 QCURVE",
"139 681 OFFCURVE",
"138 681 QCURVE",
"138 681 OFFCURVE",
"138 681 QCURVE",
"138 681 OFFCURVE",
"138 681 QCURVE",
"138 681 OFFCURVE",
"138 681 QCURVE",
"138 681 OFFCURVE",
"138 681 QCURVE",
"138 681 OFFCURVE",
"138 681 QCURVE",
"137 681 LINE",
"137 681 OFFCURVE",
"137 681 QCURVE",
"137 681 OFFCURVE",
"137 681 QCURVE",
"110 681 LINE SMOOTH",
"95 681 OFFCURVE",
"95 682 QCURVE"
);
},
{
nodes = (
"132 681 OFFCURVE",
"132 681 QCURVE",
"132 681 OFFCURVE",
"132 681 QCURVE",
"132 681 OFFCURVE",
"132 681 QCURVE"
);
}
);
width = 327;
}
);
unicode = 00B4;
},
{
glyphname = paragraph;
layers = (
{
layerId = "B61A831B-AFE2-4931-A0BA-7BE9EE52F2B7";
paths = (
{
nodes = (
"689 621 LINE",
"689 539 LINE",
"601 539 LINE",
"601 -173 LINE",
"512 -173 LINE",
"512 539 LINE",
"340 539 LINE",
"340 -173 LINE",
"251 -173 LINE",
"251 232 LINE",
"201 232 OFFCURVE",
"164 238 QCURVE SMOOTH",
"124 245 OFFCURVE",
"71 283 OFFCURVE",
"46 350 OFFCURVE",
"46 404 QCURVE SMOOTH",
"46 449 LINE SMOOTH",
"46 503 OFFCURVE",
"71 570 OFFCURVE",
"124 608 OFFCURVE",
"205 621 OFFCURVE",
"260 621 QCURVE SMOOTH"
);
}
);
width = 833;
}
);
unicode = 00B6;
},
{
glyphname = periodcentered;
layers = (
{
layerId = "B61A831B-AFE2-4931-A0BA-7BE9EE52F2B7";
paths = (
{
nodes = (
"111 421 OFFCURVE",
"137 396 OFFCURVE",
"137 367 QCURVE SMOOTH",
"137 314 OFFCURVE",
"81 314 QCURVE SMOOTH",
"51 314 OFFCURVE",
"25 340 OFFCURVE",
"25 367 QCURVE SMOOTH",
"25 395 OFFCURVE",
"50 421 OFFCURVE",
"81 421 QCURVE SMOOTH"
);
}
);
width = 162;
}
);
unicode = 00B7;
},
{
glyphname = cedilla;
layers = (
{
layerId = "B61A831B-AFE2-4931-A0BA-7BE9EE52F2B7";
paths = (
{
nodes = (
"207 -35 OFFCURVE",
"207 -57 QCURVE SMOOTH",
"207 -71 OFFCURVE",
"195 -102 OFFCURVE",
"184 -113 QCURVE SMOOTH",
"163 -133 OFFCURVE",
"130 -135 OFFCURVE",
"121 -135 QCURVE SMOOTH",
"102 -135 OFFCURVE",
"81 -133 QCURVE",
"74 -109 LINE",
"79 -110 OFFCURVE",
"88 -111 OFFCURVE",
"92 -111 QCURVE SMOOTH",
"103 -111 OFFCURVE",
"118 -104 OFFCURVE",
"126 -97 QCURVE",
"139 -82 OFFCURVE",
"139 -67 QCURVE SMOOTH",
"139 -57 OFFCURVE",
"130 -46 QCURVE",
"121 -37 OFFCURVE",
"108 -37 QCURVE",
"106 -37 OFFCURVE",
"101 -38 OFFCURVE",
"99 -38 QCURVE",
"121 0 LINE",
"163 0 LINE",
"184 -6 OFFCURVE",
"195 -20 QCURVE SMOOTH"
);
}
);
width = 280;
}
);
unicode = 00B8;
},
{
glyphname = ordmasculine;
layers = (
{
layerId = "B61A831B-AFE2-4931-A0BA-7BE9EE52F2B7";
paths = (
{
nodes = (
"81 649 OFFCURVE",
"108 649 QCURVE SMOOTH",
"147 649 LINE SMOOTH",
"174 649 OFFCURVE",
"190 644 QCURVE",
"205 638 OFFCURVE",
"221 618 OFFCURVE",
"226 592 OFFCURVE",
"226 576 QCURVE SMOOTH",
"226 421 LINE SMOOTH",
"226 405 OFFCURVE",
"221 379 OFFCURVE",
"205 359 OFFCURVE",
"190 353 QCURVE",
"174 348 OFFCURVE",
"147 348 QCURVE SMOOTH",
"108 348 LINE SMOOTH",
"81 348 OFFCURVE",
"65 353 QCURVE",
"50 359 OFFCURVE",
"34 379 OFFCURVE",
"29 405 OFFCURVE",
"29 421 QCURVE SMOOTH",
"29 576 LINE SMOOTH",
"29 592 OFFCURVE",
"34 618 OFFCURVE",
"50 638 OFFCURVE",
"65 644 QCURVE"
);
},
{
nodes = (
"86 396 OFFCURVE",
"98 391 OFFCURVE",
"106 391 QCURVE SMOOTH",
"149 391 LINE SMOOTH",
"157 391 OFFCURVE",
"169 396 OFFCURVE",
"176 407 OFFCURVE",
"176 416 QCURVE SMOOTH",
"176 581 LINE SMOOTH",
"176 590 OFFCURVE",
"169 601 OFFCURVE",
"157 606 OFFCURVE",
"149 606 QCURVE SMOOTH",
"106 606 LINE SMOOTH",
"98 606 OFFCURVE",
"86 601 OFFCURVE",
"79 590 OFFCURVE",
"79 581 QCURVE SMOOTH",
"79 416 LINE SMOOTH",
"79 407 OFFCURVE",
"82 401 QCURVE"
);
}
);
width = 257;
}
);
unicode = 00BA;
},
{
glyphname = guillemotright;
layers = (
{
layerId = "B61A831B-AFE2-4931-A0BA-7BE9EE52F2B7";
paths = (
{
nodes = (
"27 217 LINE",
"92 346 LINE",
"27 473 LINE",
"107 473 LINE",
"184 346 LINE",
"107 217 LINE"
);
},
{
nodes = (
"167 217 LINE",
"232 346 LINE",
"167 473 LINE",
"247 473 LINE",
"324 346 LINE",
"247 217 LINE"
);
}
);
width = 345;
}
);
unicode = 00BB;
},
{
glyphname = questiondown;
layers = (
{
layerId = "B61A831B-AFE2-4931-A0BA-7BE9EE52F2B7";
paths = (
{
nodes = (
"160 545 OFFCURVE",
"160 598 QCURVE SMOOTH",
"160 627 OFFCURVE",
"186 651 OFFCURVE",
"216 651 QCURVE SMOOTH",
"246 651 OFFCURVE",
"272 627 OFFCURVE",
"272 598 QCURVE SMOOTH",
"272 545 OFFCURVE",
"216 545 QCURVE SMOOTH"
);
},
{
nodes = (
"272 491 LINE",
"272 435 OFFCURVE",
"252 365 OFFCURVE",
"222 323 OFFCURVE",
"186 302 OFFCURVE",
"170 294 QCURVE SMOOTH",
"153 286 OFFCURVE",
"129 270 OFFCURVE",
"127 253 QCURVE SMOOTH",
"126 245 OFFCURVE",
"125 208 OFFCURVE",
"125 190 QCURVE SMOOTH",
"125 165 OFFCURVE",
"128 121 OFFCURVE",
"131 114 QCURVE",
"134 110 OFFCURVE",
"164 107 OFFCURVE",
"183 107 QCURVE SMOOTH",
"206 107 OFFCURVE",
"246 111 OFFCURVE",
"248 115 QCURVE SMOOTH",
"250 117 OFFCURVE",
"252 132 OFFCURVE",
"253 150 OFFCURVE",
"253 159 QCURVE",
"253 159 OFFCURVE",
"253 159 QCURVE",
"253 159 OFFCURVE",
"253 159 QCURVE",
"253 159 OFFCURVE",
"253 159 QCURVE",
"253 159 OFFCURVE",
"253 159 QCURVE",
"253 159 OFFCURVE",
"253 160 QCURVE",
"253 160 OFFCURVE",
"253 160 QCURVE",
"253 160 OFFCURVE",
"253 160 QCURVE",
"253 160 OFFCURVE",
"253 160 QCURVE",
"253 160 OFFCURVE",
"253 161 QCURVE",
"253 161 OFFCURVE",
"253 161 QCURVE",
"253 161 OFFCURVE",
"253 161 QCURVE",
"253 161 OFFCURVE",
"253 161 QCURVE",
"253 161 OFFCURVE",
"253 161 QCURVE",
"253 161 OFFCURVE",
"253 161 QCURVE",
"253 162 LINE",
"253 162 OFFCURVE",
"253 162 QCURVE",
"253 162 OFFCURVE",
"253 162 QCURVE",
"253 162 OFFCURVE",
"253 162 QCURVE",
"253 162 OFFCURVE",
"253 162 QCURVE",
"253 162 OFFCURVE",
"253 163 QCURVE",
"253 163 OFFCURVE",
"253 163 QCURVE",
"253 163 OFFCURVE",
"253 163 QCURVE",
"253 163 OFFCURVE",
"253 163 QCURVE",
"253 164 LINE",
"253 164 OFFCURVE",
"253 164 QCURVE",
"253 164 OFFCURVE",
"253 164 QCURVE",
"253 164 OFFCURVE",
"253 164 QCURVE",
"253 164 OFFCURVE",
"253 164 QCURVE",
"253 164 OFFCURVE",
"253 164 QCURVE",
"253 164 OFFCURVE",
"253 164 QCURVE",
"253 164 OFFCURVE",
"253 165 QCURVE",
"253 165 OFFCURVE",
"253 165 QCURVE",
"253 165 OFFCURVE",
"253 165 QCURVE",
"253 165 OFFCURVE",
"253 165 QCURVE",
"253 165 OFFCURVE",
"253 165 QCURVE",
"253 165 OFFCURVE",
"253 165 QCURVE",
"253 165 OFFCURVE",
"253 165 QCURVE",
"253 165 OFFCURVE",
"253 165 QCURVE",
"253 165 OFFCURVE",
"253 166 QCURVE",
"253 166 OFFCURVE",
"253 166 QCURVE",
"253 169 LINE",
"253 169 OFFCURVE",
"253 169 QCURVE",
"253 169 OFFCURVE",
"253 169 QCURVE",
"253 169 OFFCURVE",
"253 169 QCURVE",
"253 170 LINE",
"366 170 LINE",
"366 125 OFFCURVE",
"348 61 OFFCURVE",
"307 19 OFFCURVE",
"239 0 OFFCURVE",
"189 0 QCURVE SMOOTH",
"139 0 OFFCURVE",
"72 19 OFFCURVE",
"31 59 OFFCURVE",
"14 121 OFFCURVE",
"14 165 QCURVE SMOOTH",
"14 235 OFFCURVE",
"30 318 OFFCURVE",
"56 362 OFFCURVE",
"88 378 OFFCURVE",
"104 382 QCURVE SMOOTH",
"114 385 OFFCURVE",
"135 393 OFFCURVE",
"150 415 OFFCURVE",
"160 456 OFFCURVE",
"160 491 QCURVE"
);
},
{
nodes = (
"253 163 OFFCURVE",
"253 163 QCURVE",
"253 163 OFFCURVE",
"253 163 QCURVE",
"253 163 OFFCURVE",
"253 163 QCURVE"
);
},
{
nodes = (
"253 160 OFFCURVE",
"253 160 QCURVE",
"253 160 OFFCURVE",
"253 160 QCURVE",
"253 160 OFFCURVE",
"253 160 QCURVE"
);
},
{
nodes = (
"253 159 OFFCURVE",
"253 159 QCURVE",
"253 159 OFFCURVE",
"253 159 QCURVE",
"253 159 OFFCURVE",
"253 159 QCURVE"
);
},
{
nodes = (
"253 166 OFFCURVE",
"253 166 QCURVE",
"253 166 OFFCURVE",
"253 166 QCURVE",
"253 166 OFFCURVE",
"253 166 QCURVE"
);
}
);
width = 380;
}
);
unicode = 00BF;
},
{
glyphname = Agrave;
layers = (
{
layerId = "B61A831B-AFE2-4931-A0BA-7BE9EE52F2B7";
paths = (
{
nodes = (
"149 683 OFFCURVE",
"129 709 OFFCURVE",
"118 724 QCURVE SMOOTH",
"104 742 OFFCURVE",
"87 764 QCURVE",
"184 764 LINE",
"244 683 LINE",
"217 682 OFFCURVE",
"196 682 QCURVE",
"178 681 OFFCURVE",
"149 681 OFFCURVE",
"149 682 QCURVE"
);
},
{
nodes = (
"246 0 LINE",
"246 128 LINE",
"119 128 LINE",
"119 0 LINE",
"8 0 LINE",
"8 139 LINE SMOOTH",
"8 207 OFFCURVE",
"16 337 OFFCURVE",
"44 464 OFFCURVE",
"99 587 OFFCURVE",
"146 649 QCURVE",
"218 649 LINE",
"266 587 OFFCURVE",
"321 463 OFFCURVE",
"350 337 OFFCURVE",
"358 207 OFFCURVE",
"358 139 QCURVE SMOOTH",
"358 0 LINE"
);
},
{
nodes = (
"245 233 LINE",
"243 266 OFFCURVE",
"234 337 OFFCURVE",
"218 407 OFFCURVE",
"196 474 OFFCURVE",
"182 504 QCURVE",
"152 441 OFFCURVE",
"122 303 OFFCURVE",
"119 233 QCURVE"
);
}
);
width = 370;
}
);
unicode = 00C0;
},
{
glyphname = Aacute;
layers = (
{
layerId = "B61A831B-AFE2-4931-A0BA-7BE9EE52F2B7";
paths = (
{
nodes = (
"131 683 OFFCURVE",
"147 709 OFFCURVE",
"157 724 QCURVE SMOOTH",
"183 764 LINE",
"280 764 LINE",
"226 682 LINE",
"199 681 OFFCURVE",
"178 681 QCURVE",
"178 681 OFFCURVE",
"178 681 QCURVE",
"178 681 OFFCURVE",
"178 681 QCURVE",
"178 681 OFFCURVE",
"178 681 QCURVE",
"178 681 OFFCURVE",
"178 681 QCURVE",
"178 681 OFFCURVE",
"178 681 QCURVE",
"178 681 OFFCURVE",
"178 681 QCURVE",
"177 681 LINE",
"177 681 OFFCURVE",
"177 681 QCURVE",
"177 681 OFFCURVE",
"177 681 QCURVE",
"177 681 OFFCURVE",
"177 681 QCURVE",
"175 681 LINE",
"175 681 OFFCURVE",
"175 681 QCURVE",
"175 681 OFFCURVE",
"175 681 QCURVE",
"175 681 OFFCURVE",
"175 681 QCURVE",
"175 681 OFFCURVE",
"175 681 QCURVE",
"175 681 OFFCURVE",
"174 681 QCURVE",
"174 681 OFFCURVE",
"174 681 QCURVE",
"174 681 OFFCURVE",
"174 681 QCURVE",
"174 681 OFFCURVE",
"174 681 QCURVE",
"174 681 OFFCURVE",
"174 681 QCURVE",
"174 681 OFFCURVE",
"174 681 QCURVE",
"173 681 LINE",
"173 681 OFFCURVE",
"173 681 QCURVE",
"173 681 OFFCURVE",
"173 681 QCURVE",
"173 681 OFFCURVE",
"173 681 QCURVE",
"168 681 LINE",
"168 681 OFFCURVE",
"168 681 QCURVE",
"168 681 OFFCURVE",
"168 681 QCURVE",
"168 681 OFFCURVE",
"168 681 QCURVE",
"162 681 LINE",
"162 681 OFFCURVE",
"162 681 QCURVE",
"162 681 OFFCURVE",
"162 681 QCURVE",
"146 681 LINE SMOOTH",
"131 681 OFFCURVE",
"131 682 QCURVE"
);
},
{
nodes = (
"246 0 LINE",
"246 128 LINE",
"119 128 LINE",
"119 0 LINE",
"8 0 LINE",
"8 139 LINE SMOOTH",
"8 207 OFFCURVE",
"16 337 OFFCURVE",
"44 464 OFFCURVE",
"99 587 OFFCURVE",
"146 649 QCURVE",
"218 649 LINE",
"266 587 OFFCURVE",
"321 463 OFFCURVE",
"350 337 OFFCURVE",
"358 207 OFFCURVE",
"358 139 QCURVE SMOOTH",
"358 0 LINE"
);
},
{
nodes = (
"245 233 LINE",
"243 266 OFFCURVE",
"234 337 OFFCURVE",
"218 407 OFFCURVE",
"196 474 OFFCURVE",
"182 504 QCURVE",
"152 441 OFFCURVE",
"122 303 OFFCURVE",
"119 233 QCURVE"
);
}
);
width = 370;
}
);
unicode = 00C1;
},
{
glyphname = Acircumflex;
layers = (
{
layerId = "B61A831B-AFE2-4931-A0BA-7BE9EE52F2B7";
paths = (
{
nodes = (
"109 774 LINE",
"269 774 LINE",
"330 680 LINE",
"226 680 LINE",
"184 736 LINE",
"145 679 LINE",
"49 679 LINE"
);
},
{
nodes = (
"246 0 LINE",
"246 128 LINE",
"119 128 LINE",
"119 0 LINE",
"8 0 LINE",
"8 139 LINE SMOOTH",
"8 207 OFFCURVE",
"16 337 OFFCURVE",
"44 464 OFFCURVE",
"99 587 OFFCURVE",
"146 649 QCURVE",
"218 649 LINE",
"266 587 OFFCURVE",
"321 463 OFFCURVE",
"350 337 OFFCURVE",
"358 207 OFFCURVE",
"358 139 QCURVE SMOOTH",
"358 0 LINE"
);
},
{
nodes = (
"245 233 LINE",
"243 266 OFFCURVE",
"234 337 OFFCURVE",
"218 407 OFFCURVE",
"196 474 OFFCURVE",
"182 504 QCURVE",
"152 441 OFFCURVE",
"122 303 OFFCURVE",
"119 233 QCURVE"
);
}
);
width = 370;
}
);
unicode = 00C2;
},
{
glyphname = Atilde;
layers = (
{
layerId = "B61A831B-AFE2-4931-A0BA-7BE9EE52F2B7";
paths = (
{
nodes = (
"339 723 LINE",
"335 718 LINE SMOOTH",
"304 681 OFFCURVE",
"268 672 QCURVE SMOOTH",
"263 671 OFFCURVE",
"258 671 QCURVE",
"258 671 OFFCURVE",
"258 671 QCURVE",
"258 671 OFFCURVE",
"258 671 QCURVE",
"258 671 OFFCURVE",
"258 671 QCURVE",
"257 671 LINE",
"257 671 OFFCURVE",
"257 671 QCURVE",
"257 671 OFFCURVE",
"257 671 QCURVE",
"257 671 OFFCURVE",
"257 671 QCURVE",
"257 671 OFFCURVE",
"257 671 QCURVE",
"257 671 OFFCURVE",
"257 671 QCURVE",
"257 671 OFFCURVE",
"257 671 QCURVE",
"256 671 LINE",
"256 671 OFFCURVE",
"256 671 QCURVE",
"256 671 OFFCURVE",
"256 671 QCURVE",
"249 671 LINE SMOOTH",
"212 671 OFFCURVE",
"169 700 QCURVE",
"163 703 OFFCURVE",
"152 708 OFFCURVE",
"146 708 QCURVE SMOOTH",
"138 708 OFFCURVE",
"124 703 OFFCURVE",
"118 700 QCURVE",
"111 695 OFFCURVE",
"107 691 QCURVE SMOOTH",
"86 669 LINE",
"41 709 LINE",
"44 715 LINE",
"46 717 OFFCURVE",
"69 744 OFFCURVE",
"89 755 QCURVE",
"116 773 OFFCURVE",
"146 773 QCURVE SMOOTH",
"174 773 OFFCURVE",
"201 755 QCURVE SMOOTH",
"229 736 OFFCURVE",
"249 736 QCURVE SMOOTH",
"253 736 OFFCURVE",
"257 737 QCURVE SMOOTH",
"275 742 OFFCURVE",
"290 762 QCURVE",
"293 767 LINE"
);
},
{
nodes = (
"246 0 LINE",
"246 128 LINE",
"119 128 LINE",
"119 0 LINE",
"8 0 LINE",
"8 139 LINE SMOOTH",
"8 207 OFFCURVE",
"16 337 OFFCURVE",
"44 464 OFFCURVE",
"99 587 OFFCURVE",
"146 649 QCURVE",
"218 649 LINE",
"266 587 OFFCURVE",
"321 463 OFFCURVE",
"350 337 OFFCURVE",
"358 207 OFFCURVE",
"358 139 QCURVE SMOOTH",
"358 0 LINE"
);
},
{
nodes = (
"245 233 LINE",
"243 266 OFFCURVE",
"234 337 OFFCURVE",
"218 407 OFFCURVE",
"196 474 OFFCURVE",
"182 504 QCURVE",
"152 441 OFFCURVE",
"122 303 OFFCURVE",
"119 233 QCURVE"
);
}
);
width = 370;
}
);
unicode = 00C3;
},
{
glyphname = Adieresis;
layers = (
{
layerId = "B61A831B-AFE2-4931-A0BA-7BE9EE52F2B7";
paths = (
{
nodes = (
"59 764 LINE",
"153 765 LINE",
"154 683 LINE",
"127 682 OFFCURVE",
"106 682 QCURVE SMOOTH",
"103 682 LINE",
"103 682 OFFCURVE",
"103 682 QCURVE",
"103 682 OFFCURVE",
"103 682 QCURVE",
"103 682 OFFCURVE",
"102 682 QCURVE",
"102 682 OFFCURVE",
"102 682 QCURVE",
"102 682 OFFCURVE",
"102 682 QCURVE",
"102 682 OFFCURVE",
"102 682 QCURVE",
"102 682 OFFCURVE",
"102 682 QCURVE",
"102 682 OFFCURVE",
"102 682 QCURVE",
"102 682 OFFCURVE",
"102 682 QCURVE",
"102 682 OFFCURVE",
"102 682 QCURVE",
"102 682 OFFCURVE",
"102 682 QCURVE",
"102 682 OFFCURVE",
"102 682 QCURVE",
"102 682 OFFCURVE",
"102 682 QCURVE",
"102 682 OFFCURVE",
"102 682 QCURVE",
"101 682 LINE",
"101 682 OFFCURVE",
"101 682 QCURVE",
"101 682 OFFCURVE",
"101 682 QCURVE",
"98 682 LINE",
"98 682 OFFCURVE",
"98 682 QCURVE",
"98 682 OFFCURVE",
"98 682 QCURVE",
"96 682 LINE",
"96 682 OFFCURVE",
"96 682 QCURVE",
"96 682 OFFCURVE",
"96 682 QCURVE",
"96 682 OFFCURVE",
"96 682 QCURVE",
"94 682 LINE",
"94 682 OFFCURVE",
"94 682 QCURVE",
"94 682 OFFCURVE",
"94 682 QCURVE",
"94 682 OFFCURVE",
"94 682 QCURVE",
"92 682 LINE",
"92 682 OFFCURVE",
"92 682 QCURVE",
"92 682 OFFCURVE",
"92 682 QCURVE",
"92 682 OFFCURVE",
"92 682 QCURVE",
"90 682 LINE",
"90 682 OFFCURVE",
"90 682 QCURVE",
"90 682 OFFCURVE",
"90 682 QCURVE",
"90 682 OFFCURVE",
"90 682 QCURVE",
"90 682 OFFCURVE",
"90 682 QCURVE",
"90 682 OFFCURVE",
"90 682 QCURVE",
"90 682 OFFCURVE",
"90 682 QCURVE",
"90 682 OFFCURVE",
"90 682 QCURVE",
"90 682 OFFCURVE",
"90 682 QCURVE",
"90 682 OFFCURVE",
"90 682 QCURVE",
"89 682 LINE",
"89 682 OFFCURVE",
"89 682 QCURVE",
"89 682 OFFCURVE",
"89 682 QCURVE",
"89 682 OFFCURVE",
"89 682 QCURVE",
"74 682 LINE SMOOTH",
"59 682 OFFCURVE",
"59 683 QCURVE"
);
},
{
nodes = (
"101 682 OFFCURVE",
"101 682 QCURVE",
"101 682 OFFCURVE",
"101 682 QCURVE"
);
},
{
nodes = (
"246 0 LINE",
"246 128 LINE",
"119 128 LINE",
"119 0 LINE",
"8 0 LINE",
"8 139 LINE SMOOTH",
"8 207 OFFCURVE",
"16 337 OFFCURVE",
"44 464 OFFCURVE",
"99 587 OFFCURVE",
"146 649 QCURVE",
"218 649 LINE",
"266 587 OFFCURVE",
"321 463 OFFCURVE",
"350 337 OFFCURVE",
"358 207 OFFCURVE",
"358 139 QCURVE SMOOTH",
"358 0 LINE"
);
},
{
nodes = (
"245 233 LINE",
"243 266 OFFCURVE",
"234 337 OFFCURVE",
"218 407 OFFCURVE",
"196 474 OFFCURVE",
"182 504 QCURVE",
"152 441 OFFCURVE",
"122 303 OFFCURVE",
"119 233 QCURVE"
);
},
{
nodes = (
"212 766 LINE",
"308 766 LINE",
"308 685 LINE",
"281 684 OFFCURVE",
"260 684 QCURVE SMOOTH",
"257 684 LINE",
"257 684 OFFCURVE",
"257 684 QCURVE",
"257 684 OFFCURVE",
"257 684 QCURVE",
"257 684 OFFCURVE",
"256 684 QCURVE",
"256 684 OFFCURVE",
"256 684 QCURVE",
"256 684 OFFCURVE",
"256 684 QCURVE",
"256 684 OFFCURVE",
"256 684 QCURVE",
"256 684 OFFCURVE",
"256 684 QCURVE",
"256 684 OFFCURVE",
"256 684 QCURVE",
"256 684 OFFCURVE",
"256 684 QCURVE",
"256 684 OFFCURVE",
"256 684 QCURVE",
"256 684 OFFCURVE",
"255 684 QCURVE",
"255 684 OFFCURVE",
"255 684 QCURVE",
"254 684 LINE",
"254 684 OFFCURVE",
"254 684 QCURVE",
"254 684 OFFCURVE",
"254 684 QCURVE",
"254 684 OFFCURVE",
"253 684 QCURVE",
"253 684 OFFCURVE",
"253 684 QCURVE",
"253 684 OFFCURVE",
"253 684 QCURVE",
"253 684 OFFCURVE",
"253 684 QCURVE",
"252 684 LINE",
"252 684 OFFCURVE",
"252 684 QCURVE",
"252 684 OFFCURVE",
"252 684 QCURVE",
"252 684 OFFCURVE",
"252 684 QCURVE",
"252 684 OFFCURVE",
"252 684 QCURVE",
"252 684 OFFCURVE",
"252 684 QCURVE",
"252 684 OFFCURVE",
"252 684 QCURVE",
"252 684 OFFCURVE",
"252 684 QCURVE",
"252 684 OFFCURVE",
"251 684 QCURVE",
"251 684 OFFCURVE",
"251 684 QCURVE",
"251 684 OFFCURVE",
"251 684 QCURVE",
"251 684 OFFCURVE",
"251 684 QCURVE",
"251 684 OFFCURVE",
"251 684 QCURVE",
"250 684 LINE",
"250 684 OFFCURVE",
"250 684 QCURVE",
"250 684 OFFCURVE",
"250 684 QCURVE",
"250 684 OFFCURVE",
"250 684 QCURVE",
"250 684 OFFCURVE",
"250 684 QCURVE",
"250 684 OFFCURVE",
"250 684 QCURVE",
"250 684 OFFCURVE",
"250 684 QCURVE",
"250 684 OFFCURVE",
"250 684 QCURVE",
"250 684 OFFCURVE",
"249 684 QCURVE",
"249 684 OFFCURVE",
"249 684 QCURVE",
"249 684 OFFCURVE",
"249 684 QCURVE",
"249 684 OFFCURVE",
"249 684 QCURVE",
"249 684 OFFCURVE",
"249 684 QCURVE",
"248 684 LINE",
"248 684 OFFCURVE",
"248 684 QCURVE",
"248 684 OFFCURVE",
"248 684 QCURVE",
"248 684 OFFCURVE",
"248 684 QCURVE",
"248 684 OFFCURVE",
"248 684 QCURVE",
"248 684 OFFCURVE",
"248 684 QCURVE",
"248 684 OFFCURVE",
"247 684 QCURVE",
"247 684 OFFCURVE",
"247 684 QCURVE",
"247 684 OFFCURVE",
"247 684 QCURVE",
"244 684 LINE",
"244 684 OFFCURVE",
"244 684 QCURVE",
"244 684 OFFCURVE",
"244 684 QCURVE",
"244 684 OFFCURVE",
"244 684 QCURVE",
"244 684 OFFCURVE",
"244 684 QCURVE",
"244 684 OFFCURVE",
"244 684 QCURVE",
"244 684 OFFCURVE",
"244 684 QCURVE",
"244 684 OFFCURVE",
"244 684 QCURVE",
"244 684 OFFCURVE",
"243 684 QCURVE",
"243 684 OFFCURVE",
"243 684 QCURVE",
"243 684 OFFCURVE",
"243 684 QCURVE",
"243 684 OFFCURVE",
"243 684 QCURVE",
"243 684 OFFCURVE",
"243 684 QCURVE",
"231 684 LINE",
"231 684 OFFCURVE",
"231 684 QCURVE",
"231 684 OFFCURVE",
"231 684 QCURVE",
"231 684 OFFCURVE",
"231 684 QCURVE",
"231 684 OFFCURVE",
"231 684 QCURVE",
"231 684 OFFCURVE",
"231 684 QCURVE",
"231 684 OFFCURVE",
"231 684 QCURVE",
"231 684 OFFCURVE",
"230 684 QCURVE",
"230 684 OFFCURVE",
"230 684 QCURVE",
"227 684 LINE SMOOTH",
"212 684 OFFCURVE",
"212 685 QCURVE"
);
}
);
width = 370;
}
);
unicode = 00C4;
},
{
glyphname = Aring;
layers = (
{
layerId = "B61A831B-AFE2-4931-A0BA-7BE9EE52F2B7";
paths = (
{
nodes = (
"149 671 OFFCURVE",
"106 715 OFFCURVE",
"106 744 QCURVE SMOOTH",
"106 776 OFFCURVE",
"149 820 OFFCURVE",
"181 820 QCURVE SMOOTH",
"213 820 OFFCURVE",
"255 776 OFFCURVE",
"255 744 QCURVE SMOOTH",
"255 715 OFFCURVE",
"213 671 OFFCURVE",
"181 671 QCURVE SMOOTH"
);
},
{
nodes = (
"170 765 OFFCURVE",
"157 752 OFFCURVE",
"157 743 QCURVE SMOOTH",
"157 734 OFFCURVE",
"170 722 OFFCURVE",
"181 722 QCURVE SMOOTH",
"189 722 OFFCURVE",
"204 734 OFFCURVE",
"204 743 QCURVE SMOOTH",
"204 752 OFFCURVE",
"189 765 OFFCURVE",
"181 765 QCURVE SMOOTH"
);
},
{
nodes = (
"246 0 LINE",
"246 128 LINE",
"119 128 LINE",
"119 0 LINE",
"8 0 LINE",
"8 139 LINE SMOOTH",
"8 207 OFFCURVE",
"16 337 OFFCURVE",
"44 464 OFFCURVE",
"99 587 OFFCURVE",
"146 649 QCURVE",
"218 649 LINE",
"266 587 OFFCURVE",
"321 463 OFFCURVE",
"350 337 OFFCURVE",
"358 207 OFFCURVE",
"358 139 QCURVE SMOOTH",
"358 0 LINE"
);
},
{
nodes = (
"245 233 LINE",
"243 266 OFFCURVE",
"234 337 OFFCURVE",
"218 407 OFFCURVE",
"196 474 OFFCURVE",
"182 504 QCURVE",
"152 441 OFFCURVE",
"122 303 OFFCURVE",
"119 233 QCURVE"
);
}
);
width = 371;
}
);
unicode = 00C5;
},
{
glyphname = AE;
layers = (
{
layerId = "B61A831B-AFE2-4931-A0BA-7BE9EE52F2B7";
paths = (
{
nodes = (
"369 544 LINE",
"369 393 LINE",
"513 393 LINE",
"513 287 LINE",
"369 287 LINE",
"369 106 LINE",
"573 106 LINE",
"573 0 LINE",
"257 0 LINE",
"257 128 LINE",
"137 128 LINE",
"137 0 LINE",
"26 0 LINE",
"26 139 LINE SMOOTH",
"26 207 OFFCURVE",
"40 340 OFFCURVE",
"77 468 OFFCURVE",
"139 590 OFFCURVE",
"187 649 QCURVE",
"573 649 LINE",
"573 544 LINE"
);
},
{
nodes = (
"257 233 LINE",
"257 557 LINE",
"237 529 OFFCURVE",
"196 474 OFFCURVE",
"162 402 OFFCURVE",
"139 304 OFFCURVE",
"137 233 QCURVE"
);
}
);
width = 597;
}
);
unicode = 00C6;
},
{
glyphname = Ccedilla;
layers = (
{
layerId = "B61A831B-AFE2-4931-A0BA-7BE9EE52F2B7";
paths = (
{
nodes = (
"268 202 LINE",
"379 202 LINE",
"379 154 OFFCURVE",
"369 78 OFFCURVE",
"337 27 OFFCURVE",
"275 0 OFFCURVE",
"223 0 QCURVE SMOOTH",
"219 0 LINE",
"245 -6 OFFCURVE",
"259 -21 QCURVE SMOOTH",
"273 -37 OFFCURVE",
"273 -58 QCURVE SMOOTH",
"273 -72 OFFCURVE",
"260 -103 OFFCURVE",
"247 -114 QCURVE SMOOTH",
"223 -134 OFFCURVE",
"184 -136 OFFCURVE",
"174 -136 QCURVE SMOOTH",
"153 -136 OFFCURVE",
"129 -134 QCURVE",
"121 -110 LINE",
"127 -111 OFFCURVE",
"137 -112 OFFCURVE",
"142 -112 QCURVE SMOOTH",
"163 -112 OFFCURVE",
"180 -98 QCURVE SMOOTH",
"195 -85 OFFCURVE",
"195 -68 QCURVE SMOOTH",
"195 -57 OFFCURVE",
"185 -47 QCURVE",
"174 -38 OFFCURVE",
"160 -38 QCURVE",
"158 -38 OFFCURVE",
"152 -39 OFFCURVE",
"149 -39 QCURVE",
"176 1 LINE",
"176 1 OFFCURVE",
"176 1 QCURVE",
"176 1 OFFCURVE",
"176 1 QCURVE",
"176 1 OFFCURVE",
"176 1 QCURVE",
"176 1 OFFCURVE",
"175 1 QCURVE",
"175 1 OFFCURVE",
"175 1 QCURVE",
"175 1 OFFCURVE",
"175 1 QCURVE",
"175 1 OFFCURVE",
"175 1 QCURVE",
"175 1 OFFCURVE",
"175 1 QCURVE",
"175 1 OFFCURVE",
"175 1 QCURVE",
"175 1 OFFCURVE",
"175 1 QCURVE",
"175 1 OFFCURVE",
"175 1 QCURVE",
"175 1 OFFCURVE",
"175 1 QCURVE",
"175 1 OFFCURVE",
"175 1 QCURVE",
"175 1 OFFCURVE",
"175 1 QCURVE",
"175 1 OFFCURVE",
"175 1 QCURVE",
"174 1 LINE",
"174 1 OFFCURVE",
"174 1 QCURVE",
"174 1 OFFCURVE",
"174 1 QCURVE",
"173 1 LINE",
"103 1 OFFCURVE",
"29 83 OFFCURVE",
"29 165 QCURVE SMOOTH",
"29 484 LINE SMOOTH",
"29 527 OFFCURVE",
"47 590 OFFCURVE",
"87 630 OFFCURVE",
"154 649 OFFCURVE",
"204 649 QCURVE SMOOTH",
"253 649 OFFCURVE",
"321 630 OFFCURVE",
"361 588 OFFCURVE",
"379 524 OFFCURVE",
"379 479 QCURVE",
"268 479 LINE",
"268 501 OFFCURVE",
"266 527 OFFCURVE",
"254 540 OFFCURVE",
"228 543 OFFCURVE",
"204 543 QCURVE SMOOTH",
"180 543 OFFCURVE",
"154 541 OFFCURVE",
"143 529 OFFCURVE",
"141 505 OFFCURVE",
"141 484 QCURVE SMOOTH",
"141 288 LINE",
"141 288 OFFCURVE",
"141 288 QCURVE",
"141 288 OFFCURVE",
"141 287 QCURVE",
"141 287 OFFCURVE",
"141 287 QCURVE",
"141 287 OFFCURVE",
"141 287 QCURVE",
"141 287 OFFCURVE",
"141 287 QCURVE",
"141 287 OFFCURVE",
"141 287 QCURVE",
"141 286 LINE",
"141 286 OFFCURVE",
"141 286 QCURVE",
"141 286 OFFCURVE",
"141 286 QCURVE",
"141 286 OFFCURVE",
"141 286 QCURVE",
"141 286 OFFCURVE",
"141 286 QCURVE",
"141 286 OFFCURVE",
"141 286 QCURVE",
"141 286 OFFCURVE",
"141 286 QCURVE",
"141 285 LINE",
"141 285 OFFCURVE",
"141 285 QCURVE",
"141 285 OFFCURVE",
"141 285 QCURVE",
"141 285 OFFCURVE",
"141 285 QCURVE",
"141 285 OFFCURVE",
"141 285 QCURVE",
"141 285 OFFCURVE",
"141 285 QCURVE",
"141 285 OFFCURVE",
"141 285 QCURVE",
"141 277 LINE",
"141 277 OFFCURVE",
"141 277 QCURVE",
"141 277 OFFCURVE",
"141 277 QCURVE",
"141 277 OFFCURVE",
"141 277 QCURVE",
"141 277 OFFCURVE",
"141 277 QCURVE",
"141 277 OFFCURVE",
"141 277 QCURVE",
"141 277 OFFCURVE",
"141 277 QCURVE",
"141 273 LINE",
"141 273 OFFCURVE",
"141 273 QCURVE",
"141 273 OFFCURVE",
"141 273 QCURVE",
"141 273 OFFCURVE",
"141 273 QCURVE",
"141 273 OFFCURVE",
"141 273 QCURVE",
"141 273 OFFCURVE",
"141 273 QCURVE",
"141 273 OFFCURVE",
"141 273 QCURVE",
"141 269 LINE",
"141 269 OFFCURVE",
"141 269 QCURVE",
"141 269 OFFCURVE",
"141 269 QCURVE",
"141 269 OFFCURVE",
"141 269 QCURVE",
"141 269 OFFCURVE",
"141 269 QCURVE",
"141 269 OFFCURVE",
"141 269 QCURVE",
"141 269 OFFCURVE",
"141 269 QCURVE",
"141 265 LINE",
"141 265 OFFCURVE",
"141 265 QCURVE",
"141 265 OFFCURVE",
"141 265 QCURVE",
"141 265 OFFCURVE",
"141 265 QCURVE",
"141 265 OFFCURVE",
"141 265 QCURVE",
"141 265 OFFCURVE",
"141 265 QCURVE",
"141 265 OFFCURVE",
"141 265 QCURVE",
"141 261 LINE",
"141 261 OFFCURVE",
"141 261 QCURVE",
"141 261 OFFCURVE",
"141 261 QCURVE",
"141 261 OFFCURVE",
"141 261 QCURVE",
"141 261 OFFCURVE",
"141 261 QCURVE",
"141 261 OFFCURVE",
"141 261 QCURVE",
"141 261 OFFCURVE",
"141 261 QCURVE",
"141 224 LINE SMOOTH",
"141 188 OFFCURVE",
"142 143 QCURVE",
"144 126 OFFCURVE",
"187 110 OFFCURVE",
"212 110 QCURVE SMOOTH",
"240 110 OFFCURVE",
"257 117 QCURVE",
"265 119 OFFCURVE",
"270 145 OFFCURVE",
"270 159 QCURVE SMOOTH",
"270 167 OFFCURVE",
"269 182 OFFCURVE",
"268 188 QCURVE"
);
},
{
nodes = (
"141 286 OFFCURVE",
"141 286 QCURVE",
"141 286 OFFCURVE",
"141 286 QCURVE",
"141 286 OFFCURVE",
"141 286 QCURVE"
);
},
{
nodes = (
"176 1 OFFCURVE",
"176 1 QCURVE",
"176 1 OFFCURVE",
"176 1 QCURVE",
"176 1 OFFCURVE",
"176 1 QCURVE"
);
}
);
width = 405;
}
);
unicode = 00C7;
},
{
glyphname = Egrave;
layers = (
{
layerId = "B61A831B-AFE2-4931-A0BA-7BE9EE52F2B7";
paths = (
{
nodes = (
"149 683 OFFCURVE",
"129 709 OFFCURVE",
"118 724 QCURVE SMOOTH",
"104 742 OFFCURVE",
"87 764 QCURVE",
"184 764 LINE",
"244 683 LINE",
"217 682 OFFCURVE",
"196 682 QCURVE",
"178 681 OFFCURVE",
"149 681 OFFCURVE",
"149 682 QCURVE"
);
},
{
nodes = (
"345 0 LINE",
"29 0 LINE",
"29 649 LINE",
"345 649 LINE",
"345 544 LINE",
"141 544 LINE",
"141 393 LINE",
"285 393 LINE",
"285 287 LINE",
"141 287 LINE",
"141 106 LINE",
"345 106 LINE"
);
}
);
width = 374;
}
);
unicode = 00C8;
},
{
glyphname = Eacute;
layers = (
{
layerId = "B61A831B-AFE2-4931-A0BA-7BE9EE52F2B7";
paths = (
{
nodes = (
"131 683 OFFCURVE",
"147 709 OFFCURVE",
"157 724 QCURVE SMOOTH",
"183 764 LINE",
"280 764 LINE",
"226 683 LINE",
"199 682 OFFCURVE",
"178 682 QCURVE",
"160 681 OFFCURVE",
"131 681 OFFCURVE",
"131 682 QCURVE"
);
},
{
nodes = (
"345 0 LINE",
"29 0 LINE",
"29 649 LINE",
"345 649 LINE",
"345 544 LINE",
"141 544 LINE",
"141 393 LINE",
"285 393 LINE",
"285 287 LINE",
"141 287 LINE",
"141 106 LINE",
"345 106 LINE"
);
}
);
width = 374;
}
);
unicode = 00C9;
},
{
glyphname = Ecircumflex;
layers = (
{
layerId = "B61A831B-AFE2-4931-A0BA-7BE9EE52F2B7";
paths = (
{
nodes = (
"345 0 LINE",
"29 0 LINE",
"29 649 LINE",
"345 649 LINE",
"345 544 LINE",
"141 544 LINE",
"141 393 LINE",
"285 393 LINE",
"285 287 LINE",
"141 287 LINE",
"141 106 LINE",
"345 106 LINE"
);
},
{
nodes = (
"99 775 LINE",
"270 776 LINE",
"330 684 LINE",
"226 684 LINE",
"184 738 LINE",
"145 684 LINE",
"41 684 LINE"
);
}
);
width = 374;
}
);
unicode = 00CA;
},
{
glyphname = Edieresis;
layers = (
{
layerId = "B61A831B-AFE2-4931-A0BA-7BE9EE52F2B7";
paths = (
{
nodes = (
"59 764 LINE",
"155 764 LINE",
"154 683 LINE",
"127 682 OFFCURVE",
"106 682 QCURVE",
"88 681 OFFCURVE",
"59 681 OFFCURVE",
"59 682 QCURVE"
);
},
{
nodes = (
"345 0 LINE",
"29 0 LINE",
"29 649 LINE",
"345 649 LINE",
"345 544 LINE",
"141 544 LINE",
"141 393 LINE",
"285 393 LINE",
"285 287 LINE",
"141 287 LINE",
"141 106 LINE",
"345 106 LINE"
);
},
{
nodes = (
"215 766 LINE",
"311 766 LINE",
"310 685 LINE",
"283 684 OFFCURVE",
"262 684 QCURVE SMOOTH",
"259 684 LINE",
"259 684 OFFCURVE",
"259 684 QCURVE",
"259 684 OFFCURVE",
"259 684 QCURVE",
"259 684 OFFCURVE",
"258 684 QCURVE",
"258 684 OFFCURVE",
"258 684 QCURVE",
"258 684 OFFCURVE",
"258 684 QCURVE",
"258 684 OFFCURVE",
"258 684 QCURVE",
"258 684 OFFCURVE",
"258 684 QCURVE",
"258 684 OFFCURVE",
"258 684 QCURVE",
"258 684 OFFCURVE",
"258 684 QCURVE",
"258 684 OFFCURVE",
"258 684 QCURVE",
"258 684 OFFCURVE",
"257 684 QCURVE",
"257 684 OFFCURVE",
"257 684 QCURVE",
"257 684 OFFCURVE",
"257 684 QCURVE",
"257 684 OFFCURVE",
"257 684 QCURVE",
"256 684 LINE",
"256 684 OFFCURVE",
"256 684 QCURVE",
"256 684 OFFCURVE",
"256 684 QCURVE",
"256 684 OFFCURVE",
"255 684 QCURVE",
"255 684 OFFCURVE",
"255 684 QCURVE",
"255 684 OFFCURVE",
"255 684 QCURVE",
"255 684 OFFCURVE",
"255 684 QCURVE",
"254 684 LINE",
"254 684 OFFCURVE",
"254 684 QCURVE",
"254 684 OFFCURVE",
"254 684 QCURVE",
"254 684 OFFCURVE",
"254 684 QCURVE",
"254 684 OFFCURVE",
"254 684 QCURVE",
"254 684 OFFCURVE",
"254 684 QCURVE",
"254 684 OFFCURVE",
"254 684 QCURVE",
"254 684 OFFCURVE",
"253 684 QCURVE",
"253 684 OFFCURVE",
"253 684 QCURVE",
"253 684 OFFCURVE",
"253 684 QCURVE",
"253 684 OFFCURVE",
"253 684 QCURVE",
"252 684 LINE",
"252 684 OFFCURVE",
"252 684 QCURVE",
"252 684 OFFCURVE",
"252 684 QCURVE",
"252 684 OFFCURVE",
"252 684 QCURVE",
"252 684 OFFCURVE",
"252 684 QCURVE",
"252 684 OFFCURVE",
"252 684 QCURVE",
"252 684 OFFCURVE",
"252 684 QCURVE",
"252 684 OFFCURVE",
"252 684 QCURVE",
"252 684 OFFCURVE",
"251 684 QCURVE",
"251 684 OFFCURVE",
"251 684 QCURVE",
"251 684 OFFCURVE",
"251 684 QCURVE",
"251 684 OFFCURVE",
"251 684 QCURVE",
"251 684 OFFCURVE",
"251 684 QCURVE",
"250 684 LINE",
"250 684 OFFCURVE",
"250 684 QCURVE",
"250 684 OFFCURVE",
"250 684 QCURVE",
"250 684 OFFCURVE",
"250 684 QCURVE",
"250 684 OFFCURVE",
"250 684 QCURVE",
"250 684 OFFCURVE",
"250 684 QCURVE",
"250 684 OFFCURVE",
"250 684 QCURVE",
"250 684 OFFCURVE",
"250 684 QCURVE",
"250 684 OFFCURVE",
"249 684 QCURVE",
"249 684 OFFCURVE",
"249 684 QCURVE",
"249 684 OFFCURVE",
"249 684 QCURVE",
"249 684 OFFCURVE",
"249 684 QCURVE",
"249 684 OFFCURVE",
"249 684 QCURVE",
"246 684 LINE",
"246 684 OFFCURVE",
"246 684 QCURVE",
"246 684 OFFCURVE",
"246 684 QCURVE",
"246 684 OFFCURVE",
"246 684 QCURVE",
"246 684 OFFCURVE",
"246 684 QCURVE",
"246 684 OFFCURVE",
"246 684 QCURVE",
"246 684 OFFCURVE",
"246 684 QCURVE",
"246 684 OFFCURVE",
"246 684 QCURVE",
"246 684 OFFCURVE",
"245 684 QCURVE",
"245 684 OFFCURVE",
"245 684 QCURVE",
"245 684 OFFCURVE",
"245 684 QCURVE",
"245 684 OFFCURVE",
"245 684 QCURVE",
"245 684 OFFCURVE",
"245 684 QCURVE",
"234 684 LINE",
"234 684 OFFCURVE",
"234 684 QCURVE",
"234 684 OFFCURVE",
"234 684 QCURVE",
"234 684 OFFCURVE",
"234 684 QCURVE",
"234 684 OFFCURVE",
"234 684 QCURVE",
"234 684 OFFCURVE",
"234 684 QCURVE",
"234 684 OFFCURVE",
"234 684 QCURVE",
"234 684 OFFCURVE",
"233 684 QCURVE",
"233 684 OFFCURVE",
"233 684 QCURVE",
"233 684 OFFCURVE",
"233 684 QCURVE",
"233 684 OFFCURVE",
"233 684 QCURVE",
"230 684 LINE SMOOTH",
"215 684 OFFCURVE",
"215 685 QCURVE"
);
}
);
width = 374;
}
);
unicode = 00CB;
},
{
glyphname = Igrave;
layers = (
{
layerId = "B61A831B-AFE2-4931-A0BA-7BE9EE52F2B7";
paths = (
{
nodes = (
"53 683 OFFCURVE",
"33 709 OFFCURVE",
"22 724 QCURVE SMOOTH",
"8 742 OFFCURVE",
"-9 764 QCURVE",
"88 764 LINE",
"148 683 LINE",
"121 682 OFFCURVE",
"100 682 QCURVE",
"82 681 OFFCURVE",
"53 681 OFFCURVE",
"53 682 QCURVE"
);
},
{
nodes = (
"28 647 LINE",
"141 647 LINE",
"141 0 LINE",
"28 0 LINE"
);
}
);
width = 169;
}
);
unicode = 00CC;
},
{
glyphname = Iacute;
layers = (
{
layerId = "B61A831B-AFE2-4931-A0BA-7BE9EE52F2B7";
paths = (
{
nodes = (
"32 683 OFFCURVE",
"48 709 OFFCURVE",
"58 724 QCURVE SMOOTH",
"84 764 LINE",
"181 764 LINE",
"127 683 LINE",
"100 682 OFFCURVE",
"79 682 QCURVE",
"61 681 OFFCURVE",
"32 681 OFFCURVE",
"32 682 QCURVE"
);
},
{
nodes = (
"28 647 LINE",
"141 647 LINE",
"141 0 LINE",
"28 0 LINE"
);
}
);
width = 169;
}
);
unicode = 00CD;
},
{
glyphname = Icircumflex;
layers = (
{
layerId = "B61A831B-AFE2-4931-A0BA-7BE9EE52F2B7";
paths = (
{
nodes = (
"28 647 LINE",
"141 647 LINE",
"141 0 LINE",
"28 0 LINE"
);
},
{
nodes = (
"2 772 LINE",
"173 774 LINE",
"233 682 LINE",
"129 682 LINE",
"87 736 LINE",
"48 678 LINE",
"-56 678 LINE"
);
}
);
width = 169;
}
);
unicode = 00CE;
},
{
glyphname = Idieresis;
layers = (
{
layerId = "B61A831B-AFE2-4931-A0BA-7BE9EE52F2B7";
paths = (
{
nodes = (
"111 766 LINE",
"207 766 LINE",
"206 685 LINE",
"179 684 OFFCURVE",
"158 684 QCURVE SMOOTH",
"155 684 LINE",
"155 684 OFFCURVE",
"155 684 QCURVE",
"155 684 OFFCURVE",
"155 684 QCURVE",
"155 684 OFFCURVE",
"154 684 QCURVE",
"154 684 OFFCURVE",
"154 684 QCURVE",
"154 684 OFFCURVE",
"154 684 QCURVE",
"154 684 OFFCURVE",
"154 684 QCURVE",
"154 684 OFFCURVE",
"154 684 QCURVE",
"154 684 OFFCURVE",
"154 684 QCURVE",
"154 684 OFFCURVE",
"154 684 QCURVE",
"154 684 OFFCURVE",
"154 684 QCURVE",
"154 684 OFFCURVE",
"153 684 QCURVE",
"153 684 OFFCURVE",
"153 684 QCURVE",
"152 684 LINE",
"152 684 OFFCURVE",
"152 684 QCURVE",
"152 684 OFFCURVE",
"152 684 QCURVE",
"152 684 OFFCURVE",
"151 684 QCURVE",
"151 684 OFFCURVE",
"151 684 QCURVE",
"151 684 OFFCURVE",
"151 684 QCURVE",
"151 684 OFFCURVE",
"151 684 QCURVE",
"150 684 LINE",
"150 684 OFFCURVE",
"150 684 QCURVE",
"150 684 OFFCURVE",
"150 684 QCURVE",
"150 684 OFFCURVE",
"150 684 QCURVE",
"150 684 OFFCURVE",
"150 684 QCURVE",
"150 684 OFFCURVE",
"150 684 QCURVE",
"150 684 OFFCURVE",
"150 684 QCURVE",
"150 684 OFFCURVE",
"150 684 QCURVE",
"150 684 OFFCURVE",
"149 684 QCURVE",
"149 684 OFFCURVE",
"149 684 QCURVE",
"149 684 OFFCURVE",
"149 684 QCURVE",
"149 684 OFFCURVE",
"149 684 QCURVE",
"149 684 OFFCURVE",
"149 684 QCURVE",
"148 684 LINE",
"148 684 OFFCURVE",
"148 684 QCURVE",
"148 684 OFFCURVE",
"148 684 QCURVE",
"148 684 OFFCURVE",
"148 684 QCURVE",
"148 684 OFFCURVE",
"148 684 QCURVE",
"148 684 OFFCURVE",
"147 684 QCURVE",
"147 684 OFFCURVE",
"147 684 QCURVE",
"147 684 OFFCURVE",
"147 684 QCURVE",
"147 684 OFFCURVE",
"147 684 QCURVE",
"146 684 LINE",
"146 684 OFFCURVE",
"146 684 QCURVE",
"146 684 OFFCURVE",
"146 684 QCURVE",
"146 684 OFFCURVE",
"146 684 QCURVE",
"146 684 OFFCURVE",
"146 684 QCURVE",
"146 684 OFFCURVE",
"146 684 QCURVE",
"146 684 OFFCURVE",
"146 684 QCURVE",
"146 684 OFFCURVE",
"145 684 QCURVE",
"145 684 OFFCURVE",
"145 684 QCURVE",
"142 684 LINE",
"142 684 OFFCURVE",
"142 684 QCURVE",
"142 684 OFFCURVE",
"142 684 QCURVE",
"142 684 OFFCURVE",
"142 684 QCURVE",
"142 684 OFFCURVE",
"142 684 QCURVE",
"142 684 OFFCURVE",
"142 684 QCURVE",
"142 684 OFFCURVE",
"142 684 QCURVE",
"142 684 OFFCURVE",
"142 684 QCURVE",
"142 684 OFFCURVE",
"141 684 QCURVE",
"141 684 OFFCURVE",
"141 684 QCURVE",
"130 684 LINE",
"130 684 OFFCURVE",
"130 684 QCURVE",
"130 684 OFFCURVE",
"130 684 QCURVE",
"130 684 OFFCURVE",
"130 684 QCURVE",
"130 684 OFFCURVE",
"130 684 QCURVE",
"130 684 OFFCURVE",
"129 684 QCURVE",
"129 684 OFFCURVE",
"129 684 QCURVE",
"126 684 LINE SMOOTH",
"111 684 OFFCURVE",
"111 685 QCURVE"
);
},
{
nodes = (
"-36 764 LINE",
"60 764 LINE",
"59 683 LINE",
"32 682 OFFCURVE",
"11 682 QCURVE",
"-7 681 OFFCURVE",
"-36 681 OFFCURVE",
"-36 682 QCURVE"
);
},
{
nodes = (
"28 647 LINE",
"141 647 LINE",
"141 0 LINE",
"28 0 LINE"
);
}
);
width = 169;
}
);
unicode = 00CF;
},
{
glyphname = Eth;
layers = (
{
layerId = "B61A831B-AFE2-4931-A0BA-7BE9EE52F2B7";
paths = (
{
nodes = (
"223 649 LINE SMOOTH",
"272 649 OFFCURVE",
"340 629 OFFCURVE",
"380 588 OFFCURVE",
"398 524 OFFCURVE",
"398 481 QCURVE SMOOTH",
"398 182 LINE SMOOTH",
"398 119 OFFCURVE",
"358 47 OFFCURVE",
"289 10 OFFCURVE",
"198 0 OFFCURVE",
"147 0 QCURVE SMOOTH",
"48 0 LINE",
"48 278 LINE",
"18 278 LINE",
"18 385 LINE",
"48 385 LINE",
"48 649 LINE"
);
},
{
nodes = (
"287 471 LINE SMOOTH",
"287 499 OFFCURVE",
"274 529 OFFCURVE",
"248 542 OFFCURVE",
"208 544 OFFCURVE",
"181 544 QCURVE SMOOTH",
"160 544 LINE",
"160 385 LINE",
"239 385 LINE",
"239 278 LINE",
"160 278 LINE",
"160 106 LINE",
"194 106 OFFCURVE",
"242 109 OFFCURVE",
"273 125 OFFCURVE",
"287 157 OFFCURVE",
"287 186 QCURVE SMOOTH"
);
}
);
width = 420;
}
);
unicode = 00D0;
},
{
glyphname = Ntilde;
layers = (
{
layerId = "B61A831B-AFE2-4931-A0BA-7BE9EE52F2B7";
paths = (
{
nodes = (
"375 725 LINE",
"371 720 LINE SMOOTH",
"340 683 OFFCURVE",
"304 674 QCURVE SMOOTH",
"299 673 OFFCURVE",
"295 673 QCURVE",
"293 673 LINE",
"293 673 OFFCURVE",
"293 673 QCURVE",
"293 673 OFFCURVE",
"293 673 QCURVE",
"293 673 OFFCURVE",
"293 673 QCURVE",
"293 673 OFFCURVE",
"293 673 QCURVE",
"293 673 OFFCURVE",
"293 673 QCURVE",
"293 673 OFFCURVE",
"293 673 QCURVE",
"292 673 LINE",
"292 673 OFFCURVE",
"292 673 QCURVE",
"285 673 LINE SMOOTH",
"248 673 OFFCURVE",
"205 702 QCURVE",
"199 705 OFFCURVE",
"188 710 OFFCURVE",
"182 710 QCURVE SMOOTH",
"174 710 OFFCURVE",
"160 705 OFFCURVE",
"154 702 QCURVE",
"147 697 OFFCURVE",
"143 693 QCURVE SMOOTH",
"122 671 LINE",
"77 711 LINE",
"80 717 LINE",
"82 719 OFFCURVE",
"105 746 OFFCURVE",
"125 757 QCURVE",
"152 775 OFFCURVE",
"182 775 QCURVE SMOOTH",
"210 775 OFFCURVE",
"237 757 QCURVE SMOOTH",
"265 738 OFFCURVE",
"285 738 QCURVE SMOOTH",
"289 738 OFFCURVE",
"293 739 QCURVE SMOOTH",
"311 744 OFFCURVE",
"326 764 QCURVE",
"329 769 LINE"
);
},
{
nodes = (
"413 0 LINE",
"301 0 LINE",
"140 368 LINE",
"140 0 LINE",
"29 0 LINE",
"29 649 LINE",
"139 649 LINE",
"300 281 LINE",
"300 649 LINE",
"413 649 LINE"
);
}
);
width = 446;
}
);
unicode = 00D1;
},
{
glyphname = Ograve;
layers = (
{
layerId = "B61A831B-AFE2-4931-A0BA-7BE9EE52F2B7";
paths = (
{
nodes = (
"165 681 OFFCURVE",
"145 707 OFFCURVE",
"134 722 QCURVE SMOOTH",
"120 740 OFFCURVE",
"103 762 QCURVE",
"200 762 LINE",
"260 681 LINE",
"233 680 OFFCURVE",
"212 680 QCURVE",
"194 679 OFFCURVE",
"165 679 OFFCURVE",
"165 680 QCURVE"
);
},
{
nodes = (
"374 197 LINE SMOOTH",
"374 148 OFFCURVE",
"364 74 OFFCURVE",
"328 25 OFFCURVE",
"259 0 OFFCURVE",
"199 0 QCURVE SMOOTH",
"151 0 OFFCURVE",
"85 18 OFFCURVE",
"43 57 OFFCURVE",
"25 120 OFFCURVE",
"25 165 QCURVE SMOOTH",
"25 484 LINE SMOOTH",
"25 529 OFFCURVE",
"43 592 OFFCURVE",
"85 631 OFFCURVE",
"151 649 OFFCURVE",
"199 649 QCURVE SMOOTH",
"247 649 OFFCURVE",
"314 631 OFFCURVE",
"355 592 OFFCURVE",
"374 529 OFFCURVE",
"374 484 QCURVE SMOOTH"
);
},
{
nodes = (
"137 192 LINE",
"137 167 OFFCURVE",
"141 134 OFFCURVE",
"154 115 OFFCURVE",
"179 108 OFFCURVE",
"201 108 QCURVE SMOOTH",
"223 108 OFFCURVE",
"248 119 OFFCURVE",
"260 142 OFFCURVE",
"262 175 OFFCURVE",
"262 197 QCURVE SMOOTH",
"262 484 LINE SMOOTH",
"262 505 OFFCURVE",
"259 529 OFFCURVE",
"247 541 OFFCURVE",
"221 543 OFFCURVE",
"199 543 QCURVE SMOOTH",
"176 543 OFFCURVE",
"150 538 OFFCURVE",
"138 525 OFFCURVE",
"135 502 OFFCURVE",
"135 484 QCURVE"
);
}
);
width = 402;
}
);
unicode = 00D2;
},
{
glyphname = Oacute;
layers = (
{
layerId = "B61A831B-AFE2-4931-A0BA-7BE9EE52F2B7";
paths = (
{
nodes = (
"136 683 OFFCURVE",
"152 709 OFFCURVE",
"162 724 QCURVE SMOOTH",
"188 764 LINE",
"285 764 LINE",
"231 683 LINE",
"204 682 OFFCURVE",
"183 682 QCURVE",
"165 681 OFFCURVE",
"136 681 OFFCURVE",
"136 682 QCURVE"
);
},
{
nodes = (
"374 197 LINE SMOOTH",
"374 148 OFFCURVE",
"364 74 OFFCURVE",
"328 25 OFFCURVE",
"259 0 OFFCURVE",
"199 0 QCURVE SMOOTH",
"151 0 OFFCURVE",
"85 18 OFFCURVE",
"43 57 OFFCURVE",
"25 120 OFFCURVE",
"25 165 QCURVE SMOOTH",
"25 484 LINE SMOOTH",
"25 529 OFFCURVE",
"43 592 OFFCURVE",
"85 631 OFFCURVE",
"151 649 OFFCURVE",
"199 649 QCURVE SMOOTH",
"247 649 OFFCURVE",
"314 631 OFFCURVE",
"355 592 OFFCURVE",
"374 529 OFFCURVE",
"374 484 QCURVE SMOOTH"
);
},
{
nodes = (
"137 192 LINE",
"137 167 OFFCURVE",
"141 134 OFFCURVE",
"154 115 OFFCURVE",
"179 108 OFFCURVE",
"201 108 QCURVE SMOOTH",
"223 108 OFFCURVE",
"248 119 OFFCURVE",
"260 142 OFFCURVE",
"262 175 OFFCURVE",
"262 197 QCURVE SMOOTH",
"262 484 LINE SMOOTH",
"262 505 OFFCURVE",
"259 529 OFFCURVE",
"247 541 OFFCURVE",
"221 543 OFFCURVE",
"199 543 QCURVE SMOOTH",
"176 543 OFFCURVE",
"150 538 OFFCURVE",
"138 525 OFFCURVE",
"135 502 OFFCURVE",
"135 484 QCURVE"
);
}
);
width = 402;
}
);
unicode = 00D3;
},
{
glyphname = Ocircumflex;
layers = (
{
layerId = "B61A831B-AFE2-4931-A0BA-7BE9EE52F2B7";
paths = (
{
nodes = (
"112 772 LINE",
"283 774 LINE",
"343 680 LINE",
"239 680 LINE",
"197 736 LINE",
"158 676 LINE",
"54 676 LINE"
);
},
{
nodes = (
"374 197 LINE SMOOTH",
"374 148 OFFCURVE",
"364 74 OFFCURVE",
"328 25 OFFCURVE",
"259 0 OFFCURVE",
"199 0 QCURVE SMOOTH",
"151 0 OFFCURVE",
"85 18 OFFCURVE",
"43 57 OFFCURVE",
"25 120 OFFCURVE",
"25 165 QCURVE SMOOTH",
"25 484 LINE SMOOTH",
"25 529 OFFCURVE",
"43 592 OFFCURVE",
"85 631 OFFCURVE",
"151 649 OFFCURVE",
"199 649 QCURVE SMOOTH",
"247 649 OFFCURVE",
"314 631 OFFCURVE",
"355 592 OFFCURVE",
"374 529 OFFCURVE",
"374 484 QCURVE SMOOTH"
);
},
{
nodes = (
"137 192 LINE",
"137 167 OFFCURVE",
"141 134 OFFCURVE",
"154 115 OFFCURVE",
"179 108 OFFCURVE",
"201 108 QCURVE SMOOTH",
"223 108 OFFCURVE",
"248 119 OFFCURVE",
"260 142 OFFCURVE",
"262 175 OFFCURVE",
"262 197 QCURVE SMOOTH",
"262 484 LINE SMOOTH",
"262 505 OFFCURVE",
"259 529 OFFCURVE",
"247 541 OFFCURVE",
"221 543 OFFCURVE",
"199 543 QCURVE SMOOTH",
"176 543 OFFCURVE",
"150 538 OFFCURVE",
"138 525 OFFCURVE",
"135 502 OFFCURVE",
"135 484 QCURVE"
);
}
);
width = 402;
}
);
unicode = 00D4;
},
{
glyphname = Otilde;
layers = (
{
layerId = "B61A831B-AFE2-4931-A0BA-7BE9EE52F2B7";
paths = (
{
nodes = (
"350 723 LINE",
"346 718 LINE SMOOTH",
"315 681 OFFCURVE",
"279 672 QCURVE SMOOTH",
"274 671 OFFCURVE",
"269 671 QCURVE",
"269 671 OFFCURVE",
"269 671 QCURVE",
"269 671 OFFCURVE",
"269 671 QCURVE",
"268 671 LINE",
"268 671 OFFCURVE",
"268 671 QCURVE",
"268 671 OFFCURVE",
"268 671 QCURVE",
"268 671 OFFCURVE",
"268 671 QCURVE",
"268 671 OFFCURVE",
"268 671 QCURVE",
"260 671 LINE SMOOTH",
"223 671 OFFCURVE",
"180 700 QCURVE",
"174 703 OFFCURVE",
"163 708 OFFCURVE",
"157 708 QCURVE SMOOTH",
"149 708 OFFCURVE",
"135 703 OFFCURVE",
"129 700 QCURVE",
"122 695 OFFCURVE",
"118 691 QCURVE SMOOTH",
"97 669 LINE",
"52 709 LINE",
"55 715 LINE",
"57 717 OFFCURVE",
"80 744 OFFCURVE",
"100 755 QCURVE",
"127 773 OFFCURVE",
"157 773 QCURVE SMOOTH",
"185 773 OFFCURVE",
"212 755 QCURVE SMOOTH",
"240 736 OFFCURVE",
"260 736 QCURVE SMOOTH",
"264 736 OFFCURVE",
"268 737 QCURVE SMOOTH",
"286 742 OFFCURVE",
"301 762 QCURVE",
"304 767 LINE"
);
},
{
nodes = (
"374 197 LINE SMOOTH",
"374 148 OFFCURVE",
"364 74 OFFCURVE",
"328 25 OFFCURVE",
"259 0 OFFCURVE",
"199 0 QCURVE SMOOTH",
"151 0 OFFCURVE",
"85 18 OFFCURVE",
"43 57 OFFCURVE",
"25 120 OFFCURVE",
"25 165 QCURVE SMOOTH",
"25 484 LINE SMOOTH",
"25 529 OFFCURVE",
"43 592 OFFCURVE",
"85 631 OFFCURVE",
"151 649 OFFCURVE",
"199 649 QCURVE SMOOTH",
"247 649 OFFCURVE",
"314 631 OFFCURVE",
"355 592 OFFCURVE",
"374 529 OFFCURVE",
"374 484 QCURVE SMOOTH"
);
},
{
nodes = (
"137 192 LINE",
"137 167 OFFCURVE",
"141 134 OFFCURVE",
"154 115 OFFCURVE",
"179 108 OFFCURVE",
"201 108 QCURVE SMOOTH",
"223 108 OFFCURVE",
"248 119 OFFCURVE",
"260 142 OFFCURVE",
"262 175 OFFCURVE",
"262 197 QCURVE SMOOTH",
"262 484 LINE SMOOTH",
"262 505 OFFCURVE",
"259 529 OFFCURVE",
"247 541 OFFCURVE",
"221 543 OFFCURVE",
"199 543 QCURVE SMOOTH",
"176 543 OFFCURVE",
"150 538 OFFCURVE",
"138 525 OFFCURVE",
"135 502 OFFCURVE",
"135 484 QCURVE"
);
}
);
width = 402;
}
);
unicode = 00D5;
},
{
glyphname = Odieresis;
layers = (
{
layerId = "B61A831B-AFE2-4931-A0BA-7BE9EE52F2B7";
paths = (
{
nodes = (
"234 766 LINE",
"330 766 LINE",
"329 685 LINE",
"302 684 OFFCURVE",
"281 684 QCURVE SMOOTH",
"278 684 LINE",
"278 684 OFFCURVE",
"278 684 QCURVE",
"278 684 OFFCURVE",
"278 684 QCURVE",
"278 684 OFFCURVE",
"277 684 QCURVE",
"277 684 OFFCURVE",
"277 684 QCURVE",
"277 684 OFFCURVE",
"277 684 QCURVE",
"277 684 OFFCURVE",
"277 684 QCURVE",
"277 684 OFFCURVE",
"277 684 QCURVE",
"277 684 OFFCURVE",
"277 684 QCURVE",
"277 684 OFFCURVE",
"277 684 QCURVE",
"277 684 OFFCURVE",
"277 684 QCURVE",
"277 684 OFFCURVE",
"276 684 QCURVE",
"276 684 OFFCURVE",
"276 684 QCURVE",
"276 684 OFFCURVE",
"276 684 QCURVE",
"276 684 OFFCURVE",
"276 684 QCURVE",
"275 684 LINE",
"275 684 OFFCURVE",
"275 684 QCURVE",
"275 684 OFFCURVE",
"275 684 QCURVE",
"275 684 OFFCURVE",
"274 684 QCURVE",
"274 684 OFFCURVE",
"274 684 QCURVE",
"274 684 OFFCURVE",
"274 684 QCURVE",
"274 684 OFFCURVE",
"274 684 QCURVE",
"273 684 LINE",
"273 684 OFFCURVE",
"273 684 QCURVE",
"273 684 OFFCURVE",
"273 684 QCURVE",
"273 684 OFFCURVE",
"273 684 QCURVE",
"273 684 OFFCURVE",
"273 684 QCURVE",
"273 684 OFFCURVE",
"272 684 QCURVE",
"272 684 OFFCURVE",
"272 684 QCURVE",
"272 684 OFFCURVE",
"272 684 QCURVE",
"272 684 OFFCURVE",
"272 684 QCURVE",
"271 684 LINE",
"271 684 OFFCURVE",
"271 684 QCURVE",
"271 684 OFFCURVE",
"271 684 QCURVE",
"271 684 OFFCURVE",
"271 684 QCURVE",
"271 684 OFFCURVE",
"271 684 QCURVE",
"271 684 OFFCURVE",
"270 684 QCURVE",
"270 684 OFFCURVE",
"270 684 QCURVE",
"270 684 OFFCURVE",
"270 684 QCURVE",
"270 684 OFFCURVE",
"270 684 QCURVE",
"270 684 OFFCURVE",
"270 684 QCURVE",
"269 684 LINE",
"269 684 OFFCURVE",
"269 684 QCURVE",
"269 684 OFFCURVE",
"269 684 QCURVE",
"269 684 OFFCURVE",
"269 684 QCURVE",
"269 684 OFFCURVE",
"269 684 QCURVE",
"269 684 OFFCURVE",
"269 684 QCURVE",
"269 684 OFFCURVE",
"269 684 QCURVE",
"269 684 OFFCURVE",
"268 684 QCURVE",
"268 684 OFFCURVE",
"268 684 QCURVE",
"268 684 OFFCURVE",
"268 684 QCURVE",
"268 684 OFFCURVE",
"268 684 QCURVE",
"268 684 OFFCURVE",
"268 684 QCURVE",
"265 684 LINE",
"265 684 OFFCURVE",
"265 684 QCURVE",
"265 684 OFFCURVE",
"265 684 QCURVE",
"265 684 OFFCURVE",
"265 684 QCURVE",
"265 684 OFFCURVE",
"265 684 QCURVE",
"265 684 OFFCURVE",
"264 684 QCURVE",
"264 684 OFFCURVE",
"264 684 QCURVE",
"264 684 OFFCURVE",
"264 684 QCURVE",
"264 684 OFFCURVE",
"264 684 QCURVE",
"253 684 LINE",
"253 684 OFFCURVE",
"253 684 QCURVE",
"253 684 OFFCURVE",
"253 684 QCURVE",
"253 684 OFFCURVE",
"253 684 QCURVE",
"253 684 OFFCURVE",
"253 684 QCURVE",
"253 684 OFFCURVE",
"253 684 QCURVE",
"253 684 OFFCURVE",
"253 684 QCURVE",
"253 684 OFFCURVE",
"252 684 QCURVE",
"252 684 OFFCURVE",
"252 684 QCURVE",
"252 684 OFFCURVE",
"252 684 QCURVE",
"252 684 OFFCURVE",
"252 684 QCURVE",
"251 684 LINE",
"251 684 OFFCURVE",
"251 684 QCURVE",
"251 684 OFFCURVE",
"251 684 QCURVE",
"251 684 OFFCURVE",
"251 684 QCURVE",
"249 684 LINE",
"234 684 OFFCURVE",
"234 685 QCURVE"
);
},
{
nodes = (
"78 764 LINE",
"174 764 LINE",
"173 683 LINE",
"146 682 OFFCURVE",
"125 682 QCURVE",
"107 681 OFFCURVE",
"78 681 OFFCURVE",
"78 682 QCURVE"
);
},
{
nodes = (
"374 197 LINE SMOOTH",
"374 148 OFFCURVE",
"364 74 OFFCURVE",
"328 25 OFFCURVE",
"259 0 OFFCURVE",
"199 0 QCURVE SMOOTH",
"151 0 OFFCURVE",
"85 18 OFFCURVE",
"43 57 OFFCURVE",
"25 120 OFFCURVE",
"25 165 QCURVE SMOOTH",
"25 484 LINE SMOOTH",
"25 529 OFFCURVE",
"43 592 OFFCURVE",
"85 631 OFFCURVE",
"151 649 OFFCURVE",
"199 649 QCURVE SMOOTH",
"247 649 OFFCURVE",
"314 631 OFFCURVE",
"355 592 OFFCURVE",
"374 529 OFFCURVE",
"374 484 QCURVE SMOOTH"
);
},
{
nodes = (
"137 192 LINE",
"137 167 OFFCURVE",
"141 134 OFFCURVE",
"154 115 OFFCURVE",
"179 108 OFFCURVE",
"201 108 QCURVE SMOOTH",
"223 108 OFFCURVE",
"248 119 OFFCURVE",
"260 142 OFFCURVE",
"262 175 OFFCURVE",
"262 197 QCURVE SMOOTH",
"262 484 LINE SMOOTH",
"262 505 OFFCURVE",
"259 529 OFFCURVE",
"247 541 OFFCURVE",
"221 543 OFFCURVE",
"199 543 QCURVE SMOOTH",
"176 543 OFFCURVE",
"150 538 OFFCURVE",
"138 525 OFFCURVE",
"135 502 OFFCURVE",
"135 484 QCURVE"
);
}
);
width = 402;
}
);
unicode = 00D6;
},
{
glyphname = multiply;
layers = (
{
layerId = "B61A831B-AFE2-4931-A0BA-7BE9EE52F2B7";
paths = (
{
nodes = (
"377 473 LINE",
"261 357 LINE",
"377 241 LINE",
"319 184 LINE",
"203 300 LINE",
"87 184 LINE",
"30 241 LINE",
"146 357 LINE",
"30 473 LINE",
"87 531 LINE",
"203 415 LINE",
"319 531 LINE"
);
}
);
width = 405;
}
);
unicode = 00D7;
},
{
glyphname = Oslash;
layers = (
{
layerId = "B61A831B-AFE2-4931-A0BA-7BE9EE52F2B7";
paths = (
{
nodes = (
"345 605 LINE",
"362 585 OFFCURVE",
"377 526 OFFCURVE",
"377 484 QCURVE SMOOTH",
"377 197 LINE SMOOTH",
"377 148 OFFCURVE",
"367 74 OFFCURVE",
"331 25 OFFCURVE",
"262 0 OFFCURVE",
"202 0 QCURVE SMOOTH",
"146 0 OFFCURVE",
"107 14 QCURVE",
"92 -23 LINE",
"36 0 LINE",
"56 51 LINE",
"28 89 OFFCURVE",
"28 165 QCURVE SMOOTH",
"28 484 LINE SMOOTH",
"28 529 OFFCURVE",
"46 592 OFFCURVE",
"88 631 OFFCURVE",
"154 649 OFFCURVE",
"202 649 QCURVE SMOOTH",
"230 649 OFFCURVE",
"275 644 OFFCURVE",
"293 638 QCURVE",
"308 675 LINE",
"364 652 LINE"
);
},
{
nodes = (
"140 259 LINE",
"253 538 LINE",
"246 542 OFFCURVE",
"222 543 OFFCURVE",
"202 543 QCURVE SMOOTH",
"179 543 OFFCURVE",
"153 538 OFFCURVE",
"141 525 OFFCURVE",
"138 502 OFFCURVE",
"138 484 QCURVE"
);
},
{
nodes = (
"226 108 OFFCURVE",
"251 119 OFFCURVE",
"263 142 OFFCURVE",
"265 175 OFFCURVE",
"265 197 QCURVE SMOOTH",
"265 407 LINE",
"151 124 LINE",
"163 108 OFFCURVE",
"204 108 QCURVE SMOOTH"
);
}
);
width = 402;
}
);
unicode = 00D8;
},
{
glyphname = Ugrave;
layers = (
{
layerId = "B61A831B-AFE2-4931-A0BA-7BE9EE52F2B7";
paths = (
{
nodes = (
"174 682 OFFCURVE",
"154 708 OFFCURVE",
"143 723 QCURVE SMOOTH",
"129 741 OFFCURVE",
"112 763 QCURVE",
"209 763 LINE",
"269 682 LINE",
"242 681 OFFCURVE",
"221 681 QCURVE",
"203 680 OFFCURVE",
"174 680 OFFCURVE",
"174 681 QCURVE"
);
},
{
nodes = (
"137 648 LINE",
"140 165 LINE",
"140 160 LINE SMOOTH",
"140 152 OFFCURVE",
"141 132 OFFCURVE",
"144 125 QCURVE",
"143 125 LINE",
"148 117 OFFCURVE",
"182 107 OFFCURVE",
"202 107 QCURVE SMOOTH",
"223 107 OFFCURVE",
"260 120 OFFCURVE",
"262 131 QCURVE",
"263 154 OFFCURVE",
"264 625 OFFCURVE",
"264 648 QCURVE",
"375 648 LINE",
"375 197 LINE SMOOTH",
"375 150 OFFCURVE",
"366 76 OFFCURVE",
"332 26 OFFCURVE",
"261 0 OFFCURVE",
"200 0 QCURVE SMOOTH",
"150 0 OFFCURVE",
"83 18 OFFCURVE",
"43 58 OFFCURVE",
"25 121 OFFCURVE",
"25 165 QCURVE SMOOTH",
"25 648 LINE"
);
}
);
width = 401;
}
);
unicode = 00D9;
},
{
glyphname = Uacute;
layers = (
{
layerId = "B61A831B-AFE2-4931-A0BA-7BE9EE52F2B7";
paths = (
{
nodes = (
"140 683 OFFCURVE",
"156 709 OFFCURVE",
"166 724 QCURVE SMOOTH",
"192 764 LINE",
"289 764 LINE",
"235 683 LINE",
"208 682 OFFCURVE",
"187 682 QCURVE",
"169 681 OFFCURVE",
"140 681 OFFCURVE",
"140 682 QCURVE"
);
},
{
nodes = (
"137 648 LINE",
"140 165 LINE",
"140 160 LINE SMOOTH",
"140 152 OFFCURVE",
"141 132 OFFCURVE",
"144 125 QCURVE",
"143 125 LINE",
"148 117 OFFCURVE",
"182 107 OFFCURVE",
"202 107 QCURVE SMOOTH",
"223 107 OFFCURVE",
"260 120 OFFCURVE",
"262 131 QCURVE",
"263 154 OFFCURVE",
"264 625 OFFCURVE",
"264 648 QCURVE",
"375 648 LINE",
"375 197 LINE SMOOTH",
"375 150 OFFCURVE",
"366 76 OFFCURVE",
"332 26 OFFCURVE",
"261 0 OFFCURVE",
"200 0 QCURVE SMOOTH",
"150 0 OFFCURVE",
"83 18 OFFCURVE",
"43 58 OFFCURVE",
"25 121 OFFCURVE",
"25 165 QCURVE SMOOTH",
"25 648 LINE"
);
}
);
width = 401;
}
);
unicode = 00DA;
},
{
glyphname = Ucircumflex;
layers = (
{
layerId = "B61A831B-AFE2-4931-A0BA-7BE9EE52F2B7";
paths = (
{
nodes = (
"114 772 LINE",
"285 774 LINE",
"345 680 LINE",
"241 680 LINE",
"199 736 LINE",
"160 676 LINE",
"56 676 LINE"
);
},
{
nodes = (
"137 648 LINE",
"140 165 LINE",
"140 160 LINE SMOOTH",
"140 152 OFFCURVE",
"141 132 OFFCURVE",
"144 125 QCURVE",
"143 125 LINE",
"148 117 OFFCURVE",
"182 107 OFFCURVE",
"202 107 QCURVE SMOOTH",
"223 107 OFFCURVE",
"260 120 OFFCURVE",
"262 131 QCURVE",
"263 154 OFFCURVE",
"265 492 OFFCURVE",
"265 552 QCURVE SMOOTH",
"265 582 OFFCURVE",
"264 625 OFFCURVE",
"264 648 QCURVE",
"375 648 LINE",
"375 197 LINE SMOOTH",
"375 150 OFFCURVE",
"366 76 OFFCURVE",
"332 26 OFFCURVE",
"261 0 OFFCURVE",
"200 0 QCURVE SMOOTH",
"150 0 OFFCURVE",
"83 18 OFFCURVE",
"43 58 OFFCURVE",
"25 121 OFFCURVE",
"25 165 QCURVE SMOOTH",
"25 648 LINE"
);
}
);
width = 401;
}
);
unicode = 00DB;
},
{
glyphname = Udieresis;
layers = (
{
layerId = "B61A831B-AFE2-4931-A0BA-7BE9EE52F2B7";
paths = (
{
nodes = (
"223 765 LINE",
"319 765 LINE",
"318 684 LINE",
"291 683 OFFCURVE",
"270 683 QCURVE SMOOTH",
"267 683 LINE",
"267 683 OFFCURVE",
"267 683 QCURVE",
"266 683 LINE",
"266 683 OFFCURVE",
"266 683 QCURVE",
"266 683 OFFCURVE",
"266 683 QCURVE",
"266 683 OFFCURVE",
"266 683 QCURVE",
"266 683 OFFCURVE",
"266 683 QCURVE",
"266 683 OFFCURVE",
"266 683 QCURVE",
"266 683 OFFCURVE",
"266 683 QCURVE",
"266 683 OFFCURVE",
"266 683 QCURVE",
"261 683 LINE",
"261 683 OFFCURVE",
"261 683 QCURVE",
"261 683 OFFCURVE",
"261 683 QCURVE",
"261 683 OFFCURVE",
"261 683 QCURVE",
"261 683 OFFCURVE",
"261 683 QCURVE",
"261 683 OFFCURVE",
"261 683 QCURVE",
"261 683 OFFCURVE",
"261 683 QCURVE",
"261 683 OFFCURVE",
"261 683 QCURVE",
"261 683 OFFCURVE",
"261 683 QCURVE",
"260 683 LINE",
"260 683 OFFCURVE",
"260 683 QCURVE",
"260 683 OFFCURVE",
"260 683 QCURVE",
"258 683 LINE",
"258 683 OFFCURVE",
"258 683 QCURVE",
"258 683 OFFCURVE",
"258 683 QCURVE",
"254 683 LINE",
"254 683 OFFCURVE",
"254 683 QCURVE",
"254 683 OFFCURVE",
"254 683 QCURVE",
"254 683 OFFCURVE",
"254 683 QCURVE",
"254 683 OFFCURVE",
"254 683 QCURVE",
"254 683 OFFCURVE",
"254 683 QCURVE",
"254 683 OFFCURVE",
"254 683 QCURVE",
"238 683 LINE SMOOTH",
"223 683 OFFCURVE",
"223 684 QCURVE"
);
},
{
nodes = (
"70 763 LINE",
"166 763 LINE",
"165 682 LINE",
"138 681 OFFCURVE",
"117 681 QCURVE",
"99 680 OFFCURVE",
"70 680 OFFCURVE",
"70 681 QCURVE"
);
},
{
nodes = (
"137 648 LINE",
"140 165 LINE",
"140 160 LINE SMOOTH",
"140 152 OFFCURVE",
"141 132 OFFCURVE",
"144 125 QCURVE",
"143 125 LINE",
"148 117 OFFCURVE",
"182 107 OFFCURVE",
"202 107 QCURVE SMOOTH",
"223 107 OFFCURVE",
"260 120 OFFCURVE",
"262 131 QCURVE",
"263 154 OFFCURVE",
"265 492 OFFCURVE",
"265 552 QCURVE SMOOTH",
"265 582 OFFCURVE",
"264 625 OFFCURVE",
"264 648 QCURVE",
"375 648 LINE",
"375 197 LINE SMOOTH",
"375 150 OFFCURVE",
"366 76 OFFCURVE",
"332 26 OFFCURVE",
"261 0 OFFCURVE",
"200 0 QCURVE SMOOTH",
"150 0 OFFCURVE",
"83 18 OFFCURVE",
"43 58 OFFCURVE",
"25 121 OFFCURVE",
"25 165 QCURVE SMOOTH",
"25 648 LINE"
);
}
);
width = 401;
}
);
unicode = 00DC;
},
{
glyphname = Yacute;
layers = (
{
layerId = "B61A831B-AFE2-4931-A0BA-7BE9EE52F2B7";
paths = (
{
nodes = (
"131 683 OFFCURVE",
"147 709 OFFCURVE",
"157 724 QCURVE SMOOTH",
"183 764 LINE",
"280 764 LINE",
"226 683 LINE",
"199 682 OFFCURVE",
"178 682 QCURVE",
"160 681 OFFCURVE",
"131 681 OFFCURVE",
"131 682 QCURVE"
);
},
{
nodes = (
"367 573 LINE SMOOTH",
"367 528 OFFCURVE",
"360 448 OFFCURVE",
"336 374 OFFCURVE",
"288 304 OFFCURVE",
"247 268 QCURVE",
"247 0 LINE",
"135 0 LINE",
"135 268 LINE",
"93 304 OFFCURVE",
"46 374 OFFCURVE",
"23 448 OFFCURVE",
"17 528 OFFCURVE",
"17 573 QCURVE SMOOTH",
"17 649 LINE",
"128 649 LINE",
"128 636 OFFCURVE",
"127 607 OFFCURVE",
"127 595 QCURVE SMOOTH",
"127 584 OFFCURVE",
"126 564 OFFCURVE",
"126 553 QCURVE SMOOTH",
"126 528 OFFCURVE",
"131 479 OFFCURVE",
"145 432 OFFCURVE",
"170 386 OFFCURVE",
"190 364 QCURVE",
"233 409 OFFCURVE",
"257 506 OFFCURVE",
"257 560 QCURVE SMOOTH",
"257 570 OFFCURVE",
"256 589 OFFCURVE",
"256 600 QCURVE SMOOTH",
"256 611 OFFCURVE",
"255 638 OFFCURVE",
"255 649 QCURVE",
"367 649 LINE"
);
}
);
width = 388;
}
);
unicode = 00DD;
},
{
glyphname = Thorn;
layers = (
{
layerId = "B61A831B-AFE2-4931-A0BA-7BE9EE52F2B7";
paths = (
{
nodes = (
"247 575 OFFCURVE",
"314 557 OFFCURVE",
"355 518 OFFCURVE",
"374 455 OFFCURVE",
"374 410 QCURVE SMOOTH",
"374 266 LINE SMOOTH",
"374 217 OFFCURVE",
"364 143 OFFCURVE",
"328 94 OFFCURVE",
"259 69 OFFCURVE",
"199 69 QCURVE SMOOTH",
"182 69 OFFCURVE",
"152 72 OFFCURVE",
"138 74 QCURVE",
"138 0 LINE",
"25 0 LINE",
"25 653 LINE",
"138 653 LINE",
"138 571 LINE",
"152 573 OFFCURVE",
"182 575 OFFCURVE",
"199 575 QCURVE SMOOTH"
);
},
{
nodes = (
"262 410 LINE SMOOTH",
"262 431 OFFCURVE",
"259 455 OFFCURVE",
"247 467 OFFCURVE",
"221 469 OFFCURVE",
"199 469 QCURVE SMOOTH",
"168 469 OFFCURVE",
"142 460 OFFCURVE",
"138 447 QCURVE",
"138 227 LINE",
"140 198 OFFCURVE",
"166 177 OFFCURVE",
"201 177 QCURVE SMOOTH",
"223 177 OFFCURVE",
"248 188 OFFCURVE",
"260 211 OFFCURVE",
"262 244 OFFCURVE",
"262 266 QCURVE SMOOTH"
);
}
);
width = 392;
}
);
unicode = 00DE;
},
{
glyphname = germandbls;
layers = (
{
layerId = "B61A831B-AFE2-4931-A0BA-7BE9EE52F2B7";
paths = (
{
nodes = (
"350 327 OFFCURVE",
"367 293 OFFCURVE",
"375 257 OFFCURVE",
"376 218 OFFCURVE",
"376 198 QCURVE SMOOTH",
"376 150 OFFCURVE",
"357 77 OFFCURVE",
"310 26 OFFCURVE",
"230 0 OFFCURVE",
"168 0 QCURVE",
"168 106 LINE",
"219 108 OFFCURVE",
"264 152 OFFCURVE",
"264 181 QCURVE SMOOTH",
"264 198 LINE SMOOTH",
"264 241 OFFCURVE",
"252 277 OFFCURVE",
"235 282 QCURVE SMOOTH",
"224 285 OFFCURVE",
"218 289 OFFCURVE",
"216 290 OFFCURVE",
"215 290 QCURVE",
"214 290 OFFCURVE",
"210 289 OFFCURVE",
"200 289 QCURVE SMOOTH",
"172 289 LINE",
"172 396 LINE",
"196 396 LINE",
"222 397 OFFCURVE",
"250 408 OFFCURVE",
"262 427 OFFCURVE",
"263 451 OFFCURVE",
"263 466 QCURVE SMOOTH",
"263 485 OFFCURVE",
"260 514 OFFCURVE",
"248 535 OFFCURVE",
"222 546 OFFCURVE",
"199 547 QCURVE",
"175 547 OFFCURVE",
"150 537 OFFCURVE",
"138 517 OFFCURVE",
"136 485 OFFCURVE",
"136 464 QCURVE",
"134 464 LINE",
"134 0 LINE",
"23 0 LINE",
"23 464 LINE SMOOTH",
"23 509 OFFCURVE",
"41 579 OFFCURVE",
"82 628 OFFCURVE",
"149 653 OFFCURVE",
"199 653 QCURVE SMOOTH",
"260 653 OFFCURVE",
"330 624 OFFCURVE",
"366 571 OFFCURVE",
"375 495 OFFCURVE",
"375 447 QCURVE SMOOTH",
"375 417 OFFCURVE",
"357 366 OFFCURVE",
"334 343 QCURVE"
);
}
);
width = 390;
}
);
unicode = 00DF;
},
